<svg width="287" height="286" viewBox="0 0 287 286" fill="none" xmlns="http://www.w3.org/2000/svg">
<g clip-path="url(#clip0_13_1507)">
<mask id="mask0_13_1507" style="mask-type:luminance" maskUnits="userSpaceOnUse" x="0" y="0" width="287" height="286">
<path d="M286.5 0H0.5V286H286.5V0Z" fill="white"/>
</mask>
<g mask="url(#mask0_13_1507)">
<path d="M18.4375 64.9846L17.0132 68.9515" stroke="#B4C4D1" stroke-width="2" stroke-miterlimit="10"/>
<path d="M14.3078 76.4793L5.17871 101.888" stroke="#B4C4D1" stroke-width="2" stroke-miterlimit="10" stroke-dasharray="25.64 27.97 27.97 25.64"/>
<path d="M3.93763 105.336L-57.9385 277.531" stroke="#B4C4D1" stroke-width="2" stroke-miterlimit="10" stroke-dasharray="27.97 27.97 25.64 27.97 27.97 25.64"/>
<path d="M15.7092 40.2968L14.2563 44.2579" stroke="#B4C4D1" stroke-width="2" stroke-miterlimit="10"/>
<path d="M11.3448 52.2085L1.50928 79.0438" stroke="#B4C4D1" stroke-width="2" stroke-miterlimit="10" stroke-dasharray="27.14 29.61 29.61 27.14"/>
<path d="M0.173717 82.6875L-66.4814 264.566" stroke="#B4C4D1" stroke-width="2" stroke-miterlimit="10" stroke-dasharray="29.61 29.61 27.14 29.61 29.61 27.14"/>
<path d="M12.9777 15.6127L11.522 19.5709" stroke="#B4C4D1" stroke-width="2" stroke-miterlimit="10"/>
<path d="M8.40461 28.0504L-2.12305 56.6732" stroke="#B4C4D1" stroke-width="2" stroke-miterlimit="10" stroke-dasharray="28.96 31.6 31.6 28.96"/>
<path d="M5.89072 2.92816L-3.96484 30.0609" stroke="#B4C4D1" stroke-width="2" stroke-miterlimit="10" stroke-dasharray="27.41 29.9 29.9 27.41"/>
<path d="M138.964 161.109C138.889 161.275 138.826 161.441 138.755 161.615C133.321 174.82 129.543 190.639 128.662 209.56C113.595 172.655 88.5875 154.789 66.3281 146.209C66.7257 133.876 68.4417 112.429 75.4487 99.2531C75.4487 99.2531 87.3034 102.024 102.224 113.716C113.996 122.937 127.689 137.729 138.964 161.109Z" fill="#8FC6EE"/>
<path d="M141.186 160.91L140.68 160.795C140.751 160.618 140.814 160.449 140.886 160.281C140.986 160.487 141.086 160.704 141.186 160.91Z" fill="#8FC6EE"/>
<path d="M141.186 160.91L140.68 160.795C140.751 160.618 140.814 160.449 140.886 160.281C140.986 160.487 141.086 160.704 141.186 160.91Z" fill="#8FC6EE"/>
<path d="M131.442 245.625C131.299 245.625 131.156 245.625 131.01 245.625C74.7912 245.625 28.2218 203.011 19.8763 147.364C19.3043 142.614 19.23 139.779 19.23 139.779C19.23 139.779 39.5102 137.723 63.0366 146.978C83.8946 155.189 107.304 172.283 121.412 207.61V207.636C121.498 207.845 121.584 208.056 121.658 208.276C125.877 218.961 129.231 231.308 131.425 245.556C131.434 245.571 131.442 245.599 131.442 245.625Z" fill="#8FC6EE"/>
<path d="M262.307 141.482C256.933 204.527 205.796 254.023 143.434 254.274C143.471 251.414 144.366 219.051 163.897 189.713C172.633 176.475 184.364 165.482 198.14 157.623C198.532 157.4 198.912 157.186 199.31 156.969C199.79 156.683 200.279 156.437 200.769 156.173C200.894 156.099 201.032 156.033 201.169 155.959C201.647 155.707 202.127 155.453 202.616 155.21C202.871 155.078 203.125 154.949 203.385 154.826C203.912 154.54 204.446 154.292 204.981 154.04C205.516 153.788 205.988 153.562 206.494 153.328C206.557 153.302 206.611 153.273 206.674 153.245C207.055 153.067 207.435 152.899 207.818 152.73C208.296 152.507 208.777 152.298 209.266 152.095C210.696 151.477 212.157 150.885 213.653 150.325L214.168 150.127C214.803 149.884 215.435 149.653 216.078 149.427C229.042 144.831 244.315 141.931 262.307 141.482Z" fill="#8FC6EE"/>
<path d="M177.439 112.238C164.704 121.885 150.352 137.092 140.886 160.286C129.635 136.442 115.967 121.359 104.215 111.952C111.156 99.0106 126.88 72.7244 141.186 60.4264C141.186 60.4207 162.828 81.8135 177.439 112.238Z" fill="#8FC6EE"/>
<path d="M214.822 146.97C214.19 147.19 213.57 147.419 212.946 147.656L212.44 147.851C210.973 148.4 209.534 148.98 208.15 149.584C207.669 149.787 207.2 149.99 206.72 150.21C206.34 150.376 205.965 150.539 205.593 150.713L205.413 150.796C204.915 151.025 204.418 151.257 203.931 151.494C203.445 151.732 202.882 152 202.367 152.266C202.11 152.384 201.861 152.512 201.612 152.641C201.131 152.881 200.66 153.127 200.182 153.376C200.048 153.45 199.913 153.513 199.79 153.588C199.31 153.845 198.829 154.103 198.36 154.368C197.968 154.577 197.594 154.789 197.216 155.009C183.702 162.716 172.195 173.5 163.628 186.486C144.466 215.264 143.591 247.004 143.557 249.815L143.511 249.732C141.223 234.835 137.708 221.927 133.301 210.756L133.647 209.612L133.043 210.081C133.043 210.081 133.043 210.081 133.043 210.061C133.901 191.134 137.619 175.309 142.925 162.099L143.422 162.211C143.325 162.008 143.228 161.796 143.136 161.596C152.406 138.853 166.483 123.938 178.964 114.474C193.687 103.32 206.245 99.7225 206.245 99.7225C212.972 108.002 214.502 133.327 214.822 146.97Z" fill="#8FC6EE"/>
<path d="M130.018 212.856V212.824C130.018 212.824 130.018 212.847 130.018 212.856Z" stroke="#B4C4D1" stroke-width="2" stroke-miterlimit="10"/>
<path d="M140.883 160.57C140.806 160.747 140.74 160.924 140.663 161.113C134.943 175.359 130.939 192.424 130.006 212.836C114.099 173.031 87.7068 153.748 64.1919 144.493C64.6123 131.189 66.4256 108.054 73.8215 93.8372C73.8215 93.8372 86.3369 96.8259 102.093 109.438C114.519 119.388 128.982 135.344 140.883 160.57Z" stroke="#B4C4D1" stroke-width="2" stroke-miterlimit="10"/>
<path d="M141.212 161.233L140.674 161.112C140.751 160.924 140.817 160.746 140.894 160.569C140.988 160.786 141.094 161.018 141.212 161.233Z" stroke="#B4C4D1" stroke-width="2" stroke-miterlimit="10"/>
<path d="M130.018 212.856V212.824C130.018 212.824 130.018 212.847 130.018 212.856Z" stroke="#B4C4D1" stroke-width="2" stroke-miterlimit="10"/>
<path d="M141.212 161.233L140.674 161.112C140.751 160.924 140.817 160.746 140.894 160.569C140.988 160.786 141.094 161.018 141.212 161.233Z" stroke="#B4C4D1" stroke-width="2" stroke-miterlimit="10"/>
<path opacity="0.9" d="M43.9287 208.68C42.8906 207.413 41.8695 206.106 40.8886 204.799C27.6704 187.214 18.9632 166.657 15.5289 144.928C14.6852 139.602 14.7996 136.376 14.7996 136.376C14.7996 136.376 37.6568 134.06 64.1861 144.493C87.6982 153.748 114.09 173.024 129.998 212.847V212.876C130.098 213.113 130.198 213.35 130.284 213.596C135.045 225.645 138.826 239.562 141.303 255.638C141.303 255.667 141.303 255.698 141.303 255.727C141.134 255.727 140.977 255.727 140.808 255.727C107.993 255.675 78.0771 242.608 55.5375 221.238C53.1808 219.01 50.8928 216.682 48.7049 214.277" stroke="#B4C4D1" stroke-width="2" stroke-miterlimit="10"/>
<path d="M130.018 212.856V212.824C130.018 212.824 130.018 212.847 130.018 212.856Z" stroke="#B4C4D1" stroke-width="2" stroke-miterlimit="10"/>
<path opacity="0.9" d="M267.098 136.385C261.415 203.075 207.324 255.433 141.352 255.701C141.392 252.67 142.339 218.439 162.999 187.405C172.239 173.4 184.65 161.771 199.224 153.459C199.636 153.222 200.039 152.996 200.46 152.767C200.969 152.481 201.486 152.195 202.001 151.926C202.136 151.846 202.287 151.778 202.425 151.698C202.934 151.432 203.44 151.163 203.957 150.905C204.226 150.768 204.495 150.619 204.773 150.502C205.327 150.216 205.894 149.93 206.46 149.67C207.026 149.41 207.524 149.164 208.059 148.918L208.25 148.829C208.654 148.64 209.057 148.463 209.469 148.283C209.975 148.045 210.484 147.828 211.002 147.611C212.506 146.956 214.059 146.332 215.641 145.74L216.187 145.531C216.856 145.274 217.529 145.026 218.206 144.788C231.911 139.929 248.067 136.86 267.098 136.385Z" stroke="#B4C4D1" stroke-width="2" stroke-miterlimit="10"/>
<path d="M179.55 109.744C166.077 119.951 150.899 136.039 140.883 160.569C128.982 135.344 114.519 119.385 102.093 109.438C109.432 95.7471 126.068 67.9393 141.2 54.932C141.212 54.932 164.092 77.5632 179.55 109.744Z" stroke="#B4C4D1" stroke-width="2" stroke-miterlimit="10"/>
<path d="M52.6748 182.602C52.6785 182.582 52.6785 182.562 52.6748 182.542C52.6748 182.522 52.6748 182.505 52.6748 182.465C52.6702 182.433 52.6702 182.4 52.6748 182.367C52.6817 182.437 52.694 182.506 52.712 182.573C52.7083 182.58 52.7028 182.587 52.6966 182.592C52.69 182.597 52.6828 182.6 52.6748 182.602Z" fill="#FCFEFF"/>
<path d="M52.7833 201.61C52.3289 203.073 51.7491 204.494 51.0502 205.857C50.8528 206.243 50.6555 206.618 50.4381 207.001C49.6968 208.396 48.785 209.693 47.724 210.862C47.5352 210.802 47.3493 210.725 47.1806 210.654C47.1405 210.654 47.1119 210.625 47.0805 210.616C43.6485 209.121 41.0745 206.326 40.3109 203.18C39.6273 200.409 40.2394 197.409 38.9238 194.803C37.3107 191.597 32.9349 189.587 32.3915 185.966C31.8967 182.58 34.9455 179.471 34.4507 176.153C33.8787 172.404 29.2713 170.176 28.4218 166.512C27.8756 164.224 28.3618 161.613 28.1644 159.265C27.9371 156.643 27.4933 154.044 26.8374 151.494C27.1549 151.474 27.4695 151.466 27.7869 151.457C34.2705 151.346 40.6569 154.989 42.7562 160.109C44.4464 164.247 43.5856 169.026 45.8335 172.907C45.9679 173.159 46.1198 173.401 46.2883 173.631C46.5831 174.038 46.9012 174.427 47.2406 174.798L47.9528 175.541C48.07 175.659 48.1987 175.767 48.3189 175.896C48.439 176.025 48.5648 176.136 48.6849 176.265C49.8032 177.332 50.9415 178.413 51.6851 179.697C51.7514 179.808 51.8106 179.924 51.8624 180.043C51.9313 180.16 51.9905 180.283 52.0397 180.409C52.1035 180.538 52.1598 180.671 52.2085 180.807C52.2685 180.955 52.3171 181.113 52.3658 181.261C52.4373 181.499 52.5059 181.728 52.5545 181.965C52.5545 182.025 52.5545 182.074 52.5745 182.122C52.5946 182.171 52.5745 182.162 52.5745 182.182C52.5788 182.202 52.5788 182.223 52.5745 182.242C52.5745 182.282 52.5745 182.311 52.5946 182.34V182.36C52.596 182.397 52.6029 182.433 52.6146 182.468C52.6146 182.508 52.6146 182.525 52.6146 182.546C52.6183 182.566 52.6183 182.586 52.6146 182.606V182.626L51.851 193.674C52.3372 196.342 53.5555 199.008 52.7833 201.61Z" fill="#FCFEFF"/>
<path d="M58.5346 174.791C59.0294 172.395 59.0695 169.881 60.1963 167.593C62.2955 163.377 68.4331 160.317 74.8595 160.12H74.9768C75.5488 160.12 76.1551 160.12 76.75 160.151C76.0853 162.344 75.6306 164.594 75.3915 166.872C75.1741 168.9 75.6775 171.162 75.1255 173.118C74.2246 176.284 69.4227 178.206 68.8335 181.444C68.3187 184.304 71.4962 186.998 70.9728 189.918C70.4008 193.044 65.8534 194.78 64.1717 197.549C62.8161 199.796 63.4481 202.379 62.7417 204.767C61.9209 207.487 59.2296 209.915 55.6546 211.191C55.4287 211.271 55.2199 211.348 54.9911 211.417C54.871 211.448 54.7337 211.497 54.6136 211.528C54.5735 211.497 54.5364 211.457 54.4849 211.417C53.3409 210.436 52.0482 208.783 50.9785 207.012L51.0586 205.885C51.7576 204.522 52.3373 203.101 52.7918 201.638C53.564 199.036 52.3456 196.37 51.8994 193.699L52.6631 182.651L52.9004 182.453C52.9868 182.389 53.0689 182.32 53.1464 182.245C54.3247 181.295 55.5917 180.386 56.504 179.305C57.6309 177.978 58.1571 176.525 58.506 175.015" fill="#FCFEFF"/>
<path d="M58.5063 174.952C58.5063 174.9 58.5235 174.852 58.5349 174.792L58.5063 174.952Z" fill="#FCFEFF"/>
<path d="M58.5348 174.783C58.5348 174.843 58.5148 174.891 58.5062 174.943C58.1687 176.467 57.6482 177.92 56.5042 179.233C55.5919 180.314 54.3249 181.235 53.1466 182.173C53.0699 182.249 52.9878 182.318 52.9006 182.382L52.6632 182.59C52.6681 182.578 52.6681 182.563 52.6632 182.55C52.6632 182.51 52.6432 182.482 52.6346 182.453C52.6301 182.421 52.6301 182.388 52.6346 182.356V182.336C52.6346 182.307 52.6346 182.279 52.6146 182.239C52.6189 182.219 52.6189 182.199 52.6146 182.179C52.6189 182.169 52.6209 182.159 52.6209 182.149C52.6209 182.138 52.6189 182.128 52.6146 182.119C52.6072 182.066 52.5966 182.013 52.5832 181.961C52.5345 181.724 52.4659 181.495 52.3944 181.258C52.3458 181.109 52.2972 180.952 52.2371 180.803C52.1885 180.667 52.1321 180.535 52.0684 180.405C52.0252 180.276 51.9657 180.153 51.891 180.039C51.8393 179.92 51.7801 179.805 51.7137 179.693C50.9701 178.418 49.8318 177.337 48.7136 176.261C48.5935 176.133 48.4648 176.004 48.3475 175.892C48.2302 175.781 48.0987 175.655 47.9814 175.538L47.2693 174.794C46.9298 174.424 46.6118 174.034 46.3169 173.627C46.3169 173.627 47.0119 162.187 52.8606 158.729C58.3575 155.438 58.5348 172.852 58.5348 174.783Z" fill="#FCFEFF"/>
<path d="M58.5063 174.952C58.5063 174.9 58.5235 174.852 58.5349 174.792L58.5063 174.952Z" fill="#FCFEFF"/>
<path d="M52.6631 182.563V182.614C52.6668 182.594 52.6668 182.574 52.6631 182.554C52.6631 182.534 52.6631 182.517 52.6631 182.477C52.6585 182.445 52.6585 182.412 52.6631 182.38C52.6588 182.441 52.6588 182.502 52.6631 182.563Z" fill="#FCFEFF"/>
<path d="M72.4658 163.784C61.921 175.133 56.9618 199.057 55.0341 211.409C54.8768 212.45 54.7338 213.411 54.6108 214.269" fill="#FCFEFF"/>
<path d="M73.4297 221.218L68.5677 249.841C68.4522 250.624 68.0632 251.341 67.4695 251.864C66.8758 252.388 66.1159 252.684 65.3245 252.701H39.9963C39.1964 252.684 38.4288 252.381 37.8328 251.846C37.2367 251.313 36.8518 250.583 36.7474 249.789L32.2715 221.212L73.4297 221.218Z" fill="#FCFEFF"/>
<path d="M78.0486 218.024C78.0043 218.872 77.6413 219.672 77.0327 220.264C76.4241 220.856 75.6144 221.197 74.7653 221.218H31.0302C30.1893 221.198 29.3865 220.864 28.7796 220.282C28.1725 219.699 27.8052 218.911 27.7498 218.072C27.5639 216.03 29.0854 214.265 31.0302 214.265H74.7653C76.6872 214.268 78.203 216.002 78.0486 218.024Z" fill="#FCFEFF"/>
<path d="M52.6945 182.622C52.694 182.558 52.6834 182.494 52.6631 182.433L52.6945 182.622Z" fill="#FCFEFF"/>
<path d="M31.0215 155.696C41.143 168.852 45.8935 196.56 47.7668 210.868C47.9269 212.109 48.0699 213.245 48.1815 214.263" fill="#FCFEFF"/>
<path d="M53.5843 169.664C52.3173 173.565 52.2573 177.506 52.406 180C52.448 180.806 52.5341 181.609 52.6634 182.405" fill="#FCFEFF"/>
<path d="M52.6748 182.602C52.6785 182.582 52.6785 182.562 52.6748 182.542C52.6748 182.522 52.6748 182.505 52.6748 182.465C52.6702 182.433 52.6702 182.4 52.6748 182.367C52.6817 182.437 52.694 182.506 52.712 182.573C52.7083 182.58 52.7028 182.587 52.6966 182.592C52.69 182.597 52.6828 182.6 52.6748 182.602Z" stroke="#B4C4D1" stroke-width="2" stroke-miterlimit="10"/>
<path d="M52.7833 201.61C52.3289 203.073 51.7491 204.494 51.0502 205.857C50.8528 206.243 50.6555 206.618 50.4381 207.001C49.6968 208.396 48.785 209.693 47.724 210.862C47.5352 210.802 47.3493 210.725 47.1806 210.654C47.1405 210.654 47.1119 210.625 47.0805 210.616C43.6485 209.121 41.0745 206.326 40.3109 203.18C39.6273 200.409 40.2394 197.409 38.9238 194.803C37.3107 191.597 32.9349 189.587 32.3915 185.966C31.8967 182.58 34.9455 179.471 34.4507 176.153C33.8787 172.404 29.2713 170.176 28.4218 166.512C27.8756 164.224 28.3618 161.613 28.1644 159.265C27.9371 156.643 27.4933 154.044 26.8374 151.494C27.1549 151.474 27.4695 151.466 27.7869 151.457C34.2705 151.346 40.6569 154.989 42.7562 160.109C44.4464 164.247 43.5856 169.026 45.8335 172.907C45.9679 173.159 46.1198 173.401 46.2883 173.631C46.5831 174.038 46.9012 174.427 47.2406 174.798L47.9528 175.541C48.07 175.659 48.1987 175.767 48.3189 175.896C48.439 176.025 48.5648 176.136 48.6849 176.265C49.8032 177.332 50.9415 178.413 51.6851 179.697C51.7514 179.808 51.8106 179.924 51.8624 180.043C51.9313 180.16 51.9905 180.283 52.0397 180.409C52.1035 180.538 52.1598 180.671 52.2085 180.807C52.2685 180.955 52.3171 181.113 52.3658 181.261C52.4373 181.499 52.5059 181.728 52.5545 181.965C52.5545 182.025 52.5545 182.074 52.5745 182.122C52.5946 182.171 52.5745 182.162 52.5745 182.182C52.5788 182.202 52.5788 182.223 52.5745 182.242C52.5745 182.282 52.5745 182.311 52.5946 182.34V182.36C52.596 182.397 52.6029 182.433 52.6146 182.468C52.6146 182.508 52.6146 182.525 52.6146 182.546C52.6183 182.566 52.6183 182.586 52.6146 182.606V182.626L51.851 193.674C52.3372 196.342 53.5555 199.008 52.7833 201.61Z" stroke="#B4C4D1" stroke-width="2" stroke-miterlimit="10"/>
<path d="M58.5346 174.791C59.0294 172.395 59.0695 169.881 60.1963 167.593C62.2955 163.377 68.4331 160.317 74.8595 160.12H74.9768C75.5488 160.12 76.1551 160.12 76.75 160.151C76.0853 162.344 75.6306 164.594 75.3915 166.872C75.1741 168.9 75.6775 171.162 75.1255 173.118C74.2246 176.284 69.4227 178.206 68.8335 181.444C68.3187 184.304 71.4962 186.998 70.9728 189.918C70.4008 193.044 65.8534 194.78 64.1717 197.549C62.8161 199.796 63.4481 202.379 62.7417 204.767C61.9209 207.487 59.2296 209.915 55.6546 211.191C55.4287 211.271 55.2199 211.348 54.9911 211.417C54.871 211.448 54.7337 211.497 54.6136 211.528C54.5735 211.497 54.5364 211.457 54.4849 211.417C53.3409 210.436 52.0482 208.783 50.9785 207.012L51.0586 205.885C51.7576 204.522 52.3373 203.101 52.7918 201.638C53.564 199.036 52.3456 196.37 51.8994 193.699L52.6631 182.651L52.9004 182.453C52.9868 182.389 53.0689 182.32 53.1464 182.245C54.3247 181.295 55.5917 180.386 56.504 179.305C57.6309 177.978 58.1571 176.525 58.506 175.015" stroke="#B4C4D1" stroke-width="2" stroke-miterlimit="10"/>
<path d="M58.5063 174.952C58.5063 174.9 58.5235 174.852 58.5349 174.792" stroke="#B4C4D1" stroke-width="2" stroke-miterlimit="10"/>
<path d="M58.5348 174.783C58.5348 174.843 58.5148 174.891 58.5062 174.943C58.1687 176.467 57.6482 177.92 56.5042 179.233C55.5919 180.314 54.3249 181.235 53.1466 182.173C53.0699 182.249 52.9878 182.318 52.9006 182.382L52.6632 182.59C52.6681 182.578 52.6681 182.563 52.6632 182.55C52.6632 182.51 52.6432 182.482 52.6346 182.453C52.6301 182.421 52.6301 182.388 52.6346 182.356V182.336C52.6346 182.307 52.6346 182.279 52.6146 182.239C52.6189 182.219 52.6189 182.199 52.6146 182.179C52.6189 182.169 52.6209 182.159 52.6209 182.149C52.6209 182.138 52.6189 182.128 52.6146 182.119C52.6072 182.066 52.5966 182.013 52.5832 181.961C52.5345 181.724 52.4659 181.495 52.3944 181.258C52.3458 181.109 52.2972 180.952 52.2371 180.803C52.1885 180.667 52.1321 180.535 52.0684 180.405C52.0252 180.276 51.9657 180.153 51.891 180.039C51.8393 179.92 51.7801 179.805 51.7137 179.693C50.9701 178.418 49.8318 177.337 48.7136 176.261C48.5935 176.133 48.4648 176.004 48.3475 175.892C48.2302 175.781 48.0987 175.655 47.9814 175.538L47.2693 174.794C46.9298 174.424 46.6118 174.034 46.3169 173.627C46.3169 173.627 47.0119 162.187 52.8606 158.729C58.3575 155.438 58.5348 172.852 58.5348 174.783Z" stroke="#B4C4D1" stroke-width="2" stroke-miterlimit="10"/>
<path d="M58.5063 174.952C58.5063 174.9 58.5235 174.852 58.5349 174.792" stroke="#B4C4D1" stroke-width="2" stroke-miterlimit="10"/>
<path d="M52.6631 182.563V182.614C52.6668 182.594 52.6668 182.574 52.6631 182.554C52.6631 182.534 52.6631 182.517 52.6631 182.477C52.6585 182.445 52.6585 182.412 52.6631 182.38C52.6588 182.441 52.6588 182.502 52.6631 182.563Z" stroke="#B4C4D1" stroke-width="2" stroke-miterlimit="10"/>
<path d="M72.4658 163.784C61.921 175.133 56.9618 199.057 55.0341 211.409C54.8768 212.45 54.7338 213.411 54.6108 214.269" stroke="#B4C4D1" stroke-width="2" stroke-miterlimit="10"/>
<path d="M73.4297 221.218L68.5677 249.841C68.4522 250.624 68.0632 251.341 67.4695 251.864C66.8758 252.388 66.1159 252.684 65.3245 252.701H39.9963C39.1964 252.684 38.4288 252.381 37.8328 251.846C37.2367 251.313 36.8518 250.583 36.7474 249.789L32.2715 221.212L73.4297 221.218Z" stroke="#B4C4D1" stroke-width="2" stroke-miterlimit="10"/>
<path d="M78.0486 218.024C78.0043 218.872 77.6413 219.672 77.0327 220.264C76.4241 220.856 75.6144 221.197 74.7653 221.218H31.0302C30.1893 221.198 29.3865 220.864 28.7796 220.282C28.1725 219.699 27.8052 218.911 27.7498 218.072C27.5639 216.03 29.0854 214.265 31.0302 214.265H74.7653C76.6872 214.268 78.203 216.002 78.0486 218.024Z" stroke="#B4C4D1" stroke-width="2" stroke-miterlimit="10"/>
<path d="M52.6945 182.622C52.694 182.558 52.6834 182.494 52.6631 182.433L52.6945 182.622Z" stroke="#B4C4D1" stroke-width="2" stroke-miterlimit="10"/>
<path d="M31.0215 155.696C41.143 168.852 45.8935 196.56 47.7668 210.868C47.9269 212.109 48.0699 213.245 48.1815 214.263" stroke="#B4C4D1" stroke-width="2" stroke-miterlimit="10"/>
<path d="M53.5843 169.664C52.3173 173.565 52.2573 177.506 52.406 180C52.448 180.806 52.5341 181.609 52.6634 182.405" stroke="#B4C4D1" stroke-width="2" stroke-miterlimit="10"/>
<path d="M218.206 144.787C217.527 145.025 216.854 145.273 216.187 145.531L215.64 145.74C214.059 146.332 212.494 146.955 211.001 147.61C210.484 147.827 209.975 148.045 209.468 148.282C209.057 148.462 208.653 148.64 208.25 148.828L208.058 148.917C207.524 149.163 206.986 149.412 206.46 149.669C205.933 149.927 205.316 150.213 204.772 150.501C204.486 150.63 204.226 150.767 203.957 150.905C203.44 151.162 202.933 151.431 202.424 151.697C202.281 151.777 202.138 151.846 202.001 151.926C201.486 152.212 200.968 152.481 200.459 152.767C200.039 152.995 199.636 153.221 199.224 153.459C184.65 161.77 172.239 173.4 162.999 187.404C142.338 218.438 141.392 252.669 141.352 255.701L141.306 255.609C138.832 239.545 135.048 225.625 130.295 213.567L130.667 212.34L130.018 212.844C130.018 212.844 130.018 212.844 130.018 212.824C130.947 192.412 134.943 175.358 140.674 161.101L141.212 161.221C141.106 161.001 141 160.775 140.894 160.557C150.904 136.027 166.088 119.945 179.561 109.732C195.44 97.7202 208.982 93.8249 208.982 93.8249C216.212 102.765 217.86 130.078 218.206 144.787Z" stroke="#B4C4D1" stroke-width="2" stroke-miterlimit="10"/>
<path d="M219.17 250.382C217.062 249.959 214.991 249.455 212.972 248.863C204.678 246.441 195.031 242.299 191.734 233.597C190.907 231.349 190.646 228.931 190.974 226.558C191.303 224.186 192.211 221.93 193.618 219.991C195.113 217.924 197.211 216.371 199.624 215.544C204.873 213.848 210.678 216.491 214.571 220.406C218.463 224.322 220.969 229.349 224.009 233.945C221.255 227.771 218.455 221.421 218.074 214.669C217.788 209.407 219.218 203.704 222.839 199.748C226.177 196.111 233.993 193.259 238.586 195.933C241.621 197.698 242.828 201.45 243.351 204.919C244.781 214.412 242.945 224.058 241.117 233.482C242.344 228.443 243.663 223.358 246.159 218.813C248.656 214.269 252.492 210.25 257.396 208.569C260.828 207.39 264.912 207.519 267.793 209.736C270.478 211.806 271.676 215.301 272.045 218.67C272.663 224.319 271.333 230.05 269.045 235.258C260.508 254.66 236.842 253.925 219.17 250.382Z" fill="#FCFEFF"/>
<path d="M238.426 240.775C238.426 240.775 251.582 244.43 256.226 226.143L238.426 240.775Z" fill="#FCFEFF"/>
<path d="M232.572 209.561C228.914 217.855 232.572 242.737 232.572 242.737V209.561Z" fill="#FCFEFF"/>
<path d="M220.38 240.211C219.83 240.117 214.554 239.379 210.055 237.311C206.571 235.71 203.551 233.307 203.551 229.801" fill="#FCFEFF"/>
<path d="M211.113 229.801C211.113 229.801 205.965 235.807 210.055 237.311L211.113 229.801Z" fill="#FCFEFF"/>
<path d="M207.698 242.768C208.43 241.75 212.237 243.792 214.722 238.99L207.698 242.768Z" fill="#FCFEFF"/>
<path d="M230.947 220.534C229.646 219.559 226.231 220.534 225.745 212.729L230.947 220.534Z" fill="#FCFEFF"/>
<path d="M231.513 227.85C231.513 227.85 237.205 225.797 237.205 221.338L231.513 227.85Z" fill="#FCFEFF"/>
<path d="M243.749 240.881C243.749 240.881 246.717 233.216 247.936 229.801L243.749 240.881Z" fill="#FCFEFF"/>
<path d="M252.966 233.556C252.966 233.556 256.227 236.13 260.116 231.997L252.966 233.556Z" fill="#FCFEFF"/>
<path d="M252.966 229.801C252.966 229.801 250.861 228.889 251.822 223.615L252.966 229.801Z" fill="#FCFEFF"/>
<path d="M219.17 250.382C217.039 250.096 214.991 249.455 212.972 248.863C204.678 246.441 195.031 242.299 191.734 233.597C190.907 231.349 190.646 228.931 190.974 226.558C191.303 224.186 192.211 221.93 193.618 219.991C195.113 217.924 197.211 216.371 199.624 215.544C204.873 213.848 210.678 216.491 214.571 220.406C218.463 224.322 220.969 229.349 224.009 233.945C221.255 227.771 218.455 221.421 218.074 214.669C217.788 209.407 219.218 203.704 222.839 199.748C226.177 196.111 233.993 193.259 238.586 195.933C241.621 197.698 242.828 201.45 243.351 204.919C244.781 214.412 242.945 224.058 241.117 233.482C242.344 228.443 243.663 223.358 246.159 218.813C248.656 214.269 252.492 210.25 257.396 208.569C260.828 207.39 264.912 207.519 267.793 209.736C270.478 211.806 271.676 215.301 272.045 218.67C272.663 224.319 271.416 230.087 269.045 235.258C260.371 254.148 236.518 252.721 219.17 250.382Z" stroke="#B4C4D1" stroke-width="2" stroke-miterlimit="10"/>
<path d="M238.426 240.775C238.426 240.775 251.582 244.43 256.226 226.143" stroke="#B4C4D1" stroke-width="2" stroke-miterlimit="10"/>
<path d="M232.572 209.561C228.914 217.855 232.572 242.737 232.572 242.737" stroke="#B4C4D1" stroke-width="2" stroke-miterlimit="10"/>
<path d="M220.38 240.211C219.83 240.117 214.554 239.379 210.055 237.311C206.571 235.71 203.551 233.307 203.551 229.801" stroke="#B4C4D1" stroke-width="2" stroke-miterlimit="10"/>
<path d="M211.113 229.801C211.113 229.801 205.965 235.807 210.055 237.311" stroke="#B4C4D1" stroke-width="2" stroke-miterlimit="10"/>
<path d="M207.698 242.768C208.43 241.75 212.237 243.792 214.722 238.99" stroke="#B4C4D1" stroke-width="2" stroke-miterlimit="10"/>
<path d="M230.947 220.534C229.646 219.559 226.231 220.534 225.745 212.729" stroke="#B4C4D1" stroke-width="2" stroke-miterlimit="10"/>
<path d="M231.513 227.85C231.513 227.85 237.205 225.797 237.205 221.338" stroke="#B4C4D1" stroke-width="2" stroke-miterlimit="10"/>
<path d="M243.749 240.881C243.749 240.881 246.717 233.216 247.936 229.801" stroke="#B4C4D1" stroke-width="2" stroke-miterlimit="10"/>
<path d="M252.966 233.556C252.966 233.556 256.227 236.13 260.116 231.997" stroke="#B4C4D1" stroke-width="2" stroke-miterlimit="10"/>
<path d="M252.966 229.801C252.966 229.801 250.861 228.889 251.822 223.615" stroke="#B4C4D1" stroke-width="2" stroke-miterlimit="10"/>
<path d="M226.795 215.05C227.523 212.634 227.671 210.08 227.229 207.597C226.992 206.167 226.32 202.271 224.241 202.875C223.637 203.043 223.28 203.558 223.054 204.142C223.32 202.855 221.458 202.042 220.548 201.925C218.243 201.599 216.559 203.221 215.46 205.2C213.055 209.547 206.66 211.646 202.204 211.655C195.938 211.655 192.194 206.793 191.119 200.501C188.259 183.861 187.495 143.779 157.52 132.79C155.873 132.181 154.19 131.675 152.48 131.275V131.323C152.46 131.323 152.44 131.323 152.42 131.255C152.407 131.216 152.398 131.177 152.392 131.137C153.339 130.997 154.278 130.801 155.203 130.551C156.401 130.245 157.637 129.887 158.509 129.121C159.559 128.212 159.913 126.876 160.002 125.597C160.002 125.4 160.022 125.191 160.022 124.994C160.032 124.833 160.032 124.672 160.022 124.511C160.022 124.282 160.022 124.053 160.022 123.816C160.022 123.638 160.022 123.45 160.022 123.272L161.481 118.616C162.016 117.575 162.548 116.531 162.782 115.422C162.88 114.975 162.923 114.518 162.911 114.06C162.911 113.963 162.911 113.863 162.911 113.754C162.802 111.824 161.861 109.913 160.546 108.32C160.305 106.208 159.891 104.119 159.307 102.074C157.465 95.3816 153.785 88.1058 146.597 86.0866C141.289 84.6023 135.103 84.6909 129.886 86.6815C129.882 86.6832 129.877 86.6843 129.872 86.6843C129.867 86.6843 129.862 86.6832 129.858 86.6815C129.518 86.7821 129.191 86.9183 128.88 87.0876C127.178 88.0085 126.592 90.1163 126.683 92.4329C126.683 92.5622 126.692 92.6912 126.712 92.819C126.712 92.9878 126.732 93.1651 126.76 93.3338C127.018 95.6018 127.87 97.9356 128.94 99.4428C128.891 99.56 128.84 99.6687 128.8 99.7888C128.348 100.827 127.762 101.802 127.058 102.689C125.485 104.691 123.357 106.152 121.821 108.154C120.285 110.156 119.387 112.765 119.793 115.27C120.188 117.695 121.712 119.815 122.059 122.228C122.385 124.436 121.773 126.962 123.12 128.735C123.949 129.813 125.325 130.308 126.643 130.683C127.215 130.843 127.787 130.969 128.359 131.1C128.288 131.306 128.268 131.317 128.228 131.326C126.586 131.712 124.97 132.198 123.388 132.782L123.151 132.87C93.4213 143.993 92.6406 183.899 89.7977 200.487C88.7309 206.779 84.9786 211.641 78.7124 211.641C74.2565 211.641 67.8615 209.533 65.4563 205.186C64.3466 203.206 62.6763 201.585 60.3683 201.911C59.4674 202.04 57.7057 202.792 57.8744 204.019C57.8704 204.064 57.8704 204.11 57.8744 204.156V204.205C57.8744 204.205 57.8744 204.236 57.8744 204.245V204.276C57.657 203.641 57.3024 203.078 56.656 202.889C54.5768 202.286 53.9047 206.175 53.6673 207.611C53.2249 210.095 53.3739 212.648 54.1021 215.064C55.063 218.261 57.0707 221.253 60.0509 222.549C62.5113 223.558 65.0819 224.274 67.7099 224.682C63.7517 228.535 61.1863 233.534 61.3064 239.929C61.3951 243.933 63.8118 246.73 67.5812 248.6C72.4118 251.014 79.4617 251.915 86.6288 251.984H86.6689C85.8529 252.138 85.0558 252.381 84.2922 252.707C83.4125 253.074 82.5845 253.555 81.8298 254.137C81.5609 254.347 81.3035 254.564 81.0576 254.789C80.9283 254.902 80.805 255.021 80.6886 255.147C80.4541 255.384 80.2253 255.633 80.0079 255.891C79.5864 256.398 79.204 256.938 78.8639 257.504C78.6952 257.79 78.5379 258.076 78.4006 258.362C78.2633 258.648 78.1318 258.968 78.0117 259.262C77.8266 259.715 77.6785 260.182 77.5684 260.658C77.4883 260.967 77.4196 261.273 77.3596 261.59C76.8448 264.639 77.5483 267.788 79.7048 270.053C80.0977 270.462 80.5256 270.836 80.9832 271.171C81.2206 271.34 81.4694 271.5 81.7239 271.658C82.2631 271.975 82.8296 272.243 83.4171 272.458C84.0623 272.699 84.7249 272.89 85.399 273.031C90.1409 273.989 93.9104 270.911 98.189 269.598C100.629 268.877 103.168 268.553 105.711 268.638C107.368 268.688 109.02 268.851 110.656 269.127C128.61 272.064 146.829 273.053 164.996 272.078C177.271 271.403 189.792 269.862 201.444 265.752C210.212 262.657 219.862 257.22 224.181 248.821C225.713 245.863 226.505 242.579 226.489 239.248C226.489 232.25 223.629 227.033 219.173 223.184C219.745 222.975 220.3 222.766 220.846 222.529C223.826 221.239 225.834 218.247 226.795 215.05Z" fill="#FCFEFF"/>
<path d="M105.702 268.648C103.158 268.561 100.616 268.884 98.1744 269.606C93.8987 270.919 90.1263 273.999 85.3816 273.038C73.0293 270.547 75.6061 254.079 86.6772 251.98H86.6943C87.7554 251.957 88.8165 251.948 89.8689 251.948H89.9376C95.0369 251.948 100.005 252.083 104.083 250.676C103.688 251.025 93.7585 259.839 105.702 268.648Z" fill="#8FC6EE"/>
<path d="M157.514 132.755C157.514 132.755 157.514 132.778 157.514 132.787C158.989 137.35 160.792 141.801 162.91 146.103L162.936 146.152" stroke="#080705" stroke-width="2" stroke-miterlimit="10"/>
<path d="M172.354 212.329C158.575 214.526 145.21 217.892 131.153 216.102C123.54 215.121 116.075 213.17 108.559 211.646C113.241 204.112 115.054 194.411 114.322 185.969C113.847 180.423 111.302 175.058 111.431 169.535C111.519 165.794 112.211 162.07 113.172 158.467C114.303 154.222 115.84 150.097 117.76 146.146C117.76 146.129 117.78 146.117 117.788 146.097C119.909 141.798 121.715 137.35 123.194 132.79C124.836 132.178 126.515 131.672 128.222 131.274L128.508 133.342C129.211 138.204 130.864 145.222 135.944 147.519C136.996 147.98 138.132 148.219 139.281 148.22C141.546 148.448 144.578 147.519 144.578 147.519C149.654 145.231 151.299 138.212 152.014 133.342L152.3 131.274C154.006 131.669 155.685 132.171 157.328 132.778C158.806 137.341 160.613 141.79 162.733 146.092C162.744 146.106 162.751 146.123 162.753 146.14C164.669 150.089 166.202 154.213 167.329 158.455C168.35 162.062 168.936 165.778 169.074 169.524C169.203 175.046 166.669 180.412 166.182 185.957C165.404 194.669 167.355 204.707 172.354 212.329Z" fill="#3A3427"/>
<path d="M219.164 223.177C223.62 227.027 226.48 232.243 226.488 239.253C226.501 242.582 225.709 245.864 224.177 248.82C219.864 257.211 210.215 262.64 201.432 265.743C189.777 269.852 177.262 271.391 164.981 272.069C146.819 273.048 128.605 272.061 110.655 269.126C109.015 268.851 107.358 268.691 105.696 268.646C103.153 268.56 100.612 268.883 98.1714 269.604C93.8957 270.916 90.1234 273.997 85.3787 273.036C73.0263 270.545 75.6032 254.077 86.6742 251.977" stroke="#080705" stroke-width="2" stroke-miterlimit="10"/>
<path d="M190.041 243.993C186.38 252.37 177.319 249.501 167.364 243.475C161.189 239.734 155.924 239.2 152.812 239.325C157.196 238.934 161.032 237.581 162.107 232.624C162.979 228.592 160.708 224.902 156.782 223.713C166.22 223.298 175.912 223.999 183.597 229.945C183.597 229.945 193.71 235.61 190.041 243.993Z" fill="#8FC6EE"/>
<path d="M135.655 126.698C135.537 127.589 135.219 128.441 134.725 129.192C133.933 130.282 132.635 130.894 131.31 131.082C130.49 130.968 129.678 130.796 128.882 130.568C127.558 130.19 126.191 129.695 125.359 128.617C124.003 126.835 124.627 124.31 124.301 122.105C123.943 119.697 122.419 117.569 122.033 115.155C121.618 112.65 122.519 110.047 124.052 108.036C125.379 106.32 127.132 104.988 128.588 103.395C128.588 103.601 128.568 103.821 128.556 104.038C128.03 104.647 127.633 105.356 127.39 106.123C127.147 106.89 127.063 107.699 127.144 108.5C127.224 109.301 127.467 110.077 127.857 110.78C128.248 111.484 128.777 112.101 129.414 112.592C129.969 114.958 131.385 120.094 134.92 123.143C135.222 123.561 135.453 124.027 135.6 124.522C135.773 125.235 135.791 125.977 135.655 126.698Z" fill="#8FC6EE"/>
<path d="M162.808 115.298C162.345 117.503 160.68 119.434 160.214 121.642C159.956 122.9 160.077 124.196 159.996 125.474C159.956 126.301 159.751 127.112 159.393 127.859C159.164 128.289 158.863 128.676 158.504 129.003C157.631 129.767 156.393 130.133 155.197 130.433C153.364 130.9 151.454 131.291 149.555 131.117C147.387 130.908 145.199 129.533 144.407 127.445C143.783 125.812 144.278 124.533 145.11 123.355V123.335C146.019 122.651 146.852 121.871 147.595 121.01C151.027 112.45 152.595 114.852 153.009 112.069C154.582 111 153.396 109.061 153.396 107.021C153.396 105.566 153.31 104.796 152.449 103.767L154.236 103.349C153.504 102.477 153.99 102.777 152.861 102.443L152.449 102.488C151.834 102.586 153.038 102.222 152.3 102.345C137.943 104.728 135.195 88.4086 134.708 85.8661C134.274 86.3294 132.663 86.052 132.317 86.5668C132.169 86.787 133.747 89.4611 133.616 89.687C133.579 89.5183 133.547 89.3724 133.527 89.2523C133.1 89.7085 132.71 90.1981 132.36 90.7166C131.203 92.3703 130.333 94.2073 129.786 96.1506C129.766 96.2078 129.755 96.2765 129.735 96.3365C129.531 97.3435 129.27 98.3385 128.954 99.3166C127.667 97.5063 126.666 94.4775 126.666 91.812C126.666 89.7042 127.289 87.808 128.871 86.95C128.916 86.9243 128.963 86.9014 129.011 86.8814C129.282 86.7464 129.563 86.6334 129.852 86.5439C129.852 86.5439 129.872 86.5439 129.884 86.5439C135.1 84.5419 141.295 84.4561 146.592 85.9404C153.787 87.9596 157.46 95.2469 159.313 101.936C159.893 103.982 160.307 106.071 160.551 108.183C162.264 110.248 163.323 112.813 162.808 115.298Z" fill="#8FC6EE"/>
<path d="M99.8188 228.142L114.505 226.972C125.718 226.082 136.933 225.191 148.15 224.298C150.956 224.081 153.87 223.835 156.779 223.709C166.217 223.295 175.909 223.995 183.594 229.941C183.594 229.941 193.707 235.607 190.037 243.989C186.368 252.372 177.316 249.498 167.361 243.472C161.186 239.731 155.921 239.196 152.809 239.322H152.777C152.44 239.339 152.117 239.362 151.836 239.393C151.16 239.444 150.49 239.557 149.834 239.731C138.412 243.329 120.725 248.328 104.106 250.668C99.4135 251.359 94.6862 251.787 89.9461 251.949H89.8774C88.7992 251.989 87.7382 251.997 86.6857 251.98H86.6485C79.4728 251.917 72.4257 251.014 67.5923 248.603C63.8228 246.724 61.409 243.935 61.3232 239.928C61.2059 233.525 63.7656 228.528 67.7353 224.67" stroke="#080705" stroke-width="2" stroke-miterlimit="10"/>
<path d="M219.124 208.743C221.037 207.859 223.282 204.993 223.022 203.838" stroke="#080705" stroke-width="2" stroke-miterlimit="10"/>
<path d="M205.579 220.755C208.465 221.392 207.141 215.057 210.209 214.54C210.209 214.54 211.451 214.348 211.7 215.398C211.871 216.116 211.639 216.994 211.499 217.686C211.371 218.324 211.271 219.116 210.999 219.688C211.252 219.048 211.466 218.392 211.639 217.726C211.826 217.027 211.96 216.314 212.04 215.595C212.214 214.451 212.34 213.218 212.769 212.163C212.999 211.508 213.475 210.969 214.096 210.659C215.452 210.087 216.316 211.517 216.433 212.758C216.451 212.896 216.457 213.036 216.45 213.176C216.45 213.364 216.433 213.542 216.419 213.719C216.287 215.89 216.055 218.61 214.84 220.311C216.055 218.595 216.304 215.967 216.416 213.788C216.473 212.621 216.461 211.414 216.89 210.356C217.051 209.93 217.306 209.546 217.634 209.232C217.954 208.927 218.376 208.754 218.818 208.745C219.157 208.776 219.482 208.893 219.762 209.085C220.043 209.278 220.269 209.539 220.42 209.844C220.735 210.478 220.905 211.174 220.917 211.883C221.103 214.989 220.377 218.083 218.08 220.151" stroke="#080705" stroke-width="2" stroke-miterlimit="10"/>
<path d="M162.917 146.1C164.85 150.064 166.393 154.207 167.524 158.47C168.491 162.073 169.18 165.791 169.269 169.532C169.397 175.058 166.858 180.423 166.374 185.971C165.156 200.034 170.996 217.572 185.388 222.828C191.059 224.902 197.171 225.671 203.191 225.528C208.911 225.394 215.552 224.816 220.846 222.531C223.826 221.238 225.834 218.241 226.8 215.049C227.524 212.632 227.673 210.079 227.238 207.593C226.992 206.163 226.326 202.271 224.241 202.874C223.548 203.069 223.185 203.715 222.971 204.404C222.542 205.834 222.765 207.339 222.716 208.809C222.662 210.868 222.362 214.889 220.474 216.265" stroke="#080705" stroke-width="2" stroke-miterlimit="10"/>
<path d="M128.436 131.274L128.722 133.342C129.431 138.204 131.079 145.219 136.158 147.516C137.207 147.981 138.342 148.222 139.49 148.222C141.761 148.451 144.787 147.516 144.787 147.516C149.863 145.228 151.511 138.212 152.223 133.342L152.509 131.274" stroke="#080705" stroke-width="2" stroke-miterlimit="10"/>
<path d="M123.405 132.755C123.405 132.755 123.405 132.778 123.405 132.787C121.931 137.351 120.126 141.801 118.006 146.103L117.983 146.152" stroke="#080705" stroke-width="2" stroke-miterlimit="10"/>
<path d="M57.9486 204.404L57.9028 204.256C57.8931 204.236 57.8873 204.215 57.8856 204.193C57.8856 204.193 57.8856 204.179 57.8856 204.17C57.5796 202.866 59.4415 202.048 60.3681 201.922C62.6561 201.593 64.3521 203.218 65.4532 205.2C67.8556 209.544 74.2534 211.643 78.7093 211.649C84.9784 211.649 88.7336 206.787 89.8032 200.495C92.6461 183.853 93.424 143.772 123.4 132.782C125.046 132.177 126.728 131.674 128.436 131.274L128.891 131.171" stroke="#080705" stroke-width="2" stroke-miterlimit="10"/>
<path d="M152.04 131.191C152.188 131.214 152.326 131.254 152.48 131.286C154.187 131.684 155.868 132.185 157.514 132.787C187.489 143.778 188.267 183.858 191.11 200.501C192.18 206.793 195.935 211.655 202.207 211.655C206.66 211.655 213.058 209.55 215.46 205.205C216.561 203.223 218.243 201.599 220.545 201.928C221.518 202.062 223.562 202.974 222.965 204.41" stroke="#080705" stroke-width="2" stroke-miterlimit="10"/>
<path d="M61.7924 208.743C59.8791 207.859 57.634 204.993 57.8942 203.838" stroke="#080705" stroke-width="2" stroke-miterlimit="10"/>
<path d="M75.3372 220.755C72.4486 221.392 73.7728 215.057 70.704 214.54C70.704 214.54 69.4628 214.348 69.2139 215.398C69.0452 216.116 69.274 216.994 69.417 217.686C69.5457 218.324 69.6458 219.116 69.9146 219.688C69.6618 219.047 69.4487 218.392 69.2769 217.726C69.0887 217.027 68.9548 216.315 68.8765 215.595C68.702 214.451 68.5733 213.218 68.1443 212.163C67.9161 211.508 67.441 210.968 66.8201 210.659C65.4645 210.087 64.6008 211.517 64.4806 212.758C64.4646 212.896 64.4598 213.036 64.4663 213.176C64.4663 213.364 64.4806 213.542 64.4978 213.719C64.6265 215.89 64.861 218.61 66.0737 220.311C64.861 218.595 64.6093 215.967 64.5007 213.788C64.4406 212.621 64.4549 211.414 64.023 210.356C63.864 209.93 63.6109 209.546 63.2823 209.232C62.9608 208.928 62.5376 208.755 62.0954 208.745C61.7571 208.776 61.4325 208.893 61.1525 209.085C60.8725 209.278 60.6468 209.539 60.4967 209.844C60.1795 210.477 60.0096 211.174 59.999 211.883C59.8131 214.989 60.5367 218.083 62.8333 220.151" stroke="#080705" stroke-width="2" stroke-miterlimit="10"/>
<path d="M118 146.1C116.066 150.064 114.524 154.206 113.396 158.47C112.426 162.073 111.74 165.791 111.651 169.532C111.522 175.058 114.062 180.423 114.542 185.971C115.764 200.034 109.921 217.572 95.5291 222.828C89.8577 224.902 83.7459 225.671 77.7285 225.528C72.0085 225.394 65.3676 224.816 60.0737 222.531C57.0907 221.238 55.0859 218.241 54.1163 215.049C53.4002 212.63 53.256 210.077 53.6959 207.593C53.9419 206.163 54.6082 202.271 56.6932 202.874C57.3824 203.069 57.7485 203.715 57.963 204.404C58.3892 205.834 58.1689 207.339 58.2147 208.809C58.2719 210.868 58.5722 214.889 60.4598 216.265" stroke="#080705" stroke-width="2" stroke-miterlimit="10"/>
<path d="M133.624 89.2689C133.165 89.7602 132.745 90.2862 132.366 90.8419C131.163 92.5467 130.272 94.4515 129.735 96.4675C129.531 97.4742 129.268 98.4684 128.948 99.4448C128.903 99.562 128.854 99.6736 128.808 99.7908C128.358 100.831 127.775 101.807 127.072 102.697C125.499 104.679 123.371 106.154 121.83 108.159C120.288 110.164 119.393 112.77 119.802 115.278C120.197 117.697 121.721 119.819 122.073 122.23C122.396 124.438 121.787 126.961 123.134 128.737C123.96 129.821 125.333 130.316 126.655 130.685C128.062 131.079 129.515 131.385 130.962 131.257C132.409 131.128 133.867 130.496 134.723 129.315C135.221 128.568 135.539 127.717 135.652 126.826C135.786 126.107 135.767 125.367 135.595 124.656C135.309 123.626 134.56 122.794 133.879 121.953C131.782 119.24 130.285 116.113 129.486 112.778" stroke="#080705" stroke-width="2" stroke-miterlimit="10"/>
<path d="M152.551 105.18C152.551 104.447 152.52 103.724 152.457 102.995" stroke="#080705" stroke-width="2" stroke-miterlimit="10"/>
<path d="M129.105 99.0901C128.787 100.765 128.604 102.462 128.556 104.167" stroke="#080705" stroke-width="2" stroke-miterlimit="10"/>
<path d="M154.691 102.617C154.385 102.671 152.757 102.94 152.457 102.989C136.295 105.563 135.583 93.9284 133.624 89.2781C133.624 89.2781 132.546 85.1311 128.888 87.0959C125.23 89.0607 126.7 96.5339 129.105 99.6799" stroke="#080705" stroke-width="2" stroke-miterlimit="10"/>
<path d="M130.741 93.7028V93.6942" stroke="#080705" stroke-width="2" stroke-miterlimit="10"/>
<path d="M157.062 104.727L160.557 108.317" stroke="#080705" stroke-width="2" stroke-miterlimit="10"/>
<path d="M133.89 121.948C133.93 121.996 133.962 122.042 134.007 122.097C134.047 122.156 134.092 122.211 134.142 122.262C134.221 122.373 134.308 122.478 134.402 122.577C134.411 122.592 134.421 122.605 134.434 122.617C135.132 123.41 135.98 124.057 136.929 124.521C137.878 124.985 138.91 125.256 139.965 125.32C142.539 125.523 144.16 124.502 145.113 123.481" stroke="#080705" stroke-width="2" stroke-miterlimit="10"/>
<path d="M148.01 114.906C151.284 114.906 153.939 112.251 153.939 108.977C153.939 105.703 151.284 103.048 148.01 103.048C144.735 103.048 142.081 105.703 142.081 108.977C142.081 112.251 144.735 114.906 148.01 114.906Z" stroke="#080705" stroke-width="2" stroke-miterlimit="10"/>
<path d="M133.035 113.971C136.31 113.971 138.964 111.316 138.964 108.042C138.964 104.768 136.31 102.113 133.035 102.113C129.761 102.113 127.106 104.768 127.106 108.042C127.106 111.316 129.761 113.971 133.035 113.971Z" stroke="#080705" stroke-width="2" stroke-miterlimit="10"/>
<path d="M131.748 106.592C131.748 106.592 134.165 105.688 136.038 106.621" stroke="#080705" stroke-width="2" stroke-miterlimit="10"/>
<path d="M145.082 107.413C145.082 107.413 147.498 106.51 149.372 107.442" stroke="#080705" stroke-width="2" stroke-miterlimit="10"/>
<path d="M140.785 118.067C141.653 118.067 142.356 117.364 142.356 116.496C142.356 115.629 141.653 114.926 140.785 114.926C139.918 114.926 139.215 115.629 139.215 116.496C139.215 117.364 139.918 118.067 140.785 118.067Z" stroke="#080705" stroke-width="2" stroke-miterlimit="10"/>
<path d="M128.888 87.0953C134.302 84.7015 140.96 84.4956 146.62 86.08C153.813 88.082 157.488 95.3779 159.333 102.07C159.915 104.115 160.329 106.204 160.571 108.316C162.287 110.373 163.337 112.944 162.816 115.426C162.353 117.634 160.697 119.568 160.225 121.776C159.965 123.031 160.091 124.33 160.005 125.602C159.919 126.875 159.556 128.211 158.512 129.12C157.64 129.892 156.407 130.264 155.203 130.55C153.373 131.022 151.462 131.408 149.569 131.234C147.392 131.031 145.21 129.655 144.421 127.564C143.377 124.807 145.513 123.054 147.061 121.115C148.04 119.896 148.908 118.591 149.655 117.217C150.195 116.202 150.665 115.15 151.062 114.071" stroke="#080705" stroke-width="2" stroke-miterlimit="10"/>
<path d="M108.782 211.64C116.293 213.162 123.757 215.115 131.376 216.087C145.439 217.889 158.795 214.52 172.58 212.321" stroke="#080705" stroke-width="2" stroke-miterlimit="10"/>
<path d="M32.835 252.707H84.2949" stroke="#080705" stroke-width="2" stroke-miterlimit="10"/>
<path d="M222.799 251.715H267.097" stroke="#080705" stroke-width="2" stroke-miterlimit="10"/>
<path d="M253.861 184.07C256.489 186.335 258.836 188.908 260.851 191.732C264.551 196.793 266.644 202.85 266.857 209.115" stroke="#B4C4D1" stroke-width="2" stroke-miterlimit="10"/>
<path d="M162.176 80.4261C167.473 77.2372 172.987 74.4201 178.855 72.4181C193.487 67.4102 209.801 68.5285 221.392 79.4966C231.442 89.0004 236.193 103.106 237.162 116.628C237.162 116.825 237.194 117.034 237.202 117.243C237.648 124.213 237.282 131.903 237.231 139.605" stroke="#B4C4D1" stroke-width="2" stroke-miterlimit="10"/>
<path d="M46.8316 139.168C48.1586 130.705 46.5256 122.746 45.6533 114.034C43.3881 91.3258 50.6039 64.1816 76.7472 60.7867C90.9528 58.9335 102.487 64.2416 112.088 74.4175C114.248 76.7055 116.404 79.3853 118.692 81.9793" stroke="#B4C4D1" stroke-width="2" stroke-miterlimit="10"/>
<path d="M36.6328 214.125C36.6328 214.125 16.8359 205.402 18.8035 189.02C19.3755 184.399 21.5463 180.26 24.2976 176.462" stroke="#B4C4D1" stroke-width="2" stroke-miterlimit="10"/>
</g>
</g>
<defs>
<clipPath id="clip0_13_1507">
<rect width="286" height="286" fill="white" transform="translate(0.5)"/>
</clipPath>
</defs>
</svg>
