<svg width="266" height="312" viewBox="0 0 266 312" fill="none" xmlns="http://www.w3.org/2000/svg">
<path d="M70.4268 209.551C74.3703 200.573 76.86 190.214 77.0948 178.2C78.2343 119.441 144.673 74.0979 218.374 123.937C292.074 173.777 226.938 310.888 226.938 310.888" stroke="#B4C4D1" stroke-width="2" stroke-miterlimit="10"/>
<path d="M18.899 310.888C15.6427 308.329 -9.18199 284.057 5.72871 270.165C12.0998 264.236 25.8123 257.312 39.5489 246.756" stroke="#B4C4D1" stroke-width="2" stroke-miterlimit="10"/>
<path d="M196.54 163.611C196.808 165.001 197.51 166.271 198.546 167.237" stroke="#B4C4D1" stroke-width="2" stroke-miterlimit="10"/>
<path d="M138.679 190.29C138.168 190.425 137.736 190.522 137.394 190.601C137.139 190.646 136.928 190.691 136.783 190.712H136.752L136.552 190.746C136.552 190.746 136.531 190.722 136.517 190.722C133.064 188.187 134.124 183.47 134.124 183.47C144.449 185.097 146.59 176.733 146.59 176.733C146.455 172.724 145.692 170.839 143.931 169.754C142.09 168.601 139.155 168.304 134.67 167.337L133.927 167.171C127.256 165.655 124.144 158.808 122.915 155.009C122.629 154.168 122.398 153.308 122.224 152.437C114.669 155.275 109.938 159.295 107.214 162.309C106.136 140.938 127.587 144.008 127.587 144.008C131.197 144.059 134.784 144.584 138.257 145.568C139.045 145.914 139.798 146.259 140.516 146.604C140.861 146.781 141.227 146.97 141.552 147.167C141.876 147.364 142.242 147.557 142.56 147.754C142.791 147.889 143.026 148.034 143.251 148.186C147.969 151.181 151.741 155.453 154.128 160.507C154.162 160.575 154.192 160.646 154.218 160.717C154.327 160.951 154.422 161.191 154.505 161.436C159.36 182.68 144.38 188.761 138.679 190.29Z" fill="#8FC6EE"/>
<path d="M138.679 190.29C137.173 187.786 137.871 184.765 137.871 184.765C148.185 186.395 150.333 178.031 150.333 178.031C150.112 171.881 148.451 170.728 143.931 169.743C142.256 169.367 140.198 169.022 137.67 168.459C136.621 168.223 135.61 167.838 134.67 167.316C127.801 163.552 125.95 153.714 125.95 153.714C124.887 154.111 123.879 154.543 122.915 154.988C122.629 154.147 122.398 153.287 122.224 152.416C114.669 155.254 109.938 159.273 107.214 162.288C106.136 140.917 127.587 143.986 127.587 143.986C131.197 144.038 134.784 144.563 138.257 145.547C139.045 145.892 139.798 146.238 140.516 146.583C140.861 146.759 141.227 146.949 141.552 147.146C141.876 147.343 142.242 147.536 142.56 147.733C142.791 147.868 143.026 148.013 143.251 148.165C147.969 151.16 151.741 155.432 154.128 160.486C154.162 160.554 154.192 160.624 154.218 160.696C154.327 160.93 154.422 161.17 154.505 161.414C159.36 182.679 144.38 188.76 138.679 190.29Z" fill="#8FC6EE"/>
<path d="M174.878 284.876C176.473 295.29 178.424 305.536 180.462 310.888H88.8806C77.8547 279.582 83.0827 245.382 83.0827 245.382L66.8184 245.893C76.6012 228.731 73.1204 214.221 71.4698 209.379C84.2464 207.207 97.0231 205.501 109.934 205.356C109.589 212.746 117.656 221.241 129.289 219.007C134.006 218.109 139.756 216.244 139.88 207.981L142.916 208.512C147.115 209.203 150.913 209.942 154.515 210.774C163.838 212.922 171.85 215.609 181.833 219.007C168.02 229.231 174.885 252.848 174.885 252.848L175.23 253.635L170.821 252.848C170.821 252.848 172.454 269.046 174.878 284.876Z" fill="#3A3427"/>
<path d="M79.8609 57.2774C88.992 57.2774 96.3946 49.8749 96.3946 40.7437C96.3946 31.6122 88.992 24.21 79.8609 24.21C70.7297 24.21 63.3271 31.6122 63.3271 40.7437C63.3271 49.8749 70.7297 57.2774 79.8609 57.2774Z" fill="#8FC6EE"/>
<path d="M85.2964 35.2262C85.064 34.6879 84.7508 34.1882 84.3675 33.7448C83.7142 32.9675 82.7995 32.4558 81.7953 32.3059C80.7915 32.1557 79.7669 32.3777 78.915 32.9299C78.358 33.2897 77.8929 33.7745 77.5558 34.346C77.2192 34.9172 77.0199 35.5591 76.9743 36.2207C76.1048 35.9061 75.1566 35.8823 74.2726 36.1527C73.3882 36.4231 72.6158 36.9728 72.0708 37.7201C71.5259 38.467 71.238 39.3707 71.2504 40.2951C71.2628 41.2195 71.575 42.1153 72.1399 42.8473C73.3243 44.3909 75.3375 45.4061 77.1608 45.9966C78.1173 46.3008 79.1018 46.5104 80.0994 46.6216C80.6036 46.6769 83.487 47.0636 83.7563 46.6216C85.5174 43.8142 86.7951 38.6587 85.2964 35.2262Z" fill="#FCFEFF"/>
<path d="M52.0427 35.3708C50.9584 35.2499 49.8603 35.1739 48.7656 35.1152C47.5915 35.1739 46.4175 35.2603 45.2434 35.4053C41.5354 35.819 37.903 36.7489 34.4523 38.1678C32.9067 38.8035 31.4166 39.567 29.9977 40.4503C28.9739 41.0657 27.9935 41.7498 27.0625 42.4981C26.3754 41.5129 25.8239 40.4396 25.4223 39.3074C24.7389 37.3967 24.4882 35.3587 24.6875 33.3393C24.887 31.3199 25.5318 29.3702 26.5756 27.6302C27.6195 25.8901 29.036 24.4032 30.7239 23.2768C32.4115 22.1504 34.328 21.4121 36.3353 21.1158C38.3426 20.8192 40.3907 20.9714 42.332 21.5616C44.2731 22.1521 46.0594 23.1656 47.5619 24.5296C49.064 25.8932 50.2453 27.5732 51.0202 29.4486C51.7951 31.324 52.1442 33.3479 52.0427 35.3742V35.3708Z" fill="#8FC6EE"/>
<path d="M45.2432 35.4051C41.5352 35.8188 37.9028 36.7487 34.4521 38.1676C34.2518 37.6359 34.086 37.1317 34.0308 36.959C33.7538 36.1745 33.5539 35.3651 33.4334 34.5418C33.2227 32.9672 33.2538 31.0887 33.9859 29.6556C34.3277 28.9674 34.8844 28.4094 35.5716 28.0654C36.2587 27.7215 37.0392 27.6107 37.7951 27.7495C38.551 27.8883 39.2409 28.2695 39.7609 28.8351C40.281 29.4008 40.6032 30.1201 40.6781 30.8849C41.1912 30.685 41.7434 30.6049 42.2921 30.6512C42.8412 30.6971 43.3719 30.868 43.8446 31.1508C44.5453 31.5783 45.0709 32.241 45.3271 33.0207C45.5833 33.8001 45.5536 34.6454 45.2432 35.4051Z" fill="#FCFEFF"/>
<path d="M29.9974 40.4468C28.9735 41.0618 27.9932 41.7463 27.0622 42.4946C26.4382 42.9777 25.8391 43.4915 25.2666 44.0347C24.5331 44.7343 23.887 45.5206 23.3432 46.3759C22.8342 47.1719 22.3928 48.0096 22.024 48.8794C21.4667 50.2096 21.0219 51.5843 20.6946 52.9887C20.0381 56.0182 19.6421 59.098 19.5101 62.1948C17.0819 60.9821 15.1329 58.9872 13.9765 56.5316C12.82 54.0761 12.5241 51.3029 13.1356 48.6584C13.7475 46.0144 15.2313 43.6527 17.3488 41.9545C19.4659 40.2562 22.0931 39.3201 24.8073 39.2969C25.0179 39.2969 25.2148 39.2969 25.4254 39.2969C27.0107 39.3729 28.565 39.7638 29.9974 40.4468Z" fill="#8FC6EE"/>
<path d="M23.3432 46.3763C22.8342 47.1726 22.3929 48.01 22.0241 48.8798C21.4667 50.21 21.022 51.5847 20.6946 52.9891C19.9764 51.9911 19.3651 50.7963 19.2685 49.6015C19.2346 49.172 19.2899 48.7403 19.4308 48.3329C19.5713 47.9257 19.7944 47.5517 20.0862 47.2344C20.3776 46.9171 20.7316 46.6636 21.1256 46.4892C21.5196 46.3148 21.9453 46.2237 22.3763 46.2209C22.705 46.2168 23.032 46.2696 23.3432 46.3763Z" fill="#FCFEFF"/>
<g opacity="0.72">
<path opacity="0.72" d="M98.9746 38.6619C104.002 38.6619 108.077 34.5869 108.077 29.5594C108.077 24.5323 104.002 20.4569 98.9746 20.4569C93.9475 20.4569 89.8721 24.5323 89.8721 29.5594C89.8721 34.5869 93.9475 38.6619 98.9746 38.6619Z" fill="#8FC6EE"/>
<path opacity="0.72" d="M102.925 31.1821C103.149 30.9507 103.337 30.6879 103.484 30.4017C103.744 29.9061 103.813 29.3329 103.68 28.7897C103.546 28.2466 103.219 27.7711 102.759 27.4527C102.46 27.2465 102.118 27.1118 101.758 27.0597C101.399 27.0079 101.033 27.0393 100.687 27.1522C100.668 26.6419 100.484 26.1515 100.162 25.7554C99.8395 25.3594 99.3972 25.079 98.9013 24.9564C98.4054 24.8341 97.8833 24.8763 97.414 25.0766C96.9444 25.2772 96.5528 25.6253 96.2983 26.068C95.7596 26.9969 95.6629 28.2331 95.7458 29.2863C95.7897 29.8371 95.8891 30.382 96.0428 30.9127C96.1187 31.1821 96.5228 32.7291 96.799 32.7774C98.5947 33.0813 101.488 32.6566 102.925 31.1821Z" fill="#FCFEFF"/>
</g>
<g opacity="0.72">
<path opacity="0.72" d="M94.9168 131.472C98.506 131.472 101.416 128.562 101.416 124.973C101.416 121.384 98.506 118.474 94.9168 118.474C91.3276 118.474 88.418 121.384 88.418 124.973C88.418 128.562 91.3276 131.472 94.9168 131.472Z" fill="#8FC6EE"/>
<path opacity="0.72" d="M97.7346 126.144C97.8945 125.979 98.0285 125.79 98.1318 125.585C98.3168 125.232 98.3666 124.823 98.272 124.436C98.177 124.049 97.9442 123.71 97.6172 123.482C97.4028 123.333 97.1566 123.236 96.8983 123.199C96.64 123.162 96.3765 123.185 96.1289 123.268C96.1134 122.905 95.9808 122.557 95.7508 122.275C95.5212 121.994 95.2062 121.794 94.8537 121.707C94.5011 121.62 94.1295 121.649 93.7949 121.79C93.4603 121.931 93.1803 122.177 92.9969 122.491C92.645 123.203 92.5073 124.002 92.5998 124.79C92.6316 125.183 92.7034 125.572 92.8139 125.951C92.8691 126.141 93.1592 127.249 93.3526 127.28C94.6441 127.487 96.7091 127.18 97.7346 126.144Z" fill="#FCFEFF"/>
</g>
<path d="M80.4608 46.959L76.1354 56.1054C74.5656 59.4242 75.9838 63.3871 79.3027 64.9565L88.449 69.282C91.7679 70.8514 95.7307 69.4332 97.3002 66.1147L101.626 56.968C103.195 53.6492 101.777 49.6863 98.4583 48.1169L89.312 43.7915C85.9931 42.222 82.0303 43.6402 80.4608 46.959Z" fill="#8FC6EE"/>
<path d="M99.1609 58.572L96.0289 65.1952C95.3734 66.5785 94.1966 67.6462 92.756 68.1639C91.3153 68.6815 89.7282 68.6076 88.3421 67.9577L80.3999 64.2007C79.0169 63.5446 77.9502 62.3677 77.4326 60.9274C76.9149 59.4871 76.9885 57.9004 77.6373 56.5139L77.848 56.065C80.0062 54.3385 83.7391 52.0179 85.0996 55.1845C87.061 59.7426 89.6094 58.2681 92.8692 56.362C95.6041 54.7494 98.8708 54.2141 99.1609 58.572Z" fill="#FCFEFF"/>
<path d="M86.8501 51.5288C88.2003 51.5288 89.2949 50.4342 89.2949 49.084C89.2949 47.7338 88.2003 46.6392 86.8501 46.6392C85.4999 46.6392 84.4053 47.7338 84.4053 49.084C84.4053 50.4342 85.4999 51.5288 86.8501 51.5288Z" fill="#FCFEFF"/>
<path d="M110.643 76.8569L104.946 88.9036C102.88 93.2721 104.747 98.4888 109.116 100.555L121.162 106.252C125.531 108.318 130.747 106.451 132.813 102.082L138.51 90.0358C140.576 85.6669 138.71 80.4506 134.341 78.3845L122.294 72.6875C117.925 70.6215 112.709 72.4883 110.643 76.8569Z" fill="#8FC6EE"/>
<path d="M135.26 92.1511L131.116 100.87C130.251 102.689 128.7 104.091 126.803 104.77C124.907 105.449 122.819 105.349 120.995 104.492L110.553 99.5547C108.734 98.6886 107.332 97.1378 106.653 95.2413C105.974 93.3449 106.074 91.2568 106.931 89.4335L107.21 88.843C110.052 86.5777 114.963 83.5148 116.755 87.6827C119.341 93.6843 122.694 91.7433 126.987 89.2329C130.574 87.123 134.88 86.412 135.26 92.1511Z" fill="#FCFEFF"/>
<path d="M119.051 82.876C120.828 82.876 122.269 81.435 122.269 79.6576C122.269 77.8799 120.828 76.4393 119.051 76.4393C117.274 76.4393 115.833 77.8799 115.833 79.6576C115.833 81.435 117.274 82.876 119.051 82.876Z" fill="#FCFEFF"/>
<path d="M134.048 42.5363C134.527 43.4197 134.876 44.3675 135.084 45.3507C135.451 47.1605 135.343 49.0341 134.77 50.7894C134.197 52.5446 133.178 54.1213 131.814 55.3648C130.733 56.3213 129.355 57.0707 128.257 58.0721C127.459 58.7627 126.871 59.664 126.561 60.6723C126.503 61.0166 126.365 61.3419 126.157 61.6219C125.515 62.3126 124.89 61.2283 124.334 61.0314C123.442 60.7421 122.475 60.7901 121.616 61.1661C119.36 62.0964 116.852 62.2207 114.514 61.5183C112.176 60.816 110.152 59.3297 108.782 57.31C107.412 55.2899 106.78 52.8595 106.991 50.4278C107.203 47.9965 108.246 45.7119 109.945 43.959C111.637 42.2325 113.854 41.1378 115.991 40.0052C117.877 39.0038 119.752 37.9333 121.796 37.3428C126.61 35.9132 131.724 38.2993 134.048 42.5363Z" fill="#8FC6EE"/>
<path d="M114.738 55.0223C116.01 55.0223 117.042 53.9912 117.042 52.7191C117.042 51.4469 116.01 50.4158 114.738 50.4158C113.466 50.4158 112.435 51.4469 112.435 52.7191C112.435 53.9912 113.466 55.0223 114.738 55.0223Z" fill="#FCFEFF"/>
<path d="M120.943 51.7042C122.216 51.7042 123.247 50.6731 123.247 49.401C123.247 48.1288 122.216 47.0977 120.943 47.0977C119.671 47.0977 118.64 48.1288 118.64 49.401C118.64 50.6731 119.671 51.7042 120.943 51.7042Z" fill="#FCFEFF"/>
<path d="M126.766 48.5895C128.038 48.5895 129.069 47.5584 129.069 46.2862C129.069 45.0144 128.038 43.983 126.766 43.983C125.494 43.983 124.462 45.0144 124.462 46.2862C124.462 47.5584 125.494 48.5895 126.766 48.5895Z" fill="#FCFEFF"/>
<path d="M205.566 197.644V197.7L204.713 217.307L204.237 228.049C204.237 227.652 204.258 227.241 204.282 226.844C198.387 224.873 190.815 222.069 184.972 220.087C173.473 216.164 164.809 213.149 154.508 210.78C153.886 207.779 153.299 201.343 156.19 191.947C160.334 178.542 161.697 164.94 159.591 162.312C159.571 162.282 159.545 162.256 159.515 162.236C158.016 156.832 154.052 160.33 154.052 160.33C154.052 160.33 154.076 160.385 154.087 160.416C153.262 159.049 152.355 157.731 151.373 156.472C151.405 156.277 151.457 156.085 151.528 155.899C152.802 152.066 159.591 151.144 159.591 151.144C169.529 151.876 174.757 156.307 177.396 162.125C179.72 169.47 178.349 177.433 178.048 184.968C177.927 188.235 177.461 193.255 179.954 195.901C182.258 200.255 188.052 198.373 189.623 197.897C190.134 197.752 191.46 197.662 193.201 197.606C196.747 197.52 201.965 197.586 205.145 197.641C205.3 197.644 205.435 197.644 205.566 197.644Z" fill="#8FC6EE"/>
<path d="M68.027 21.4136C67.3032 21.5748 66.5601 21.6304 65.8204 21.5793C64.464 21.4723 63.1584 21.0144 62.032 20.2512C60.9052 19.4877 59.9963 18.4449 59.3941 17.2248C58.9348 16.2613 58.7035 15.1322 58.2028 14.1515C57.8761 13.4472 57.3578 12.849 56.7075 12.4249C56.4751 12.3143 56.2728 12.1497 56.117 11.9449C55.7717 11.351 56.6557 11.1299 56.9078 10.7777C57.2929 10.2047 57.4562 9.51121 57.3671 8.82669C57.162 7.03509 57.5819 5.22761 58.556 3.71001C59.5301 2.19246 60.9984 1.05789 62.7129 0.498234C64.4271 -0.0614194 66.2821 -0.0117635 67.9638 0.638742C69.6458 1.28925 71.0513 2.50072 71.9429 4.06825C72.82 5.61871 73.1411 7.4109 73.5071 9.15474C73.8317 10.6914 74.1978 12.235 74.1978 13.8061C74.2288 17.4977 71.4974 20.6331 68.027 21.4136Z" fill="#8FC6EE"/>
<path d="M64.7536 7.3621C65.6901 7.3621 66.4491 6.60299 66.4491 5.6666C66.4491 4.73021 65.6901 3.9711 64.7536 3.9711C63.8171 3.9711 63.0581 4.73021 63.0581 5.6666C63.0581 6.60299 63.8171 7.3621 64.7536 7.3621Z" fill="#FCFEFF"/>
<path d="M65.8376 12.4313C66.7741 12.4313 67.5331 11.6722 67.5331 10.7358C67.5331 9.79942 66.7741 9.04031 65.8376 9.04031C64.9011 9.04031 64.1421 9.79942 64.1421 10.7358C64.1421 11.6722 64.9011 12.4313 65.8376 12.4313Z" fill="#FCFEFF"/>
<path d="M66.8566 17.19C67.7931 17.19 68.5521 16.4309 68.5521 15.4945C68.5521 14.5581 67.7931 13.799 66.8566 13.799C65.9201 13.799 65.1611 14.5581 65.1611 15.4945C65.1611 16.4309 65.9201 17.19 66.8566 17.19Z" fill="#FCFEFF"/>
<g opacity="0.72">
<path opacity="0.72" d="M169.122 83.0589C176.239 83.0589 182.009 77.2891 182.009 70.1718C182.009 63.0545 176.239 57.2846 169.122 57.2846C162.004 57.2846 156.234 63.0545 156.234 70.1718C156.234 77.2891 162.004 83.0589 169.122 83.0589Z" fill="#8FC6EE"/>
<path opacity="0.72" d="M169.605 76.1904C170.039 76.3289 170.492 76.4 170.948 76.4011C171.74 76.4114 172.508 76.1324 173.108 75.6169C173.709 75.1013 174.102 74.3844 174.211 73.6006C174.283 73.0888 174.233 72.5677 174.069 72.0781C173.904 71.5884 173.628 71.144 173.262 70.7793C173.893 70.4285 174.393 69.8819 174.687 69.222C174.981 68.5621 175.053 67.8248 174.891 67.1207C174.729 66.4166 174.343 65.7843 173.791 65.3189C173.239 64.8534 172.55 64.5799 171.829 64.5395C170.313 64.4532 168.69 65.1196 167.409 65.8931C166.742 66.3009 166.117 66.774 165.544 67.3055C165.25 67.5748 163.551 69.0769 163.669 69.4533C164.429 71.9292 166.815 75.3237 169.605 76.1904Z" fill="#FCFEFF"/>
</g>
<path d="M175.106 122.77C174.3 123.941 173.328 124.988 172.219 125.878C170.167 127.499 167.729 128.561 165.144 128.958C162.559 129.355 159.915 129.074 157.471 128.143C155.568 127.387 153.745 126.12 151.776 125.381C150.394 124.814 148.881 124.646 147.408 124.897C146.937 125.044 146.438 125.077 145.951 124.994C144.673 124.621 145.64 123.143 145.533 122.314C145.329 121.003 144.652 119.812 143.63 118.965C140.996 116.71 139.222 113.615 138.608 110.202C137.995 106.789 138.58 103.27 140.264 100.239C141.948 97.2079 144.628 94.8522 147.85 93.5711C151.072 92.2896 154.638 92.1615 157.944 93.2078C161.21 94.2438 164.004 96.3467 166.801 98.3254C169.267 100.069 171.805 101.779 173.87 103.961C178.735 109.144 178.98 117.135 175.106 122.77Z" fill="#8FC6EE"/>
<path d="M149.915 108.129C151.716 108.129 153.175 106.669 153.175 104.869C153.175 103.069 151.716 101.609 149.915 101.609C148.115 101.609 146.655 103.069 146.655 104.869C146.655 106.669 148.115 108.129 149.915 108.129Z" fill="#FCFEFF"/>
<path d="M158.068 113.855C159.869 113.855 161.328 112.395 161.328 110.595C161.328 108.795 159.869 107.335 158.068 107.335C156.268 107.335 154.809 108.795 154.809 110.595C154.809 112.395 156.268 113.855 158.068 113.855Z" fill="#FCFEFF"/>
<path d="M165.72 119.223C167.521 119.223 168.98 117.764 168.98 115.963C168.98 114.163 167.521 112.704 165.72 112.704C163.92 112.704 162.46 114.163 162.46 115.963C162.46 117.764 163.92 119.223 165.72 119.223Z" fill="#FCFEFF"/>
<g opacity="0.54">
<path opacity="0.54" d="M76.1145 26.0373C76.0713 26.6002 75.9847 27.1589 75.8555 27.7086L74.4121 33.9692C73.9701 35.8857 73.4728 37.9058 72.1019 39.3147C69.5466 41.9287 65.2681 41.3313 61.701 40.5371L52.9438 38.593C50.9341 38.1441 48.8898 37.6883 47.0735 36.6868C45.2571 35.6854 43.7101 34.059 43.275 32.0389C42.9677 30.5506 43.2992 29.0139 43.6203 27.5291L44.9843 21.5137C45.4228 19.5454 45.9201 17.4631 47.3394 16.0336C49.8705 13.4817 54.0626 14.0618 57.5745 14.8215L66.5285 16.7656C71.9362 17.95 76.5462 20.457 76.1145 26.0373Z" fill="#8FC6EE"/>
<path opacity="0.54" d="M64.039 26.2052C64.4137 26.5543 64.6896 26.9956 64.8398 27.4853C64.9897 27.975 65.0083 28.4953 64.8937 28.9943C64.7787 29.4933 64.5345 29.9533 64.1858 30.3279C63.837 30.7026 63.3957 30.9792 62.9064 31.1294L60.2371 31.9478L57.5713 32.7628C57.0806 32.9137 56.5591 32.9323 56.0591 32.817C55.5588 32.7016 55.0981 32.4565 54.7231 32.1063C54.3477 31.7562 54.0718 31.3131 53.9226 30.8221C53.7731 30.331 53.7562 29.8093 53.8729 29.3096L54.498 26.5885L55.123 23.8709C55.2387 23.3719 55.4831 22.9119 55.8326 22.5376C56.1817 22.1629 56.6234 21.8867 57.113 21.7368C57.603 21.5866 58.1234 21.568 58.6227 21.6826C59.1217 21.7973 59.582 22.0411 59.9574 22.3895L61.9982 24.2922L64.039 26.2052Z" fill="#FCFEFF"/>
</g>
<g opacity="0.54">
<path opacity="0.54" d="M174.522 38.0876C174.479 38.6504 174.392 39.2095 174.263 39.7589L172.82 46.0298C172.378 47.9463 171.881 49.9664 170.51 51.3718C167.954 53.9893 163.676 53.3885 160.109 52.5977L151.352 50.6501C149.342 50.2047 147.298 49.7454 145.481 48.7474C143.665 47.7495 142.118 46.1161 141.683 44.0995C141.375 42.6112 141.707 41.0745 142.028 39.5897L143.395 33.5985C143.831 31.6267 144.328 29.5479 145.747 28.1148C148.278 25.5664 152.47 26.1431 155.982 26.9062L164.922 28.8365C170.344 30.0072 174.954 32.5176 174.522 38.0876Z" fill="#8FC6EE"/>
<path opacity="0.54" d="M162.447 38.2635C162.821 38.6129 163.097 39.0546 163.247 39.5442C163.397 40.0339 163.415 40.5546 163.301 41.0536C163.186 41.5529 162.942 42.0129 162.593 42.3882C162.245 42.7633 161.803 43.0402 161.314 43.1911L158.645 44.006L155.979 44.8244C155.488 44.975 154.967 44.9937 154.467 44.8783C153.966 44.7633 153.506 44.5182 153.131 44.168C152.755 43.8175 152.48 43.3748 152.33 42.8838C152.181 42.3927 152.164 41.871 152.281 41.3713L152.906 38.6537L153.531 35.936C153.646 35.437 153.891 34.9771 154.24 34.6024C154.589 34.2277 155.031 33.9518 155.521 33.8016C156.01 33.6518 156.531 33.6328 157.03 33.7474C157.529 33.8621 157.99 34.1059 158.365 34.4546L160.406 36.3573L162.447 38.2635Z" fill="#FCFEFF"/>
</g>
<g opacity="0.54">
<path opacity="0.54" d="M133.199 122.096C133.177 122.358 133.135 122.618 133.074 122.873L132.404 125.798C132.197 126.689 131.966 127.628 131.327 128.284C130.139 129.503 128.147 129.224 126.493 128.854L122.414 127.95C121.468 127.785 120.549 127.486 119.686 127.062C119.256 126.847 118.877 126.542 118.573 126.169C118.27 125.795 118.049 125.362 117.925 124.897C117.831 124.194 117.887 123.478 118.088 122.797L118.709 120C118.913 119.085 119.144 118.115 119.807 117.448C120.985 116.261 122.936 116.53 124.569 116.886L128.741 117.79C131.251 118.329 133.399 119.496 133.199 122.096Z" fill="#8FC6EE"/>
<path opacity="0.54" d="M127.573 122.175C127.748 122.338 127.877 122.543 127.947 122.771C128.017 123 128.026 123.242 127.972 123.474C127.919 123.707 127.805 123.921 127.642 124.096C127.479 124.27 127.273 124.399 127.045 124.468L125.805 124.848L124.562 125.228C124.334 125.299 124.091 125.309 123.858 125.256C123.625 125.203 123.409 125.09 123.234 124.927C123.059 124.764 122.93 124.559 122.86 124.33C122.79 124.101 122.781 123.858 122.835 123.626L123.139 122.345L123.429 121.077C123.482 120.844 123.596 120.629 123.758 120.454C123.921 120.279 124.127 120.149 124.355 120.079C124.583 120.009 124.827 120.001 125.059 120.055C125.292 120.109 125.506 120.223 125.681 120.387L126.63 121.271L127.573 122.175Z" fill="#FCFEFF"/>
</g>
<g opacity="0.54">
<path opacity="0.54" d="M90.2101 0.839259C90.4933 0.986605 90.7657 1.15394 91.025 1.33997L93.9257 3.4602C94.8166 4.10594 95.7455 4.80693 96.1668 5.82216C96.9507 7.71104 95.7006 9.77948 94.5093 11.437L91.5845 15.5117C90.9584 16.4818 90.1952 17.3564 89.3192 18.1085C88.4075 18.7992 87.2266 19.2619 86.0974 19.0305C85.2652 18.8648 84.5469 18.3399 83.8563 17.8599L81.0592 15.8536C80.1442 15.1975 79.1842 14.4723 78.7594 13.4364C78.0032 11.5717 79.2222 9.54467 80.3859 7.91132L83.3521 3.733C85.1305 1.2122 87.4338 -0.607614 90.2101 0.839259Z" fill="#8FC6EE"/>
<path opacity="0.54" d="M87.6407 7.08669C87.9014 6.97118 88.1877 6.92601 88.4712 6.95571C88.7547 6.98541 89.0254 7.08897 89.2564 7.256C89.4875 7.42302 89.6705 7.64772 89.7875 7.90764C89.9046 8.16756 89.9512 8.45365 89.9232 8.7373L89.7575 10.2912L89.5917 11.8451C89.5614 12.1299 89.4567 12.4016 89.2879 12.633C89.119 12.8644 88.8925 13.0472 88.6307 13.1631C88.3686 13.279 88.081 13.3238 87.7961 13.2931C87.5116 13.2624 87.2398 13.1572 87.0088 12.9881L85.7484 12.0696L84.488 11.1545C84.2559 10.9861 84.0722 10.7594 83.9558 10.4974C83.8395 10.2354 83.7942 9.94725 83.8246 9.66212C83.855 9.37699 83.9603 9.10495 84.1295 8.87345C84.2988 8.64195 84.526 8.45921 84.7884 8.34363L86.2146 7.71171L87.6407 7.08669Z" fill="#FCFEFF"/>
</g>
<path d="M226.924 261.508C226.922 261.568 226.915 261.628 226.903 261.688C226.898 261.702 226.898 261.718 226.903 261.733C226.418 264.958 225.079 267.994 223.026 270.528C223.001 270.549 222.991 270.583 222.97 270.604C219.814 274.537 215.239 277.375 210.608 279.157C205.877 280.998 201.081 281.74 197.666 281.485H197.59C193.411 281.174 188.825 281.716 184.813 282.469C184.392 282.548 183.97 282.624 183.549 282.714C180.9 283.246 178.286 283.909 175.697 284.641L175.21 284.776L174.885 284.862C172.468 269.033 170.831 252.823 170.831 252.823L220.211 261.598C222.434 262.001 224.713 261.971 226.924 261.508Z" fill="#8FC6EE"/>
<path d="M125.515 186.263C122.919 188.839 119.441 189.336 116.026 190.096C108.267 191.822 101.761 189.861 101.419 180.942C101.198 175.202 101.806 169.46 105.28 164.694C109.441 158.986 115.833 155.184 122.2 152.408C122.2 152.408 125.122 167.353 138.43 168.003C151.739 168.652 148.5 186.197 132.905 183.272" stroke="#080705" stroke-width="2" stroke-miterlimit="10"/>
<path d="M135.519 190.746C135.864 190.746 136.182 190.746 136.503 190.722C136.581 190.717 136.66 190.717 136.738 190.722H136.769L137.38 190.667" stroke="#080705" stroke-width="2" stroke-miterlimit="10"/>
<path d="M150.264 154.243C148.082 151.649 145.475 149.445 142.553 147.726C142.228 147.512 141.892 147.317 141.545 147.139C141.2 146.943 140.854 146.753 140.509 146.577C139.78 146.2 139.024 145.844 138.251 145.541C133.684 143.629 128.781 142.651 123.83 142.664C97.1995 142.664 104.6 165.707 104.6 165.707" stroke="#080705" stroke-width="2" stroke-miterlimit="10"/>
<path d="M154.684 210.553C153.766 205.657 154.916 198.036 156.19 191.941C157.333 186.512 158.583 182.303 158.583 182.303C160.468 171.225 160.389 165.286 159.515 162.23C158.016 156.832 154.052 160.331 154.052 160.331" stroke="#080705" stroke-width="2" stroke-miterlimit="10"/>
<path d="M159.515 162.23C158.016 156.832 154.052 160.33 154.052 160.33C153.367 158.77 152.521 157.285 151.528 155.9C151.127 155.343 150.706 154.8 150.264 154.27C151.448 151.124 154.608 149.249 157.861 148.997C166.401 148.341 174.819 153.994 177.392 162.119C179.716 169.464 178.345 177.427 178.045 184.962C177.924 188.228 177.458 193.249 179.951 195.894C180.082 196.029 180.206 196.15 180.348 196.271C182.42 198.056 185.721 198.156 189.633 197.89C190.773 197.811 191.971 197.714 193.211 197.6C197.009 197.255 201.153 196.958 205.155 197.635L205.552 197.7C205.432 204.227 205.031 210.774 204.7 217.301C204.523 220.478 204.354 223.658 204.268 226.838C198.373 224.866 190.801 222.063 184.958 220.08L181.843 219.006C171.86 215.605 163.862 212.922 154.525 210.774C150.924 209.942 147.125 209.199 142.926 208.512L138.461 207.728C138.162 207.676 137.891 207.52 137.696 207.286C137.501 207.053 137.395 206.758 137.397 206.454V190.656C140.379 190.403 143.262 189.463 145.82 187.91C148.378 186.358 150.542 184.234 152.142 181.705C156.462 174.758 156.873 167.648 154.511 161.408C154.427 161.158 154.329 160.914 154.218 160.676C154.192 160.604 154.162 160.533 154.128 160.465C154.128 160.444 154.107 160.41 154.097 160.386" stroke="#080705" stroke-width="2" stroke-miterlimit="10"/>
<path d="M44.2554 219.007C45.6366 208.302 46.272 197.414 47.6118 186.647" stroke="#080705" stroke-width="2" stroke-miterlimit="10"/>
<path d="M47.833 184.962C48.2094 182.048 48.6549 179.133 49.2143 176.253C49.235 176.112 49.2592 175.977 49.2902 175.846C49.601 174.14 49.9463 172.445 50.3262 170.749C51.4795 165.676 55.5059 161.964 58.3686 157.831L58.5447 157.389C64.7207 148.404 68.14 137.811 68.3827 126.911C68.4518 122.968 68.2964 115.17 63.7762 113.561C61.2382 112.653 58.5447 114.428 57.1393 116.455C56.5619 117.292 56.0978 118.201 55.758 119.159" stroke="#080705" stroke-width="2" stroke-miterlimit="10"/>
<path d="M88.8804 310.887C77.8545 279.581 83.0826 245.381 83.0826 245.381L66.8217 245.892L23.9266 247.252C21.4071 247.336 18.8994 246.877 16.5727 245.908C14.2456 244.938 12.1541 243.481 10.4392 241.633C8.72404 239.786 7.42565 237.592 6.63142 235.2C5.8372 232.808 5.56578 230.273 5.83547 227.766L18.5776 181.249" stroke="#080705" stroke-width="2" stroke-miterlimit="10"/>
<path d="M19.1958 178.977L20.3146 174.903L21.613 170.282" stroke="#080705" stroke-width="2" stroke-miterlimit="10"/>
<path d="M22.718 166.304L23.4604 163.635C24.4439 160.091 24.2004 156.319 22.7698 152.93L21.2953 149.408C20.3319 146.473 20.0314 145.054 21.24 142.184C21.8119 140.83 22.6147 139.586 23.6124 138.507C26.5234 135.295 30.6223 133.7 34.8455 133.154C39.0687 132.609 43.7305 133.033 47.1284 135.772C49.4351 137.629 51.6175 142.053 50.1084 144.943C49.0138 147.046 46.6967 147.657 44.725 146.905C44.035 146.646 43.4135 146.233 42.9086 145.696C40.5812 143.258 35.657 142.726 33.9304 145.099" stroke="#080705" stroke-width="2" stroke-miterlimit="10"/>
<path d="M204.171 230.717C204.171 229.85 204.202 228.99 204.237 228.113V228.044C204.237 227.647 204.257 227.236 204.281 226.839" stroke="#080705" stroke-width="2" stroke-miterlimit="10"/>
<path d="M199.741 147.771C195.697 149.932 190.732 155.368 199.109 168.144C201.872 172.354 204.789 176.905 205.2 182.102C205.583 187.295 205.706 192.505 205.566 197.71" stroke="#080705" stroke-width="2" stroke-miterlimit="10"/>
<path d="M160.523 251.011L170.137 252.717L170.828 252.838L175.237 253.625L220.201 261.612C222.427 262.017 224.71 261.987 226.924 261.523C230.769 260.713 234.234 258.643 236.768 255.64C239.302 252.637 240.761 248.874 240.913 244.947L234.269 190.557L232.798 178.947C232.331 175.296 233.115 171.594 235.022 168.446L236.994 165.166C236.994 165.166 240.426 160.159 234.421 159.793C231.185 159.603 227.819 160.483 224.894 161.809C223.222 162.552 220.874 163.881 219.932 165.708C219.548 166.399 219.419 167.203 219.565 167.98C220.256 171.547 224.745 173.053 227.708 171.547" stroke="#080705" stroke-width="2" stroke-miterlimit="10"/>
<path d="M236.403 160.051C236.403 160.051 239.798 158.031 237.501 153.062C236.686 151.294 234.217 150.068 228.903 150.406C214.745 151.308 209.199 165.866 219.949 165.707" stroke="#080705" stroke-width="2" stroke-miterlimit="10"/>
<path d="M233.178 150.382C236.32 146.052 230.761 141.908 226.71 142.049C222.891 142.184 219.027 143.596 215.681 145.364C211.026 147.823 205.017 152.585 206.737 158.611C207.245 160.386 211.261 162.578 213.885 161.311" stroke="#080705" stroke-width="2" stroke-miterlimit="10"/>
<path d="M206.44 156.469C206.44 156.469 206.44 156.469 206.44 156.49C204.247 160.679 193.867 156.49 199.727 147.771C201.096 145.842 202.737 144.121 204.599 142.664C219.213 130.723 222.48 142.864 222.459 142.142" stroke="#080705" stroke-width="2" stroke-miterlimit="10"/>
<path d="M212.801 161.408C212.801 161.408 218.146 165.206 216.506 171.536" stroke="#080705" stroke-width="2" stroke-miterlimit="10"/>
<path d="M24.6036 131.023C24.2583 129.663 24.3032 127.947 25.1112 125.75C26.2749 122.594 29.6659 120.522 32.9672 119.158C34.1723 118.661 35.3844 118.25 36.4203 117.929C40.022 116.824 43.9758 116.237 47.8157 116.624C49.11 116.749 50.3894 116.994 51.6384 117.356C53.079 117.771 54.4575 118.378 55.7373 119.158C58.8935 121.099 61.031 124.045 62.3155 127.912C63.4344 131.248 63.866 135.212 61.0966 137.294" stroke="#080705" stroke-width="2" stroke-miterlimit="10"/>
<path d="M61.3486 181.681L60.3299 186.612C60.2961 186.779 60.2294 186.936 60.1334 187.075C60.0374 187.215 59.9145 187.333 59.7719 187.424C59.6289 187.515 59.4694 187.576 59.3026 187.604C59.1355 187.632 58.9645 187.626 58.8002 187.586C54.8808 186.657 51.4449 185.794 47.8329 184.962C46.0408 184.541 44.1899 184.143 42.2285 183.733C34.5625 182.148 26.9068 180.359 19.1994 178.978C15.9776 178.401 12.7523 177.9 9.50636 177.524C7.69 177.313 5.84947 177.227 4.02275 177.092C3.62357 177.083 3.23646 176.952 2.91428 176.716C1.18771 175.452 2.91429 171.343 3.29068 169.637C3.29068 169.616 3.29068 169.592 3.29068 169.571C3.55657 168.262 11.0775 168.639 21.5924 170.279C25.2597 170.856 29.2895 171.574 33.5127 172.441C39.4487 173.66 44.8011 174.975 49.1762 176.239C49.929 176.46 50.6507 176.671 51.3379 176.882C51.3379 176.882 51.3379 176.882 51.3586 176.882C52.2323 177.158 53.0541 177.424 53.8276 177.69C58.7138 179.357 61.5282 180.808 61.3486 181.681Z" fill="#8FC6EE"/>
<path d="M61.3486 181.681L60.3299 186.613C60.2961 186.779 60.2294 186.936 60.1334 187.075C60.0374 187.215 59.9145 187.333 59.7719 187.424C59.6289 187.515 59.4694 187.576 59.3026 187.604C59.1355 187.632 58.9645 187.626 58.8002 187.586C54.8808 186.657 51.4449 185.794 47.8329 184.962C46.0408 184.541 44.1899 184.143 42.2285 183.733C34.5625 182.148 26.9068 180.359 19.1994 178.978C15.9776 178.401 12.7523 177.9 9.50636 177.524C7.69 177.313 5.84947 177.227 4.02275 177.092C3.62357 177.083 3.23646 176.952 2.91428 176.716C1.18771 175.452 2.91429 171.343 3.29068 169.637C3.29068 169.616 3.29068 169.592 3.29068 169.571C3.55657 168.262 11.0775 168.639 21.5924 170.279C25.2597 170.856 29.2895 171.574 33.5127 172.441C39.4487 173.66 44.8011 174.975 49.1762 176.239C49.929 176.46 50.6507 176.671 51.3379 176.882C51.3379 176.882 51.3379 176.882 51.3586 176.882C52.2323 177.158 53.0541 177.424 53.8276 177.69C58.7138 179.357 61.5282 180.808 61.3486 181.681Z" stroke="#080705" stroke-width="2" stroke-miterlimit="10"/>
<path d="M50.5956 142.288L51.5763 144.252C52.8091 145.603 54.5149 146.456 56.8527 145.869C61.4385 144.729 61.8909 140.927 61.0932 137.294C60.9561 136.635 60.7786 135.984 60.5614 135.347C59.4875 132.142 57.8265 129.563 55.4991 127.681C53.8454 126.342 51.9344 125.357 49.8842 124.787C48.214 124.305 46.4905 124.03 44.7529 123.969C41.3387 123.851 37.9298 124.318 34.6731 125.35C31.4168 126.348 26.9622 128.064 24.5933 131.01C24.0626 131.657 23.6427 132.387 23.3502 133.171C22.6216 135.153 22.4973 136.759 22.7528 138.057L22.998 139.266" stroke="#080705" stroke-width="2" stroke-miterlimit="10"/>
<path d="M51.8661 117.432L53.0057 112.712L54.3593 107.152C54.5503 106.35 54.5744 105.518 54.4297 104.707C54.2851 103.895 53.9746 103.123 53.5181 102.436C53.0616 101.75 52.4687 101.165 51.7763 100.718C51.084 100.271 50.307 99.9719 49.4938 99.8383C49.1754 99.7854 48.8533 99.7602 48.5304 99.7623C47.164 99.7588 45.8376 100.224 44.773 101.081C43.7087 101.938 42.9701 103.134 42.6807 104.469C42.3354 106.078 41.9038 108.036 41.4272 110.243C40.9749 112.335 40.4742 114.628 39.9424 117.045" stroke="#080705" stroke-width="2" stroke-miterlimit="10"/>
<path d="M38.3403 124.467V124.455" stroke="#080705" stroke-width="2" stroke-miterlimit="10"/>
<path d="M33.9411 145.094C33.5958 146.79 33.399 147.857 33.4094 148.04C33.4094 148.04 33.4094 148.04 33.4094 148.064C31.9141 158.113 27.5148 163.486 22.7287 166.286C19.8015 167.952 16.5321 168.926 13.1704 169.135" stroke="#080705" stroke-width="2" stroke-miterlimit="10"/>
<path d="M44.7529 146.901C44.7529 146.901 36.7347 168.272 49.2731 175.849C49.9361 176.247 50.6288 176.593 51.345 176.884C52.2031 177.241 53.0888 177.526 53.9936 177.737" stroke="#080705" stroke-width="2" stroke-miterlimit="10"/>
<path d="M59.667 187.486C59.667 187.486 59.7222 188.474 47.612 186.647C43.4682 186.026 37.8983 185.073 30.4084 183.633C25.7121 182.735 21.81 181.937 18.5779 181.25C1.59523 177.617 2.91089 176.719 2.91089 176.719" stroke="#080705" stroke-width="2" stroke-miterlimit="10"/>
<path d="M93.7877 67.3539C91.2047 81.0457 82.6961 95.4591 72.3781 104.71C68.1584 108.509 63.2514 111.157 57.9543 112.2C56.3289 112.53 54.6748 112.701 53.0163 112.708L54.3596 107.152C54.6893 105.783 54.5284 104.342 53.9051 103.08C53.2815 101.818 52.2352 100.815 50.9478 100.245C50.4827 100.046 49.9961 99.9006 49.4975 99.8136C49.1781 99.7607 48.8545 99.7352 48.5306 99.7376C47.1614 99.7355 45.833 100.204 44.7677 101.064C43.7028 101.925 42.9662 103.126 42.681 104.465C42.4703 105.473 42.2148 106.616 41.9385 107.866C28.8166 99.192 23.1258 80.6382 23.7577 65.5721C23.958 60.565 24.2342 53.9729 26.427 48.8761C27.167 47.0597 28.2716 45.4143 29.6729 44.0416C35.8886 38.192 44.3972 35.5227 53.1717 35.1221C59.9064 35.4398 66.5343 36.9285 72.758 39.5214C84.3606 44.4215 96.4673 53.1096 93.7877 67.3539Z" fill="#8FC6EE"/>
<path d="M93.7877 67.3539C91.2047 81.0457 82.6961 95.4591 72.3781 104.71C68.1584 108.509 63.2514 111.157 57.9543 112.2L59.1802 107.152C59.3711 106.35 59.3953 105.517 59.2506 104.706C59.1056 103.895 58.7955 103.122 58.339 102.436C57.8825 101.75 57.2896 101.165 56.5972 100.718C55.9048 100.271 55.1279 99.9714 54.3147 99.8377C53.9963 99.7849 53.6741 99.7597 53.3512 99.7618C52.5187 99.7583 51.6947 99.9313 50.934 100.269C50.4689 100.07 49.9823 99.9247 49.4837 99.8377C49.1643 99.7849 48.8407 99.7593 48.5168 99.7618C47.1532 99.7614 45.8306 100.228 44.7691 101.084C43.7073 101.939 42.9704 103.132 42.681 104.465C42.4703 105.473 42.2148 106.616 41.9385 107.866C28.8166 99.192 23.1258 80.6382 23.7577 65.5721C23.958 60.565 24.2342 53.9729 26.427 48.8761C27.167 47.0597 28.2716 45.4143 29.6729 44.0416C35.8886 38.192 44.3972 35.5227 53.1717 35.1221C59.9064 35.4398 66.5343 36.9285 72.758 39.5214C84.3606 44.4215 96.4673 53.1096 93.7877 67.3539Z" fill="#8FC6EE"/>
<path d="M93.7875 67.3575C91.208 81.0493 82.6994 95.4627 72.3779 104.714C66.8529 109.666 60.1848 112.677 53.0057 112.711L54.3594 107.152C54.5503 106.35 54.5745 105.518 54.4298 104.706C54.2848 103.895 53.9747 103.122 53.5182 102.436C53.0617 101.75 52.4688 101.165 51.7764 100.718C51.084 100.271 50.3071 99.9715 49.4939 99.8379C49.1755 99.7851 48.8533 99.7599 48.5304 99.7619C47.164 99.7585 45.8377 100.224 44.7731 101.081C43.7084 101.937 42.9702 103.133 42.6808 104.469C42.3355 106.078 41.9038 108.036 41.4273 110.242C25.232 103.063 18.2393 82.2026 18.9403 65.5757C19.1372 60.5686 19.4134 53.9765 21.6096 48.8797C22.3483 47.0626 23.4533 45.4168 24.8556 44.0452C37.0832 32.5462 58.1233 33.3405 72.7578 39.5251C84.3569 44.4251 96.4671 53.1098 93.7875 67.3575Z" stroke="#080705" stroke-width="2" stroke-miterlimit="10"/>
<path d="M93.7185 67.8517C96.5121 71.1944 99.1331 76.7954 96.8264 85.1175C96.4717 86.4307 95.9641 87.6974 95.3139 88.8918C91.6466 95.4528 84.5677 96.6027 79.7954 96.5336" stroke="#080705" stroke-width="2" stroke-miterlimit="10"/>
<path d="M91.5915 74.8512C94.0087 77.745 96.2429 82.3273 95.3106 88.8987C95.1624 89.9536 94.9445 90.9975 94.6579 92.0238C91.2048 104.428 78.5282 103.816 74.1772 103.212" stroke="#080705" stroke-width="2" stroke-miterlimit="10"/>
<path d="M23.8922 91.9569C21.1919 92.5128 5.91166 89.3774 5.72519 76.6387C5.67028 74.9121 5.99592 73.1945 6.67826 71.6074C9.0713 66.2136 15.3837 64.5078 19.0198 63.9518" stroke="#080705" stroke-width="2" stroke-miterlimit="10"/>
<path d="M21.1437 85.5723C18.3811 85.7415 3.70177 80.5031 5.29368 67.8611C5.4836 66.1487 6.04578 64.4988 6.94083 63.0267C10.0487 58.0161 16.5544 57.2116 20.2286 57.1563" stroke="#080705" stroke-width="2" stroke-miterlimit="10"/>
<path d="M83.083 245.385C83.083 245.385 83.3972 242.985 85.1238 237.564" stroke="#080705" stroke-width="2" stroke-miterlimit="10"/>
<path d="M139.874 207.959V207.983C139.749 216.24 134.003 218.111 129.283 219.009C117.649 221.233 109.572 212.749 109.928 205.359" stroke="#080705" stroke-width="2" stroke-miterlimit="10"/>
<path d="M112.134 162.53C112.134 162.53 112.48 166.329 109.175 171.229C108.291 172.548 111.351 173.09 112.079 173.335" stroke="#080705" stroke-width="2" stroke-miterlimit="10"/>
<path d="M125.458 170.751C127.42 167.351 126.771 163.303 124.008 161.708C121.244 160.112 117.414 161.574 115.451 164.974C113.489 168.372 114.138 172.421 116.901 174.017C119.664 175.612 123.495 174.15 125.458 170.751Z" stroke="#080705" stroke-width="2" stroke-miterlimit="10"/>
<path d="M111.75 166.353C113.712 162.939 113.053 158.877 110.277 157.282C107.501 155.687 103.66 157.161 101.698 160.576C99.7351 163.991 100.395 168.052 103.17 169.647C105.946 171.243 109.787 169.768 111.75 166.353Z" stroke="#080705" stroke-width="2" stroke-miterlimit="10"/>
<path d="M106.968 159.101C107.545 159.096 108.112 159.245 108.612 159.533C109.076 159.818 109.47 160.205 109.764 160.664C110.058 161.124 110.244 161.644 110.307 162.185C110.495 163.535 110.214 164.909 109.51 166.076C108.474 167.855 106.747 169.001 105.038 169.001C104.462 169.008 103.894 168.86 103.394 168.573C102.93 168.287 102.536 167.9 102.243 167.441C101.949 166.982 101.763 166.462 101.699 165.921C101.511 164.57 101.793 163.195 102.496 162.026C103.532 160.251 105.259 159.101 106.968 159.101ZM106.968 158.065C104.972 158.065 102.856 159.336 101.606 161.518C99.8789 164.509 100.449 168.079 102.88 169.46C103.536 169.839 104.281 170.035 105.038 170.03C107.034 170.03 109.151 168.756 110.404 166.577C112.131 163.59 111.558 160.016 109.126 158.635C108.47 158.259 107.725 158.064 106.968 158.068V158.065Z" fill="#FCFEFF"/>
<path d="M110.402 166.582C112.128 163.593 111.558 160.032 109.128 158.63C106.699 157.227 103.33 158.513 101.604 161.503C99.878 164.492 100.448 168.053 102.878 169.455C105.307 170.858 108.676 169.572 110.402 166.582Z" fill="#8FC6EE"/>
<path d="M125.609 169.768C127.336 166.764 126.756 163.193 124.316 161.79C121.875 160.387 118.497 161.685 116.771 164.688C115.045 167.691 115.625 171.263 118.065 172.665C120.506 174.068 123.884 172.771 125.609 169.768Z" fill="#8FC6EE"/>
<path d="M112.089 163.783C112.089 163.783 113.125 162.24 115.463 164.971" stroke="#080705" stroke-width="2" stroke-miterlimit="10"/>
<path d="M122.254 167.556C122.817 166.82 122.766 165.836 122.142 165.359C121.517 164.883 120.555 165.093 119.993 165.83C119.43 166.567 119.48 167.55 120.105 168.027C120.729 168.504 121.692 168.293 122.254 167.556Z" fill="#3A3427"/>
<path d="M110.605 164.203C111.167 163.466 111.117 162.483 110.492 162.006C109.868 161.529 108.906 161.74 108.343 162.476C107.781 163.213 107.831 164.197 108.456 164.674C109.08 165.151 110.042 164.94 110.605 164.203Z" fill="#3A3427"/>
<path d="M119.179 179.491C112.107 185.499 108.395 180.147 108.395 180.147" stroke="#080705" stroke-width="2" stroke-miterlimit="10"/>
<path d="M44.2554 214.03C50.3709 212.936 56.5417 212.079 62.602 210.96C65.5579 210.417 68.5114 209.89 71.4628 209.379C84.6124 207.141 97.7413 205.401 111.036 205.346C111.678 205.346 112.298 205.114 112.783 204.693C113.267 204.271 113.582 203.689 113.671 203.053L113.916 201.212L115.466 189.737" stroke="#080705" stroke-width="2" stroke-miterlimit="10"/>
<path d="M137.38 190.655V190.6V190.324" stroke="#080705" stroke-width="2" stroke-miterlimit="10"/>
<path d="M2.88672 310.888H78.6317H87.199H160.589H174.339H266" stroke="#080705" stroke-width="2" stroke-miterlimit="10"/>
<path d="M170.824 252.837C170.824 252.837 172.454 269.046 174.878 284.875C176.474 295.29 178.425 305.536 180.462 310.888" stroke="#080705" stroke-width="2" stroke-miterlimit="10"/>
<path d="M174.878 284.875L175.199 284.788L175.689 284.654C178.279 283.922 180.893 283.272 183.542 282.727C183.963 282.637 184.384 282.561 184.806 282.482C187.759 281.937 190.753 281.645 193.756 281.608C195.086 281.608 196.36 281.563 197.579 281.497H197.655C202.762 281.207 207.03 280.389 210.597 279.17C216.423 277.188 220.356 274.142 222.96 270.617C222.98 270.596 222.991 270.561 223.015 270.541C224.909 267.913 226.23 264.916 226.893 261.745C226.888 261.731 226.888 261.715 226.893 261.701L226.927 261.535" stroke="#080705" stroke-width="2" stroke-miterlimit="10"/>
</svg>
