<svg width="306" height="320" viewBox="0 0 306 320" fill="none" xmlns="http://www.w3.org/2000/svg">
<path d="M80.9077 201.799C85.4464 191.466 88.312 179.543 88.5822 165.716C89.8938 98.0878 166.361 45.9002 251.186 103.262C336.011 160.625 261.042 318.431 261.042 318.431" stroke="#EBEAEA" stroke-width="2" stroke-miterlimit="10"/>
<path d="M21.6007 318.439C17.8529 315.494 -10.7188 287.558 6.44245 271.569C13.7752 264.745 29.5574 256.777 45.3674 244.627" stroke="#EBEAEA" stroke-width="2" stroke-miterlimit="10"/>
<path d="M226.058 148.927C226.366 150.527 227.174 151.989 228.367 153.1" stroke="#EBEAEA" stroke-width="2" stroke-miterlimit="10"/>
<path d="M159.455 179.647C158.867 179.802 158.37 179.913 157.977 180.004C157.683 180.056 157.44 180.108 157.274 180.132H157.238L157.007 180.171C157.007 180.171 156.983 180.144 156.968 180.144C152.993 177.226 154.213 171.797 154.213 171.797C166.097 173.669 168.561 164.043 168.561 164.043C168.406 159.429 167.527 157.259 165.5 156.011C163.382 154.684 160.004 154.342 154.841 153.229L153.987 153.038C146.308 151.294 142.727 143.412 141.312 139.041C140.983 138.072 140.717 137.083 140.518 136.08C131.822 139.347 126.377 143.973 123.241 147.442C122.001 122.845 146.69 126.378 146.69 126.378C150.844 126.438 154.973 127.041 158.971 128.175C159.877 128.572 160.743 128.969 161.57 129.367C161.967 129.57 162.389 129.788 162.762 130.015C163.136 130.241 163.557 130.464 163.923 130.69C164.189 130.845 164.459 131.012 164.718 131.187C170.149 134.634 174.49 139.551 177.237 145.368C177.276 145.446 177.31 145.527 177.34 145.61C177.465 145.879 177.575 146.155 177.67 146.437C183.258 170.887 166.017 177.886 159.455 179.647Z" fill="#8FC6EE"/>
<path d="M159.455 179.646C157.723 176.765 158.525 173.287 158.525 173.287C170.397 175.163 172.869 165.537 172.869 165.537C172.615 158.459 170.703 157.131 165.5 155.999C163.573 155.565 161.204 155.168 158.295 154.52C157.087 154.249 155.924 153.806 154.841 153.205C146.936 148.873 144.806 137.55 144.806 137.55C143.582 138.007 142.421 138.503 141.312 139.016C140.983 138.048 140.717 137.059 140.518 136.055C131.822 139.322 126.377 143.948 123.241 147.418C122.001 122.82 146.69 126.354 146.69 126.354C150.844 126.413 154.973 127.017 158.971 128.15C159.877 128.548 160.743 128.945 161.57 129.342C161.967 129.545 162.389 129.764 162.762 129.99C163.136 130.217 163.557 130.439 163.923 130.666C164.189 130.821 164.459 130.988 164.718 131.163C170.149 134.61 174.49 139.527 177.237 145.343C177.276 145.422 177.31 145.503 177.34 145.586C177.465 145.855 177.575 146.131 177.67 146.412C183.258 170.887 166.017 177.885 159.455 179.646Z" fill="#8FC6EE"/>
<path d="M201.125 288.501C202.962 300.487 205.207 312.279 207.552 318.44H102.148C89.4575 282.408 95.4747 243.046 95.4747 243.046L76.7554 243.634C88.0148 223.881 84.0086 207.181 82.1089 201.609C96.814 199.109 111.519 197.145 126.379 196.979C125.982 205.484 135.266 215.261 148.656 212.689C154.085 211.656 160.702 209.51 160.845 199.999L164.339 200.611C169.171 201.406 173.543 202.256 177.689 203.214C188.419 205.686 197.64 208.778 209.13 212.689C193.232 224.457 201.133 251.638 201.133 251.638L201.531 252.544L196.456 251.638C196.456 251.638 198.335 270.282 201.125 288.501Z" fill="#3A3427"/>
<path d="M236.447 188.103V188.167L235.465 210.733L234.916 223.097C234.916 222.64 234.94 222.167 234.968 221.71C228.184 219.441 219.468 216.214 212.743 213.932C199.509 209.418 189.537 205.948 177.681 203.222C176.966 199.768 176.29 192.36 179.617 181.545C184.386 166.117 185.956 150.462 183.532 147.437C183.509 147.403 183.479 147.373 183.444 147.35C181.719 141.13 177.157 145.156 177.157 145.156C177.157 145.156 177.185 145.219 177.197 145.255C176.247 143.681 175.204 142.166 174.073 140.716C174.111 140.492 174.17 140.271 174.252 140.057C175.718 135.645 183.532 134.584 183.532 134.584C194.97 135.427 200.987 140.526 204.024 147.223C206.698 155.676 205.121 164.841 204.775 173.513C204.636 177.273 204.099 183.052 206.969 186.096C209.62 191.108 216.289 188.942 218.097 188.393C218.685 188.226 220.211 188.123 222.214 188.059C226.296 187.96 232.301 188.035 235.962 188.099C236.141 188.103 236.296 188.103 236.447 188.103Z" fill="#8FC6EE"/>
<path d="M261.021 261.607C261.019 261.676 261.011 261.745 260.997 261.814C260.991 261.83 260.991 261.849 260.997 261.865C260.438 265.577 258.897 269.072 256.534 271.988C256.506 272.012 256.494 272.052 256.47 272.075C252.838 276.602 247.572 279.869 242.242 281.92C236.797 284.038 231.277 284.893 227.346 284.599H227.259C222.45 284.241 217.172 284.865 212.554 285.731C212.069 285.823 211.584 285.91 211.099 286.014C208.051 286.626 205.042 287.389 202.061 288.231L201.501 288.386L201.127 288.486C198.345 270.267 196.461 251.611 196.461 251.611L253.295 261.71C255.853 262.174 258.476 262.139 261.021 261.607Z" fill="#8FC6EE"/>
<path d="M144.307 175.006C141.318 177.971 137.316 178.543 133.385 179.417C124.455 181.405 116.967 179.147 116.574 168.881C116.319 162.276 117.019 155.667 121.017 150.182C125.806 143.612 133.163 139.236 140.491 136.041C140.491 136.041 143.854 153.242 159.171 153.989C174.488 154.737 170.76 174.93 152.812 171.564" stroke="#080705" stroke-width="2" stroke-miterlimit="10"/>
<path d="M155.82 180.171C156.217 180.171 156.583 180.171 156.953 180.143C157.042 180.137 157.133 180.137 157.223 180.143H157.259L157.962 180.079" stroke="#080705" stroke-width="2" stroke-miterlimit="10"/>
<path d="M172.798 138.144C170.286 135.158 167.285 132.622 163.923 130.644C163.549 130.398 163.162 130.172 162.762 129.968C162.365 129.742 161.968 129.523 161.57 129.321C160.732 128.887 159.861 128.478 158.971 128.128C153.715 125.928 148.072 124.802 142.374 124.818C111.724 124.818 120.241 151.339 120.241 151.339" stroke="#080705" stroke-width="2" stroke-miterlimit="10"/>
<path d="M177.879 202.957C176.821 197.322 178.145 188.55 179.612 181.536C180.927 175.288 182.366 170.443 182.366 170.443C184.536 157.693 184.444 150.857 183.439 147.34C181.714 141.128 177.151 145.154 177.151 145.154" stroke="#080705" stroke-width="2" stroke-miterlimit="10"/>
<path d="M183.444 147.342C181.719 141.13 177.157 145.156 177.157 145.156C176.368 143.36 175.394 141.651 174.251 140.057C173.79 139.416 173.306 138.79 172.797 138.181C174.16 134.56 177.797 132.402 181.54 132.112C191.369 131.357 201.059 137.863 204.02 147.215C206.694 155.668 205.116 164.833 204.771 173.505C204.632 177.265 204.095 183.044 206.965 186.088C207.116 186.243 207.259 186.382 207.422 186.522C209.806 188.576 213.606 188.692 218.109 188.386C219.42 188.294 220.799 188.183 222.226 188.052C226.598 187.654 231.367 187.312 235.974 188.091L236.431 188.167C236.291 195.679 235.83 203.214 235.449 210.726C235.246 214.382 235.051 218.042 234.952 221.703C228.168 219.433 219.452 216.206 212.727 213.925L209.142 212.689C197.653 208.774 188.448 205.686 177.701 203.214C173.556 202.256 169.184 201.402 164.351 200.611L159.212 199.709C158.868 199.649 158.556 199.468 158.332 199.199C158.108 198.931 157.986 198.592 157.988 198.242V180.059C161.42 179.768 164.738 178.686 167.682 176.899C170.626 175.112 173.117 172.668 174.959 169.758C179.931 161.761 180.404 153.578 177.685 146.396C177.588 146.109 177.476 145.828 177.347 145.554C177.318 145.471 177.283 145.39 177.244 145.311C177.244 145.287 177.22 145.248 177.208 145.22" stroke="#080705" stroke-width="2" stroke-miterlimit="10"/>
<path d="M50.7822 212.687C52.372 200.367 53.1033 187.835 54.6453 175.443" stroke="#080705" stroke-width="2" stroke-miterlimit="10"/>
<path d="M54.9009 173.515C55.3341 170.16 55.8468 166.806 56.4906 163.491C56.5145 163.328 56.5423 163.173 56.5781 163.022C56.9358 161.059 57.3332 159.108 57.7704 157.156C59.0978 151.318 63.7319 147.045 67.0267 142.288L67.2294 141.779C74.3375 131.438 78.273 119.247 78.5524 106.701C78.6318 102.163 78.453 93.1885 73.2506 91.3364C70.3294 90.2912 67.2294 92.334 65.6118 94.667C64.9473 95.6299 64.4131 96.6764 64.0221 97.7789" stroke="#080705" stroke-width="2" stroke-miterlimit="10"/>
<path d="M102.147 318.432C89.457 282.4 95.4742 243.038 95.4742 243.038L76.7589 243.626L27.3893 245.192C24.4896 245.288 21.6034 244.76 18.9254 243.644C16.2471 242.528 13.8398 240.851 11.8662 238.725C9.89209 236.598 8.39772 234.074 7.48362 231.32C6.56951 228.567 6.25713 225.649 6.56753 222.764L21.233 169.226" stroke="#080705" stroke-width="2" stroke-miterlimit="10"/>
<path d="M21.9434 166.619L23.2311 161.929L24.7254 156.611" stroke="#080705" stroke-width="2" stroke-miterlimit="10"/>
<path d="M25.9938 152.04L26.8483 148.968C27.9802 144.889 27.7 140.548 26.0534 136.647L24.3563 132.594C23.2475 129.215 22.9017 127.582 24.2927 124.279C24.9509 122.721 25.8749 121.289 27.0231 120.046C30.3735 116.35 35.0911 114.514 39.9518 113.886C44.8124 113.258 50.1778 113.747 54.0886 116.899C56.7435 119.037 59.2553 124.128 57.5185 127.455C56.2586 129.875 53.5918 130.579 51.3225 129.712C50.5284 129.415 49.813 128.939 49.2319 128.321C46.5532 125.515 40.8857 124.903 38.8986 127.634" stroke="#080705" stroke-width="2" stroke-miterlimit="10"/>
<path d="M234.842 226.167C234.842 225.17 234.878 224.18 234.917 223.171V223.091C234.917 222.634 234.941 222.161 234.969 221.704" stroke="#080705" stroke-width="2" stroke-miterlimit="10"/>
<path d="M229.736 130.702C225.082 133.19 219.367 139.446 229.008 154.151C232.188 158.996 235.546 164.234 236.019 170.215C236.46 176.193 236.601 182.188 236.44 188.18" stroke="#080705" stroke-width="2" stroke-miterlimit="10"/>
<path d="M184.599 249.517L195.664 251.48L196.459 251.619L201.534 252.525L253.284 261.718C255.846 262.184 258.474 262.149 261.022 261.615C265.448 260.683 269.435 258.3 272.352 254.844C275.268 251.388 276.948 247.057 277.122 242.538L269.476 179.937L267.783 166.575C267.245 162.373 268.148 158.113 270.342 154.489L272.612 150.714C272.612 150.714 276.562 144.951 269.651 144.53C265.927 144.311 262.052 145.324 258.685 146.851C256.762 147.705 254.059 149.235 252.974 151.338C252.533 152.133 252.384 153.059 252.553 153.953C253.348 158.058 258.514 159.791 261.924 158.058" stroke="#080705" stroke-width="2" stroke-miterlimit="10"/>
<path d="M271.931 144.838C271.931 144.838 275.838 142.513 273.195 136.794C272.257 134.759 269.415 133.348 263.298 133.738C247.004 134.775 240.621 151.531 252.993 151.348" stroke="#080705" stroke-width="2" stroke-miterlimit="10"/>
<path d="M268.219 133.712C271.836 128.729 265.437 123.959 260.776 124.122C256.38 124.277 251.933 125.903 248.081 127.938C242.724 130.767 235.809 136.248 237.788 143.183C238.372 145.226 242.994 147.75 246.015 146.291" stroke="#080705" stroke-width="2" stroke-miterlimit="10"/>
<path d="M237.452 140.72C237.452 140.72 237.452 140.72 237.452 140.744C234.929 145.565 222.982 140.744 229.726 130.708C231.302 128.488 233.191 126.508 235.334 124.83C252.153 111.087 255.913 125.061 255.889 124.23" stroke="#080705" stroke-width="2" stroke-miterlimit="10"/>
<path d="M244.768 146.403C244.768 146.403 250.92 150.775 249.032 158.06" stroke="#080705" stroke-width="2" stroke-miterlimit="10"/>
<path d="M28.1647 111.419C27.7673 109.853 27.8189 107.878 28.7489 105.35C30.0883 101.718 33.9911 99.3331 37.7906 97.7632C39.1777 97.1909 40.5727 96.7179 41.765 96.3483C45.9103 95.0765 50.4609 94.4009 54.8804 94.846C56.37 94.9903 57.8425 95.2725 59.2801 95.6886C60.9382 96.1667 62.5248 96.8646 63.9977 97.7632C67.6302 99.9968 70.0904 103.387 71.5688 107.838C72.8565 111.678 73.3533 116.24 70.1659 118.637" stroke="#080705" stroke-width="2" stroke-miterlimit="10"/>
<path d="M70.4568 169.727L69.2843 175.403C69.2454 175.594 69.1687 175.775 69.0582 175.935C68.9477 176.096 68.8062 176.232 68.6421 176.337C68.4775 176.441 68.2939 176.512 68.102 176.544C67.9096 176.576 67.7129 176.569 67.5237 176.523C63.0128 175.454 59.0583 174.461 54.9011 173.503C52.8384 173.018 50.7081 172.561 48.4507 172.088C39.6276 170.264 30.8164 168.205 21.9456 166.615C18.2375 165.951 14.5254 165.375 10.7895 164.942C8.69898 164.7 6.58065 164.6 4.47821 164.445C4.01877 164.435 3.57324 164.284 3.20243 164.012C1.21524 162.557 3.20243 157.828 3.63564 155.864C3.63564 155.841 3.63564 155.813 3.63564 155.789C3.94166 154.283 12.5978 154.716 24.6998 156.604C28.9206 157.267 33.5587 158.094 38.4193 159.092C45.2513 160.495 51.4116 162.009 56.4471 163.463C57.3135 163.718 58.1442 163.96 58.9351 164.203C58.9351 164.203 58.9351 164.203 58.9589 164.203C59.9644 164.521 60.9103 164.827 61.8006 165.133C67.4243 167.052 70.6634 168.722 70.4568 169.727Z" fill="#8FC6EE"/>
<path d="M70.4568 169.727L69.2843 175.403C69.2454 175.594 69.1687 175.775 69.0582 175.935C68.9477 176.096 68.8062 176.232 68.6421 176.337C68.4775 176.441 68.2939 176.512 68.102 176.544C67.9096 176.576 67.7129 176.569 67.5237 176.523C63.0128 175.454 59.0583 174.461 54.9011 173.503C52.8384 173.018 50.7081 172.561 48.4507 172.088C39.6276 170.264 30.8164 168.205 21.9456 166.615C18.2375 165.951 14.5254 165.375 10.7895 164.942C8.69898 164.7 6.58065 164.6 4.47821 164.445C4.01877 164.435 3.57324 164.284 3.20243 164.012C1.21524 162.557 3.20243 157.828 3.63564 155.864C3.63564 155.841 3.63564 155.813 3.63564 155.789C3.94166 154.283 12.5978 154.716 24.6998 156.604C28.9206 157.267 33.5587 158.094 38.4193 159.092C45.2513 160.495 51.4116 162.009 56.4471 163.463C57.3135 163.718 58.1442 163.96 58.9351 164.203C58.9351 164.203 58.9351 164.203 58.9589 164.203C59.9644 164.521 60.9103 164.827 61.8006 165.133C67.4243 167.052 70.6634 168.722 70.4568 169.727Z" stroke="#080705" stroke-width="2" stroke-miterlimit="10"/>
<path d="M58.0836 124.395L59.2123 126.656C60.6312 128.21 62.5945 129.192 65.2851 128.516C70.5631 127.204 71.0837 122.829 70.1657 118.648C70.0079 117.889 69.8036 117.14 69.5536 116.406C68.3176 112.718 66.4059 109.749 63.7272 107.583C61.8239 106.042 59.6244 104.909 57.2649 104.252C55.3424 103.697 53.3588 103.381 51.3589 103.311C47.4295 103.175 43.506 103.713 39.7578 104.9C36.0099 106.049 30.883 108.024 28.1566 111.414C27.5457 112.159 27.0624 113 26.7258 113.902C25.8872 116.184 25.7441 118.032 26.0382 119.526L26.3204 120.917" stroke="#080705" stroke-width="2" stroke-miterlimit="10"/>
<path d="M59.5433 95.7814L60.8549 90.3484L62.4128 83.9497C62.6326 83.0268 62.6604 82.069 62.4939 81.135C62.3274 80.2014 61.9701 79.3119 61.4447 78.5222C60.9193 77.7325 60.2368 77.0593 59.44 76.545C58.6431 76.0303 57.7489 75.6857 56.8129 75.5319C56.4465 75.4711 56.0757 75.4421 55.7041 75.4445C54.1314 75.4405 52.6049 75.9762 51.3796 76.9623C50.1547 77.9483 49.3045 79.3247 48.9715 80.8616C48.5741 82.7136 48.0773 84.9671 47.5288 87.5067C47.0082 89.9152 46.4319 92.5542 45.8198 95.3362" stroke="#080705" stroke-width="2" stroke-miterlimit="10"/>
<path d="M43.978 103.888V103.873" stroke="#080705" stroke-width="2" stroke-miterlimit="10"/>
<path d="M38.9142 127.626C38.5167 129.577 38.2902 130.805 38.3021 131.016C38.3021 131.016 38.3021 131.016 38.3021 131.044C36.5812 142.609 31.5178 148.794 26.0094 152.017C22.6403 153.934 18.8774 155.055 15.0083 155.296" stroke="#080705" stroke-width="2" stroke-miterlimit="10"/>
<path d="M51.3582 129.704C51.3582 129.704 42.1297 154.302 56.5607 163.021C57.3238 163.48 58.121 163.878 58.9453 164.214C59.9329 164.624 60.9524 164.952 61.9936 165.195" stroke="#080705" stroke-width="2" stroke-miterlimit="10"/>
<path d="M68.5238 176.416C68.5238 176.416 68.5874 177.552 54.6493 175.45C49.8801 174.734 43.4694 173.637 34.849 171.98C29.4439 170.947 24.9528 170.029 21.2328 169.238C1.68684 165.057 3.20108 164.023 3.20108 164.023" stroke="#080705" stroke-width="2" stroke-miterlimit="10"/>
<path d="M107.793 38.1535C104.821 53.9119 95.0277 70.501 83.1522 81.1484C78.2955 85.5202 72.648 88.5685 66.5513 89.7688C64.6805 90.1491 62.7768 90.3451 60.8679 90.353L62.4139 83.9582C62.7935 82.3832 62.6083 80.7251 61.8909 79.2724C61.1731 77.8198 59.9689 76.6653 58.4873 76.0095C57.9519 75.7798 57.3919 75.6128 56.818 75.5127C56.4504 75.4519 56.078 75.4225 55.7052 75.4253C54.1294 75.4229 52.6004 75.9618 51.3743 76.9522C50.1486 77.943 49.3009 79.3249 48.9726 80.8662C48.7302 82.0267 48.4361 83.3422 48.1181 84.7809C33.0155 74.7973 26.4657 53.443 27.193 36.1027C27.4235 30.3399 27.7415 22.7528 30.2652 16.8866C31.1169 14.7961 32.3883 12.9023 34.0011 11.3225C41.155 4.58987 50.9479 1.51767 61.0468 1.05664C68.798 1.42228 76.4264 3.13564 83.5894 6.12C96.9433 11.7596 110.877 21.7592 107.793 38.1535Z" fill="#8FC6EE"/>
<path d="M107.793 38.1535C104.821 53.9119 95.0277 70.501 83.1522 81.1483C78.2955 85.5202 72.648 88.5685 66.5513 89.7688L67.9622 83.9582C68.1819 83.0358 68.2098 82.0776 68.0432 81.1436C67.8763 80.21 67.5194 79.3205 66.994 78.5308C66.4686 77.7411 65.7862 77.0678 64.9893 76.5536C64.1925 76.0393 63.2982 75.6943 62.3623 75.5405C61.9958 75.4797 61.625 75.4507 61.2534 75.4531C60.2952 75.4491 59.3469 75.6482 58.4714 76.0373C57.936 75.8076 57.376 75.6407 56.8021 75.5405C56.4345 75.4797 56.0621 75.4503 55.6893 75.4531C54.1198 75.4527 52.5976 75.9896 51.3759 76.9745C50.1538 77.9593 49.3057 79.3324 48.9726 80.8662C48.7302 82.0267 48.4361 83.3422 48.1181 84.7809C33.0155 74.7973 26.4657 53.4429 27.193 36.1027C27.4235 30.3399 27.7415 22.7528 30.2652 16.8866C31.1169 14.7961 32.3883 12.9023 34.0011 11.3225C41.155 4.58986 50.9479 1.51767 61.0468 1.05664C68.798 1.42228 76.4264 3.13563 83.5894 6.12C96.9433 11.7596 110.877 21.7592 107.793 38.1535Z" fill="#8FC6EE"/>
<path d="M107.79 38.1505C104.821 53.9089 95.0281 70.498 83.1487 81.1453C76.7897 86.8446 69.1152 90.3103 60.8525 90.35L62.4104 83.9513C62.6302 83.0288 62.658 82.0706 62.4915 81.1366C62.3246 80.203 61.9677 79.3135 61.4423 78.5238C60.9169 77.7341 60.2345 77.0609 59.4376 76.5466C58.6407 76.0319 57.7465 75.6873 56.8106 75.5335C56.4441 75.4727 56.0733 75.4437 55.7017 75.4461C54.129 75.4421 52.6025 75.9783 51.3772 76.9639C50.1519 77.9499 49.3022 79.3263 48.9691 80.8632C48.5717 82.7152 48.0749 84.9687 47.5264 87.5083C28.8866 79.2456 20.8385 55.2364 21.6453 36.0997C21.8718 30.3369 22.1898 22.7498 24.7175 16.8836C25.5676 14.7923 26.8394 12.8981 28.4534 11.3194C42.5267 -1.91525 66.7425 -1.00114 83.5859 6.11698C96.9358 11.7566 110.874 21.7522 107.79 38.1505Z" stroke="#080705" stroke-width="2" stroke-miterlimit="10"/>
<path d="M107.713 38.7109C110.928 42.5581 113.944 49.0046 111.29 58.5828C110.881 60.0943 110.297 61.5521 109.549 62.9268C105.328 70.4782 97.1806 71.8016 91.688 71.7221" stroke="#080705" stroke-width="2" stroke-miterlimit="10"/>
<path d="M105.266 46.7686C108.048 50.0991 110.62 55.3731 109.547 62.9363C109.376 64.1505 109.126 65.352 108.796 66.5331C104.821 80.8091 90.2313 80.1056 85.2236 79.4101" stroke="#080705" stroke-width="2" stroke-miterlimit="10"/>
<path d="M27.3467 66.4529C24.2387 67.0928 6.65213 63.4841 6.43751 48.8226C6.37432 46.8354 6.74911 44.8585 7.53444 43.0319C10.2887 36.8239 17.5538 34.8606 21.7388 34.2207" stroke="#080705" stroke-width="2" stroke-miterlimit="10"/>
<path d="M24.1836 59.1202C21.0041 59.315 4.10905 53.2858 5.94124 38.7356C6.15983 36.7647 6.80686 34.8658 7.83701 33.1715C11.414 27.4047 18.9017 26.4786 23.1304 26.415" stroke="#080705" stroke-width="2" stroke-miterlimit="10"/>
<path d="M95.4712 243.049C95.4712 243.049 95.8329 240.287 97.82 234.047" stroke="#080705" stroke-width="2" stroke-miterlimit="10"/>
<path d="M160.832 199.975V200.003C160.689 209.506 154.075 211.66 148.642 212.693C135.253 215.253 125.957 205.488 126.366 196.982" stroke="#080705" stroke-width="2" stroke-miterlimit="10"/>
<path d="M128.905 147.689C128.905 147.689 129.303 152.061 125.499 157.701C124.482 159.219 128.003 159.843 128.842 160.125" stroke="#080705" stroke-width="2" stroke-miterlimit="10"/>
<path d="M144.239 157.143C146.497 153.23 145.75 148.571 142.57 146.735C139.39 144.898 134.981 146.581 132.722 150.493C130.464 154.405 131.21 159.065 134.391 160.902C137.571 162.737 141.98 161.055 144.239 157.143Z" stroke="#080705" stroke-width="2" stroke-miterlimit="10"/>
<path d="M128.464 152.084C130.723 148.154 129.964 143.48 126.769 141.644C123.575 139.807 119.154 141.505 116.895 145.435C114.636 149.365 115.395 154.039 118.59 155.875C121.785 157.712 126.206 156.014 128.464 152.084Z" stroke="#080705" stroke-width="2" stroke-miterlimit="10"/>
<path d="M122.962 143.75C123.625 143.744 124.278 143.915 124.853 144.247C125.388 144.575 125.841 145.021 126.18 145.549C126.517 146.078 126.731 146.676 126.805 147.299C127.021 148.853 126.697 150.434 125.887 151.778C124.694 153.825 122.707 155.144 120.74 155.144C120.077 155.152 119.423 154.982 118.848 154.652C118.314 154.323 117.861 153.877 117.523 153.349C117.185 152.82 116.971 152.223 116.897 151.599C116.681 150.044 117.005 148.462 117.815 147.116C119.007 145.073 120.994 143.75 122.962 143.75ZM122.962 142.558C120.664 142.558 118.228 144.02 116.789 146.532C114.802 149.974 115.458 154.083 118.256 155.673C119.011 156.108 119.868 156.335 120.74 156.329C123.037 156.329 125.473 154.862 126.916 152.354C128.903 148.917 128.244 144.803 125.446 143.213C124.69 142.781 123.832 142.556 122.962 142.562V142.558Z" fill="#FCFEFF"/>
<path d="M126.914 152.36C128.9 148.919 128.244 144.821 125.447 143.207C122.651 141.593 118.774 143.073 116.788 146.514C114.801 149.954 115.458 154.052 118.254 155.667C121.05 157.281 124.927 155.801 126.914 152.36Z" fill="#8FC6EE"/>
<path d="M144.419 156.021C146.406 152.564 145.739 148.454 142.93 146.839C140.121 145.225 136.233 146.718 134.247 150.174C132.26 153.631 132.927 157.742 135.736 159.356C138.545 160.97 142.433 159.477 144.419 156.021Z" fill="#8FC6EE"/>
<path d="M128.853 149.127C128.853 149.127 130.045 147.351 132.735 150.494" stroke="#080705" stroke-width="2" stroke-miterlimit="10"/>
<path d="M140.552 153.476C141.199 152.628 141.141 151.496 140.423 150.947C139.704 150.398 138.596 150.641 137.949 151.489C137.302 152.337 137.36 153.469 138.079 154.017C138.797 154.566 139.905 154.324 140.552 153.476Z" fill="#3A3427"/>
<path d="M127.144 149.614C127.791 148.767 127.733 147.634 127.014 147.085C126.296 146.537 125.188 146.779 124.541 147.627C123.893 148.475 123.951 149.607 124.67 150.156C125.389 150.705 126.497 150.463 127.144 149.614Z" fill="#3A3427"/>
<path d="M137.016 167.211C128.877 174.126 124.604 167.966 124.604 167.966" stroke="#080705" stroke-width="2" stroke-miterlimit="10"/>
<path d="M50.7822 206.96C57.8208 205.7 64.923 204.714 71.8981 203.427C75.3001 202.801 78.6994 202.194 82.0963 201.606C97.2307 199.031 112.341 197.028 127.643 196.964C128.381 196.965 129.096 196.698 129.653 196.213C130.21 195.727 130.573 195.057 130.675 194.325L130.957 192.207L132.742 179" stroke="#080705" stroke-width="2" stroke-miterlimit="10"/>
<path d="M157.966 180.056V179.993V179.675" stroke="#080705" stroke-width="2" stroke-miterlimit="10"/>
<path d="M3.17285 318.437H90.3506H100.211H184.678H200.504H306" stroke="#080705" stroke-width="2" stroke-miterlimit="10"/>
<path d="M196.458 251.627C196.458 251.627 198.334 270.283 201.124 288.501C202.961 300.488 205.206 312.28 207.551 318.44" stroke="#080705" stroke-width="2" stroke-miterlimit="10"/>
<path d="M201.12 288.503L201.49 288.404L202.054 288.249C205.035 287.407 208.043 286.659 211.092 286.031C211.577 285.928 212.062 285.841 212.546 285.749C215.946 285.122 219.392 284.786 222.848 284.744C224.378 284.744 225.845 284.692 227.248 284.617H227.335C233.213 284.283 238.126 283.341 242.231 281.938C248.936 279.656 253.463 276.151 256.459 272.093C256.483 272.069 256.495 272.03 256.523 272.006C258.703 268.981 260.223 265.533 260.986 261.883C260.98 261.866 260.98 261.848 260.986 261.831L261.026 261.641" stroke="#080705" stroke-width="2" stroke-miterlimit="10"/>
</svg>
