<svg width="319" height="319" viewBox="0 0 319 319" fill="none" xmlns="http://www.w3.org/2000/svg">
<g clip-path="url(#clip0_13_1375)">
<mask id="mask0_13_1375" style="mask-type:luminance" maskUnits="userSpaceOnUse" x="0" y="0" width="319" height="319">
<path d="M319 0H0V319H319V0Z" fill="white"/>
</mask>
<g mask="url(#mask0_13_1375)">
<path d="M298.607 301.289L296.983 305.704" stroke="#B4C4D1" stroke-width="2" stroke-miterlimit="10"/>
<path d="M293.506 315.166L281.763 347.091" stroke="#B4C4D1" stroke-width="2" stroke-miterlimit="10" stroke-dasharray="28.96 31.6 31.6 28.96"/>
<path d="M295.563 273.757L293.956 278.178" stroke="#B4C4D1" stroke-width="2" stroke-miterlimit="10"/>
<path d="M290.699 287.145L279.709 317.405" stroke="#B4C4D1" stroke-width="2" stroke-miterlimit="10" stroke-dasharray="27.41 29.9 29.9 27.41"/>
<path d="M295.984 241.023L294.38 245.445" stroke="#B4C4D1" stroke-width="2" stroke-miterlimit="10"/>
<path d="M291.065 254.601L279.868 285.493" stroke="#B4C4D1" stroke-width="2" stroke-miterlimit="10" stroke-dasharray="27.98 30.52 30.52 27.98"/>
<path d="M278.347 289.691L163.762 605.877" stroke="#B4C4D1" stroke-width="2" stroke-miterlimit="10" stroke-dasharray="30.52 30.52 27.98 30.52 30.52 27.98"/>
<path d="M292.938 213.488L291.33 217.91" stroke="#B4C4D1" stroke-width="2" stroke-miterlimit="10"/>
<path d="M288.23 226.417L277.77 255.133" stroke="#B4C4D1" stroke-width="2" stroke-miterlimit="10" stroke-dasharray="26.02 28.39 28.39 26.02"/>
<path d="M276.35 259.032L169.303 552.923" stroke="#B4C4D1" stroke-width="2" stroke-miterlimit="10" stroke-dasharray="28.39 28.39 26.02 28.39 28.39 26.02"/>
<path d="M249.104 294.361L247.487 298.779" stroke="#B4C4D1" stroke-width="2" stroke-miterlimit="10"/>
<path d="M244.348 307.36L233.757 336.325" stroke="#B4C4D1" stroke-width="2" stroke-miterlimit="10" stroke-dasharray="26.26 28.64 28.64 26.26"/>
<path d="M246.058 266.827L244.44 271.245" stroke="#B4C4D1" stroke-width="2" stroke-miterlimit="10"/>
<path d="M241.19 280.115L230.219 310.043" stroke="#B4C4D1" stroke-width="2" stroke-miterlimit="10" stroke-dasharray="27.14 29.61 29.61 27.14"/>
<path d="M228.73 314.11L154.387 516.975" stroke="#B4C4D1" stroke-width="2" stroke-miterlimit="10" stroke-dasharray="29.61 29.61 27.14 29.61 29.61 27.14"/>
<path d="M243.014 239.295L241.391 243.71" stroke="#B4C4D1" stroke-width="2" stroke-miterlimit="10"/>
<path d="M237.91 253.168L226.168 285.093" stroke="#B4C4D1" stroke-width="2" stroke-miterlimit="10" stroke-dasharray="28.96 31.6 31.6 28.96"/>
<path d="M224.573 289.429L165.287 450.632" stroke="#B4C4D1" stroke-width="2" stroke-miterlimit="10" stroke-dasharray="31.6 31.6 28.96 31.6 31.6 28.96"/>
<path d="M239.968 211.759L238.363 216.18" stroke="#B4C4D1" stroke-width="2" stroke-miterlimit="10"/>
<path d="M235.107 225.147L224.114 255.407" stroke="#B4C4D1" stroke-width="2" stroke-miterlimit="10" stroke-dasharray="27.41 29.9 29.9 27.41"/>
<path d="M222.624 259.519L129.131 516.924" stroke="#B4C4D1" stroke-width="2" stroke-miterlimit="10" stroke-dasharray="29.9 29.9 27.41 29.9 29.9 27.41"/>
<path d="M236.924 184.226L235.32 188.651" stroke="#B4C4D1" stroke-width="2" stroke-miterlimit="10"/>
<path d="M232.002 197.802L220.809 228.697" stroke="#B4C4D1" stroke-width="2" stroke-miterlimit="10" stroke-dasharray="27.98 30.52 30.52 27.98"/>
<path d="M219.287 232.892L104.699 549.082" stroke="#B4C4D1" stroke-width="2" stroke-miterlimit="10" stroke-dasharray="30.52 30.52 27.98 30.52 30.52 27.98"/>
<path d="M233.878 156.692L232.267 161.111" stroke="#B4C4D1" stroke-width="2" stroke-miterlimit="10"/>
<path d="M229.169 169.622L218.709 198.335" stroke="#B4C4D1" stroke-width="2" stroke-miterlimit="10" stroke-dasharray="26.02 28.39 28.39 26.02"/>
<path d="M217.29 202.236L110.24 496.125" stroke="#B4C4D1" stroke-width="2" stroke-miterlimit="10" stroke-dasharray="28.39 28.39 26.02 28.39 28.39 26.02"/>
<path d="M173.702 284.321L172.084 288.739" stroke="#B4C4D1" stroke-width="2" stroke-miterlimit="10"/>
<path d="M168.946 297.324L158.355 326.286" stroke="#B4C4D1" stroke-width="2" stroke-miterlimit="10" stroke-dasharray="26.26 28.64 28.64 26.26"/>
<path d="M170.655 256.789L169.038 261.207" stroke="#B4C4D1" stroke-width="2" stroke-miterlimit="10"/>
<path d="M165.788 270.075L154.82 300.006" stroke="#B4C4D1" stroke-width="2" stroke-miterlimit="10" stroke-dasharray="27.14 29.61 29.61 27.14"/>
<path d="M153.331 304.07L78.9844 506.936" stroke="#B4C4D1" stroke-width="2" stroke-miterlimit="10" stroke-dasharray="29.61 29.61 27.14 29.61 29.61 27.14"/>
<path d="M167.612 229.256L165.989 233.671" stroke="#B4C4D1" stroke-width="2" stroke-miterlimit="10"/>
<path d="M162.509 243.129L150.766 275.055" stroke="#B4C4D1" stroke-width="2" stroke-miterlimit="10" stroke-dasharray="28.96 31.6 31.6 28.96"/>
<path d="M149.174 279.39L89.8848 440.593" stroke="#B4C4D1" stroke-width="2" stroke-miterlimit="10" stroke-dasharray="31.6 31.6 28.96 31.6 31.6 28.96"/>
<path d="M164.566 201.72L162.961 206.145" stroke="#B4C4D1" stroke-width="2" stroke-miterlimit="10"/>
<path d="M159.704 215.108L148.715 245.372" stroke="#B4C4D1" stroke-width="2" stroke-miterlimit="10" stroke-dasharray="27.41 29.9 29.9 27.41"/>
<path d="M147.222 249.48L53.7295 506.885" stroke="#B4C4D1" stroke-width="2" stroke-miterlimit="10" stroke-dasharray="29.9 29.9 27.41 29.9 29.9 27.41"/>
<path d="M161.523 174.186L159.918 178.611" stroke="#B4C4D1" stroke-width="2" stroke-miterlimit="10"/>
<path d="M156.6 187.764L145.407 218.659" stroke="#B4C4D1" stroke-width="2" stroke-miterlimit="10" stroke-dasharray="27.98 30.52 30.52 27.98"/>
<path d="M143.885 222.854L29.3003 539.043" stroke="#B4C4D1" stroke-width="2" stroke-miterlimit="10" stroke-dasharray="30.52 30.52 27.98 30.52 30.52 27.98"/>
<path d="M158.476 146.654L156.868 151.072" stroke="#B4C4D1" stroke-width="2" stroke-miterlimit="10"/>
<path d="M153.768 159.584L143.308 188.297" stroke="#B4C4D1" stroke-width="2" stroke-miterlimit="10" stroke-dasharray="26.02 28.39 28.39 26.02"/>
<path d="M141.888 192.197L34.8379 486.086" stroke="#B4C4D1" stroke-width="2" stroke-miterlimit="10" stroke-dasharray="28.39 28.39 26.02 28.39 28.39 26.02"/>
<path d="M156.428 133.298C156.428 133.298 171.53 116.072 202.658 131.014C229.999 144.134 237.244 170.365 237.244 170.365" stroke="#B4C4D1" stroke-width="2" stroke-miterlimit="10"/>
<path d="M272.573 269.284L272.752 269.185C273.806 268.543 274.771 267.765 275.623 266.872C276.734 267.307 277.916 267.536 279.109 267.548C280.42 267.566 281.721 267.326 282.938 266.841C284.156 266.357 285.266 265.637 286.205 264.723C287.145 263.809 287.895 262.719 288.413 261.515C288.931 260.311 289.207 259.017 289.225 257.707C289.23 257.017 289.167 256.327 289.037 255.649C292.952 255.144 296.546 253.218 299.134 250.237C301.722 247.256 303.124 243.427 303.074 239.479C303.023 235.532 301.524 231.74 298.86 228.826C296.197 225.911 292.555 224.077 288.628 223.673V223.609C288.717 221.77 288.435 219.931 287.798 218.203C287.161 216.475 286.182 214.893 284.921 213.551C283.659 212.21 282.141 211.136 280.455 210.394C278.77 209.651 276.952 209.256 275.111 209.231C273.269 209.207 271.442 209.553 269.737 210.25C268.032 210.947 266.485 211.98 265.188 213.288C263.892 214.595 262.871 216.15 262.188 217.86C261.505 219.571 261.174 221.401 261.213 223.242C261.213 223.399 261.213 223.561 261.213 223.708C260.042 223.425 258.843 223.274 257.637 223.255C254.664 223.214 251.738 223.996 249.183 225.517C246.627 227.037 244.543 229.235 243.161 231.868M245.997 250.692C247.864 252.568 250.165 253.955 252.696 254.731C252.281 256.601 252.27 258.539 252.663 260.415C253.056 262.29 253.844 264.06 254.975 265.607C256.106 267.154 257.554 268.442 259.222 269.385C260.891 270.328 262.74 270.905 264.649 271.076L245.997 250.692Z" stroke="#B4C4D1" stroke-width="2" stroke-miterlimit="10"/>
<path d="M276.143 244.89C277.061 249.432 279.199 252.071 281.467 253.595" stroke="#B4C4D1" stroke-width="2" stroke-miterlimit="10"/>
<path d="M289.014 255.644C288.437 255.684 287.858 255.674 287.282 255.615" stroke="#B4C4D1" stroke-width="2" stroke-miterlimit="10"/>
<path d="M261.197 223.695C261.197 223.695 260.996 230.911 267.842 233.788" stroke="#B4C4D1" stroke-width="2" stroke-miterlimit="10"/>
<path d="M280.72 259.522C280.72 259.522 263.622 256.753 278.851 303.914" stroke="#B4C4D1" stroke-width="2" stroke-miterlimit="10"/>
<path d="M259.175 256.313C259.175 256.313 273.291 263.736 256.128 303.611" stroke="#B4C4D1" stroke-width="2" stroke-miterlimit="10"/>
<path d="M153.749 136.121L153.762 136.111" stroke="#B4C4D1" stroke-width="2" stroke-miterlimit="10"/>
<path d="M109.015 162.097C114.837 162.374 120.48 161.743 125.728 158.731C129.214 156.741 133.502 154.339 136.877 151.263" stroke="#B4C4D1" stroke-width="2" stroke-miterlimit="10"/>
<path d="M51.7963 213.274C54.5078 220.024 58.0168 226.563 61.0058 232.829C62.6199 236.239 64.1798 239.847 64.1958 243.719C64.2309 249.707 60.4348 255.063 55.8061 258.052C49.0688 262.4 41.0428 262.001 34.382 266.607C28.1329 270.911 24.8823 276.468 23.8838 282.698" stroke="#B4C4D1" stroke-width="2" stroke-miterlimit="10"/>
<path d="M82.0215 159.906C82.2767 159.883 82.5191 159.861 82.7743 159.852" stroke="#B4C4D1" stroke-width="2" stroke-miterlimit="10"/>
<path d="M245.767 304.147C245.767 304.147 249.139 300.265 249.139 291.521C249.139 282.777 243.911 278.898 243.911 278.898C249.579 291.368 237.888 304.147 237.888 304.147C235.419 301.192 233.992 297.506 233.827 293.658C233.827 293.658 230.637 299.155 233.294 304.147" stroke="#B4C4D1" stroke-width="2" stroke-linejoin="round"/>
<path d="M21.8613 304.147C21.8613 304.147 15.9502 297.33 15.9502 281.996C15.9502 266.662 25.1278 259.826 25.1278 259.826C15.1718 281.722 35.7027 304.167 35.7027 304.167C36.3407 303.324 42.2358 296.995 42.8578 285.747C42.8578 285.747 48.4595 295.4 43.7925 304.167" stroke="#B4C4D1" stroke-width="2" stroke-linejoin="round"/>
<path d="M254.881 178.875L254.913 178.942" stroke="#B4C4D1" stroke-width="2" stroke-miterlimit="10"/>
<path d="M215.711 304.227H189.911V303.796C190.413 303.553 190.85 303.193 191.185 302.746C191.519 302.299 191.741 301.778 191.833 301.228C191.924 300.677 191.882 300.112 191.709 299.581C191.537 299.05 191.24 298.568 190.842 298.176C190.572 297.902 190.256 297.677 189.911 297.509V297.133H213.906C220.758 297.113 219.45 298.351 220.691 300.731C221.932 303.111 215.711 304.227 215.711 304.227Z" fill="#8FC6EE"/>
<path d="M69.8611 302.923C68.7765 303.81 67.0954 304.227 67.0954 304.227H53.1392V277.39L60.457 274.168C60.5224 274.15 60.5856 274.124 60.6452 274.092L60.8877 273.98V297.133H66.199C66.8287 297.135 67.4575 297.18 68.0811 297.267C69.4975 297.5 69.8835 298.02 70.1163 298.827C70.1163 298.827 70.1387 298.827 70.1163 298.849C70.2727 299.369 70.3715 299.991 70.6395 300.731C71.0032 301.65 70.5502 302.38 69.8611 302.923Z" fill="#8FC6EE"/>
<path d="M16.6616 304.23H280.401" stroke="#080705" stroke-width="2" stroke-miterlimit="10"/>
<path d="M157.538 256.374L149.681 280.235C148.694 282.938 146.9 285.271 144.543 286.92C142.185 288.569 139.377 289.454 136.5 289.455H60.843L60.8877 293.305V293.694L60.9323 297.133V297.155L65.8226 297.133H67.0986C67.432 297.131 67.7637 297.176 68.0843 297.267C68.9344 297.513 69.6608 298.07 70.1195 298.827C70.1195 298.827 70.1419 298.827 70.1195 298.849C70.4625 299.397 70.644 300.03 70.6427 300.677V300.731C70.6401 301.195 70.5463 301.654 70.3661 302.081C70.1862 302.509 69.9237 302.897 69.5935 303.223C69.2637 303.548 68.8722 303.806 68.4425 303.981C68.0129 304.155 67.5529 304.243 67.089 304.24H53.1392V277.39C55.6443 276.239 58.0837 275.165 60.457 274.168C60.5224 274.149 60.5856 274.124 60.6452 274.092L60.8877 273.993C96.6571 259.108 118.904 260.942 118.904 260.942L131.964 218.719" stroke="#080705" stroke-width="2" stroke-miterlimit="10"/>
<path d="M256.486 182.184L242.495 192.845" stroke="#080705" stroke-width="2" stroke-miterlimit="10"/>
<path d="M209.826 257.637L217.813 255.101" stroke="#080705" stroke-width="2" stroke-miterlimit="10"/>
<path d="M206.502 184.8C206.502 184.8 153.257 245.183 162.773 298.118C163.411 301.528 166.25 304.195 169.715 304.227H188.162C188.771 304.227 189.371 304.079 189.91 303.796C190.413 303.553 190.85 303.193 191.185 302.746C191.519 302.299 191.741 301.778 191.833 301.227C191.924 300.676 191.882 300.111 191.709 299.58C191.537 299.049 191.239 298.567 190.842 298.175C190.571 297.902 190.256 297.676 189.91 297.509C189.416 297.258 188.87 297.129 188.315 297.132H182.573" stroke="#080705" stroke-width="2" stroke-miterlimit="10"/>
<path d="M198.169 258.754L219.064 229.135L238.398 201.733C244.019 193.777 243.754 182.842 237.256 175.575C221.584 158.03 185.068 169.654 167.663 178.876C153.946 186.146 141.451 196.97 134.873 211.28C121.794 239.767 137.285 251.752 157.522 256.444C160.17 257.054 162.904 257.542 165.647 257.928" stroke="#080705" stroke-width="2" stroke-miterlimit="10"/>
<path d="M209.823 257.634C209.823 257.634 205.197 258.272 198.17 258.754C191.273 268.914 183.496 279.527 174.784 290.382C174.532 290.693 174.379 291.072 174.345 291.47C174.312 291.868 174.399 292.267 174.595 292.615C175.41 293.988 176.567 295.126 177.954 295.916C179.342 296.706 180.91 297.121 182.507 297.12H182.596L209.823 257.621" stroke="#080705" stroke-width="2" stroke-miterlimit="10"/>
<path d="M219.064 229.134H234.944C246.654 229.134 252.897 242.937 245.171 251.735L205.207 297.244H216.783C217.25 297.23 217.716 297.31 218.152 297.479C218.588 297.648 218.985 297.903 219.321 298.228C219.657 298.554 219.923 298.944 220.105 299.374C220.288 299.805 220.382 300.268 220.382 300.735C220.382 301.203 220.288 301.666 220.105 302.097C219.923 302.527 219.657 302.917 219.321 303.242C218.985 303.568 218.588 303.823 218.152 303.992C217.716 304.161 217.25 304.241 216.783 304.227H177.706" stroke="#080705" stroke-width="2" stroke-miterlimit="10"/>
<path d="M161.867 291.521C159.819 293.681 158.224 296.137 156.655 298.651C155.714 300.166 154.894 301.949 156.39 303.455C157.628 304.683 158.942 304.249 159.985 303.519C160.811 302.922 161.483 302.137 161.944 301.228L163.041 299.148" stroke="#080705" stroke-width="2" stroke-miterlimit="10"/>
<path d="M284.692 160.939C284.373 163.076 282.679 165.255 280.908 165.953C279.058 166.671 276.946 165.953 275.284 165.111C273.15 164.059 271.169 162.687 269.175 161.404L267.88 160.84C267.883 160.832 267.883 160.825 267.88 160.817C267.457 160.643 266.983 160.635 266.553 160.795C266.453 160.82 266.355 160.858 266.263 160.907C266.079 160.996 265.911 161.116 265.765 161.261C265.537 161.478 265.357 161.742 265.236 162.033C264.123 164.86 263.32 167.799 262.843 170.799L259.8 171.198C259.811 170.919 259.859 170.643 259.944 170.378C259.945 170.374 259.946 170.371 259.946 170.367C259.946 170.363 259.945 170.359 259.944 170.356C260.164 169.603 260.473 168.904 259.944 168.63C259.906 168.172 259.75 167.732 259.491 167.354C259.172 166.945 258.671 166.735 257.896 166.869C257.619 166.915 257.348 166.991 257.089 167.099C256.409 167.368 255.797 167.784 255.296 168.317C255.087 168.53 254.894 168.76 254.722 169.003C254.462 169.359 254.248 169.746 254.084 170.155C254.024 170.286 253.976 170.423 253.94 170.563C253.656 171.413 253.672 172.335 253.985 173.176C254.04 173.321 254.106 173.462 254.182 173.597L251.78 175.667C251.697 175.74 251.608 175.807 251.516 175.868C250.354 176.633 248.495 176.633 246.845 176.212C245.85 175.957 246.255 175.434 245.605 174.936C244.686 175.224 244.648 173.488 244.708 173.278C245.152 172.062 243.493 171.045 243.327 170.92C242.708 170.799 242.322 170.601 242.121 170.301H242.565C243.483 170.301 244.778 170.502 245.617 170.225C245.12 168.164 244.389 167.07 246.029 165.299C247.391 163.806 247.876 162.428 247.598 160.364C247.598 160.243 248.265 160.32 248.265 160.189C248.705 158.913 249.57 157.72 250.412 157.318C251.914 156.588 254.128 157.194 254.352 155.292C254.502 153.779 255.128 152.352 256.14 151.216C257.152 150.081 258.499 149.296 259.985 148.973C262.199 148.485 263.768 150.3 265.663 150.986C267.963 151.838 270.343 150.52 272.755 151.417C273.951 151.86 274.736 152.693 275.533 153.65C276.197 154.469 276.851 155.312 277.447 156.173C278.044 157.034 278.599 157.812 279.575 158.189C280.851 158.687 282.373 158.355 283.515 159.216C284.092 159.639 284.508 160.247 284.692 160.939Z" fill="#8FC6EE"/>
<path d="M242.992 170.372L244.549 173.029C245.075 173.925 245.825 175.795 246.782 176.187H246.801H246.827C248.495 176.85 250.307 176.691 251.494 175.868C251.593 175.806 251.686 175.734 251.771 175.654L254.167 173.581C252.687 170.936 255.085 167.325 257.867 166.847C259.29 166.607 259.781 167.485 259.937 168.601C259.995 169.185 259.995 169.772 259.937 170.356C259.937 170.541 259.915 170.706 259.899 170.882" stroke="#080705" stroke-width="2" stroke-linecap="round" stroke-linejoin="round"/>
<path d="M274.263 168.084C274.263 168.084 270.148 165.975 267.462 168.843" stroke="#080705" stroke-width="2" stroke-miterlimit="10"/>
<path d="M270.863 179.712C271.878 180.452 273.291 181.307 274.538 180.669L274.168 175.944C274.083 174.788 274.393 173.637 275.049 172.681C276.14 171.067 278.207 168.77 277.993 166.011" stroke="#080705" stroke-width="2" stroke-miterlimit="10"/>
<path d="M272.622 172.743C273.006 172.068 272.851 171.255 272.276 170.929C271.702 170.603 270.925 170.886 270.541 171.561C270.158 172.237 270.312 173.049 270.887 173.376C271.461 173.702 272.238 173.419 272.622 172.743Z" fill="#080705"/>
<path d="M259.794 171.202C259.829 171.106 259.861 171.004 259.896 170.908C259.931 170.812 259.963 170.694 260.004 170.589" stroke="#080705" stroke-width="2" stroke-linecap="round" stroke-linejoin="round"/>
<path d="M259.791 171.204L260.834 171.07L262.837 170.802" stroke="#080705" stroke-width="2" stroke-linecap="round" stroke-linejoin="round"/>
<path d="M265.188 177.867C265.188 177.867 264.202 180.694 266.958 183.07" stroke="#080705" stroke-width="2" stroke-miterlimit="10"/>
<path d="M229.894 170.301C230.813 170.301 244.763 170.502 245.602 170.224C245.104 168.164 244.373 167.07 246.013 165.299C247.375 163.806 247.86 162.428 247.583 160.364C247.562 160.237 247.552 160.107 247.551 159.978C247.439 158.185 248.259 156.769 249.841 155.892C251.347 155.053 253.063 155.219 253.296 153.26C253.39 152.409 253.625 151.579 253.991 150.804C254.506 149.798 255.23 148.914 256.116 148.213C257.003 147.511 258.03 147.009 259.127 146.74C261.408 146.232 263.022 148.111 264.994 148.82C267.351 149.697 269.82 148.344 272.299 149.253C273.536 149.716 274.343 150.571 275.17 151.566C275.868 152.418 276.532 153.282 277.141 154.179C277.738 155.018 278.334 155.86 279.342 156.246C280.65 156.756 282.232 156.412 283.394 157.308C284.555 158.205 284.922 159.567 284.698 160.929C284.379 163.066 282.685 165.245 280.915 165.943C279.065 166.661 276.953 165.943 275.291 165.101C273.157 164.049 271.176 162.677 269.182 161.395L267.887 160.83C267.462 160.651 266.986 160.635 266.55 160.785C266.449 160.81 266.352 160.848 266.26 160.897C266.078 160.99 265.91 161.109 265.762 161.251C265.533 161.468 265.353 161.731 265.233 162.023C264.12 164.85 263.317 167.789 262.84 170.789" stroke="#080705" stroke-width="2" stroke-miterlimit="10"/>
<path d="M254.795 178.64C254.795 178.64 258.425 188.21 263.433 188.427C268.442 188.644 271.817 180.513 271.817 180.513" stroke="#080705" stroke-width="2" stroke-linecap="round" stroke-linejoin="round"/>
<path d="M240.679 197.62L227.68 229.135" stroke="#080705" stroke-width="2" stroke-miterlimit="10"/>
<path d="M242.354 188.302L242.491 188.433C242.443 188.114 242.386 187.84 242.328 187.546C242.256 186.025 241.968 184.521 241.473 183.08C240.879 181.297 239.973 179.634 238.797 178.168C226.468 158.53 191.288 169.657 191.288 169.657C169.915 172.847 136.101 194.976 130.583 224.308C125.064 253.64 161.918 257.34 163.724 257.643C164.204 257.747 164.706 257.676 165.139 257.442C165.571 257.208 165.905 256.827 166.081 256.367C176.879 218.725 203.015 189.001 203.018 188.998C205.889 185.725 206.6 182.018 210.556 179.52C214.882 176.786 220.151 176.266 225.016 177.718C237.531 181.45 239.521 194.252 235.91 205.257C235.91 205.257 242.44 197.25 242.354 188.302Z" fill="#3A3427"/>
<path d="M59.2232 141.401L59.2129 141.414" stroke="#B4C4D1" stroke-width="2" stroke-miterlimit="10"/>
<path d="M96.763 141.257L96.7529 141.247" stroke="#B4C4D1" stroke-width="2" stroke-miterlimit="10"/>
<path d="M55.4264 158.964C49.8056 164.521 44.1146 167.873 42.7206 166.457C41.3266 165.04 44.759 159.407 50.3766 153.85C55.9942 148.293 61.6756 144.953 63.0696 146.36C63.1009 146.386 63.1242 146.42 63.1366 146.459C64.3233 148.015 60.9291 153.541 55.4264 158.964Z" stroke="#080705" stroke-width="2" stroke-miterlimit="10"/>
<path d="M77.4184 163.723C77.3976 166.375 76.7737 168.988 75.5937 171.364C74.4137 173.739 72.709 175.815 70.608 177.434C68.5071 179.052 66.0655 180.172 63.4678 180.708C60.8699 181.243 58.1846 181.181 55.6147 180.525C52.3462 179.682 49.3917 177.911 47.1082 175.425C44.8245 172.939 43.3096 169.846 42.7462 166.518C42.7402 166.499 42.7402 166.479 42.7462 166.46C44.1403 167.877 49.8312 164.524 55.452 158.967C60.9516 153.544 64.3489 148.022 63.1654 146.462H63.1622C66.4709 147.086 69.5292 148.652 71.9692 150.973C74.4092 153.293 76.1274 156.268 76.9175 159.541C77.255 160.909 77.4231 162.314 77.4184 163.723Z" fill="#8FC6EE"/>
<path d="M63.1621 146.449C61.7936 142.87 64.1191 139.585 67.6919 138.793C72.2249 137.782 75.485 141.246 77.415 144.953C79.8298 149.595 79.0674 155.729 76.3878 160.208" stroke="#080705" stroke-width="2" stroke-miterlimit="10"/>
<path d="M42.8099 166.553C39.2371 165.14 35.9323 167.427 35.0901 170.984C34.0214 175.501 37.4443 178.806 41.1288 180.783C45.7383 183.256 51.7738 182.653 56.2876 180.031" stroke="#080705" stroke-width="2" stroke-miterlimit="10"/>
<path d="M73.9061 174.062L87.7252 188.059C88.2088 188.563 88.4752 189.236 88.4659 189.934C88.457 190.632 88.1734 191.298 87.677 191.788C87.1804 192.278 86.5108 192.553 85.8128 192.554C85.1148 192.554 84.4449 192.279 83.9482 191.789L70.126 177.788L73.9061 174.062Z" stroke="#080705" stroke-width="2" stroke-miterlimit="10"/>
<path d="M98.1342 183.61C99.9111 185.413 97.1772 191.011 91.9935 196.118C86.8097 201.226 81.1858 203.902 79.4089 202.103C77.849 200.524 79.7535 196.042 83.7059 191.534L83.9547 191.789C84.4562 192.255 85.1181 192.508 85.802 192.497C86.486 192.486 87.1389 192.211 87.6254 191.73C88.1116 191.249 88.3936 190.599 88.4121 189.915C88.4309 189.232 88.1846 188.567 87.7253 188.06L87.4733 187.808C92.0541 183.891 96.5743 182.034 98.1342 183.61Z" fill="#8FC6EE"/>
<path d="M77.4184 163.723C77.3976 166.375 76.7737 168.988 75.5937 171.364C74.4137 173.739 72.709 175.815 70.608 177.434C68.5071 179.052 66.0655 180.172 63.4678 180.708C60.8699 181.243 58.1846 181.181 55.6147 180.525C52.3462 179.682 49.3917 177.911 47.1082 175.425C44.8245 172.939 43.3096 169.846 42.7462 166.518C42.7402 166.499 42.7402 166.479 42.7462 166.46C44.1403 167.877 49.8312 164.524 55.452 158.967C60.9516 153.544 64.3489 148.022 63.1654 146.462H63.1622C66.4709 147.086 69.5292 148.652 71.9692 150.973C74.4092 153.293 76.1274 156.268 76.9175 159.541C77.255 160.909 77.4231 162.314 77.4184 163.723Z" stroke="#080705" stroke-width="2" stroke-miterlimit="10"/>
<path d="M98.1342 183.61C99.9111 185.413 97.1772 191.011 91.9935 196.118C86.8097 201.226 81.1858 203.902 79.4089 202.103C77.849 200.524 79.7535 196.042 83.7059 191.534L83.9547 191.789C84.4562 192.255 85.1181 192.508 85.802 192.497C86.486 192.486 87.1389 192.211 87.6254 191.73C88.1116 191.249 88.3936 190.599 88.4121 189.915C88.4309 189.232 88.1846 188.567 87.7253 188.06L87.4733 187.808C92.0541 183.891 96.5743 182.034 98.1342 183.61Z" stroke="#080705" stroke-width="2" stroke-miterlimit="10"/>
<path d="M59.6692 167.469L58.7568 163.539L65.6472 170.33L67.9919 167.867L63.376 172.656" stroke="#B4C4D1" stroke-width="2" stroke-linecap="round" stroke-linejoin="round"/>
<g opacity="0.5">
<path opacity="0.5" d="M108.728 159.475C109.149 160.968 109.181 162.64 108.54 164.069C108.007 165.262 106.98 166.126 105.793 166.736C105.286 170.155 102.705 171.84 99.7514 172.289C99.6525 172.557 99.5089 172.899 99.3973 173.122C98.1914 175.224 95.4353 176.21 93.1895 176.752C91.8944 176.896 90.4876 176.774 89.4923 175.897C88.8492 175.335 88.4189 174.569 88.2737 173.728C88.1429 172.889 88.3535 172.047 88.3726 171.218C88.3949 169.39 87.9101 167.642 86.6692 166.27C83.3611 162.595 85.1092 155.845 93.4543 155.724C101.799 155.602 107.854 157.437 110.808 153.631C110.826 153.67 110.841 153.71 110.853 153.752C111.028 155.535 110.693 157.727 108.728 159.475Z" fill="#8FC6EE"/>
</g>
<path d="M93.7417 166.758C94.4945 167.565 95.8662 167.941 96.8519 168.107C99.8994 168.589 103.021 168.109 105.784 166.736C106.971 166.126 107.998 165.262 108.531 164.069C109.169 162.64 109.14 160.968 108.719 159.475" stroke="#080705" stroke-width="2" stroke-miterlimit="10"/>
<path d="M92.4814 170.664C92.8993 171.274 93.6968 171.621 94.3954 171.838C94.4229 171.843 94.4497 171.85 94.4752 171.861C96.1847 172.393 97.9922 172.536 99.7642 172.278C102.718 171.838 105.299 170.144 105.806 166.725" stroke="#080705" stroke-width="2" stroke-miterlimit="10"/>
<path d="M99.7833 172.168C99.7833 172.203 99.761 172.248 99.7514 172.289C99.6525 172.557 99.5089 172.898 99.3973 173.122C98.1915 175.224 95.4353 176.21 93.1896 176.752L93.0556 176.784C91.5276 177.147 89.7348 177.249 88.4077 176.251C87.6658 175.691 87.1439 174.889 86.934 173.983C86.7266 173.087 86.9021 172.158 86.8478 171.249C86.7362 169.259 86.095 167.399 84.634 165.992C80.7613 162.253 82.1649 154.782 91.2181 154.039C100.271 153.296 106.999 154.837 109.934 150.476C110.428 151.508 110.739 152.619 110.853 153.758C111.028 155.542 110.696 157.733 108.728 159.481C107.709 160.356 106.523 161.013 105.241 161.414C96.4306 164.426 94.8707 161.733 94.8707 161.733" stroke="#080705" stroke-width="2" stroke-miterlimit="10"/>
<g opacity="0.5">
<path opacity="0.5" d="M53.6846 211.896C55.1583 212.377 56.8267 212.476 58.2814 211.896C59.4968 211.411 60.3995 210.416 61.0535 209.258C64.4923 208.884 66.2851 206.387 66.8465 203.439C67.1145 203.353 67.4622 203.222 67.6887 203.12C69.8387 201.997 70.9329 199.292 71.5645 197.059C71.7591 195.783 71.6921 194.364 70.8595 193.333C70.3214 192.67 69.573 192.209 68.7382 192.028C67.9024 191.863 67.0539 192.028 66.2245 192.028C64.3998 191.981 62.6708 191.422 61.3501 190.114C57.8092 186.663 50.9954 188.14 50.5424 196.475C50.0894 204.811 51.6781 210.942 47.7607 213.73C47.7997 213.751 47.8402 213.768 47.882 213.781C49.6556 214.049 51.8567 213.797 53.6846 211.896Z" fill="#8FC6EE"/>
</g>
<path d="M61.5671 197.212C62.3454 197.997 62.6676 199.384 62.792 200.373C63.1541 203.445 62.5464 206.554 61.0535 209.264C60.4155 210.422 59.4968 211.417 58.2814 211.902C56.8267 212.486 55.1584 212.387 53.6846 211.902" stroke="#080705" stroke-width="2" stroke-miterlimit="10"/>
<path d="M65.5197 196.109C66.1131 196.552 66.4225 197.363 66.6171 198.058C66.6171 198.09 66.6171 198.112 66.6362 198.135C67.0997 199.864 67.1718 201.676 66.8468 203.437C66.2853 206.374 64.4925 208.882 61.0537 209.255" stroke="#080705" stroke-width="2" stroke-miterlimit="10"/>
<path d="M66.7222 203.464L66.8466 203.435C67.1146 203.349 67.4623 203.218 67.6888 203.116C69.8388 201.993 70.933 199.288 71.5646 197.055L71.6029 196.924C72.0272 195.412 72.1994 193.626 71.2552 192.257C70.7244 191.495 69.9431 190.943 69.0477 190.698C68.1609 190.452 67.223 190.592 66.3203 190.5C64.3329 190.312 62.4923 189.597 61.1525 188.082C57.5701 184.062 50.0481 185.169 48.9475 194.184C47.847 203.199 49.1262 209.987 44.6602 212.744C45.6704 213.279 46.7659 213.634 47.898 213.793C49.6716 214.039 51.8727 213.793 53.7006 211.879C54.6155 210.897 55.3211 209.739 55.7741 208.475C59.13 199.792 56.5174 198.124 56.5174 198.124" stroke="#080705" stroke-width="2" stroke-miterlimit="10"/>
<g opacity="0.71">
<path opacity="0.71" d="M155.006 136.671C151.292 135.112 148.6 133.089 148.996 132.158C149.391 131.226 152.712 131.736 156.428 133.296C160.145 134.856 162.824 136.876 162.435 137.807C162.429 137.827 162.418 137.844 162.403 137.858C161.899 138.719 158.636 138.199 155.006 136.671Z" fill="#8FC6EE"/>
<path opacity="0.71" d="M165.906 144.287C164.311 146.201 161.532 147.066 159.031 146.839C160.389 145.821 161.429 144.437 162.029 142.85C162.629 141.262 162.764 139.537 162.419 137.875C163.848 136.539 165.839 136.992 166.914 138.513C168.263 140.446 167.277 142.66 165.906 144.287Z" fill="#8FC6EE"/>
<path opacity="0.71" d="M148.973 132.177C147.524 133.083 146.368 134.388 145.644 135.935C144.919 137.482 144.658 139.206 144.89 140.899C142.976 139.272 141.7 136.704 141.946 134.216C142.156 132.088 143.043 129.833 145.378 129.456C147.2 129.147 148.916 130.241 148.973 132.177Z" fill="#8FC6EE"/>
<path opacity="0.71" d="M151.525 148.335L147.637 157.586C147.498 157.917 147.233 158.179 146.9 158.315C146.568 158.45 146.195 158.448 145.865 158.309C145.534 158.17 145.272 157.905 145.136 157.573C145.001 157.24 145.003 156.868 145.142 156.537L149.031 147.286L151.525 148.335Z" fill="#8FC6EE"/>
<path opacity="0.71" d="M151.755 161.596C151.257 162.786 148.083 162.588 144.667 161.153C141.25 159.717 138.89 157.586 139.403 156.396C139.84 155.353 142.319 155.376 145.215 156.355L145.145 156.521C145.006 156.852 145.004 157.224 145.139 157.556C145.275 157.889 145.537 158.154 145.868 158.293C146.199 158.432 146.571 158.434 146.904 158.299C147.236 158.163 147.501 157.901 147.64 157.57L147.71 157.401C150.434 158.789 152.195 160.553 151.755 161.596Z" fill="#8FC6EE"/>
<g opacity="0.5">
<path opacity="0.5" d="M165.191 161.863C164.573 162.38 163.795 162.666 162.99 162.673C162.321 162.629 161.688 162.357 161.197 161.901C159.487 162.332 158.189 161.448 157.401 160.144C157.258 160.144 157.066 160.144 156.942 160.144C155.717 159.984 154.709 158.868 154.02 157.93C153.701 157.349 153.481 156.654 153.701 156.016C153.841 155.605 154.116 155.254 154.482 155.021C154.868 154.834 155.271 154.685 155.685 154.574C156.553 154.263 157.269 153.629 157.682 152.804C158.763 150.529 162.285 150.031 163.972 153.936C165.66 157.841 165.979 161.05 168.349 161.697C168.334 161.714 168.319 161.729 168.301 161.742C167.833 162.016 167.304 162.171 166.761 162.192C166.219 162.213 165.679 162.1 165.191 161.863Z" fill="#8FC6EE"/>
</g>
<g opacity="0.5">
<path opacity="0.5" d="M131.109 144.724C130.952 145.513 131.073 146.333 131.454 147.043C131.813 147.607 132.355 148.031 132.988 148.245C133.435 149.952 134.832 150.67 136.354 150.734C136.421 150.861 136.51 151.027 136.58 151.132C137.304 152.134 138.756 152.485 139.923 152.635C140.587 152.635 141.292 152.501 141.751 151.997C142.045 151.677 142.221 151.266 142.249 150.832C142.226 150.402 142.164 149.975 142.064 149.556C141.919 148.646 142.132 147.715 142.657 146.957C144.134 144.915 142.88 141.588 138.644 141.98C134.408 142.373 131.441 143.633 129.734 141.865L129.718 141.929C129.702 142.473 129.82 143.013 130.063 143.501C130.305 143.989 130.665 144.408 131.109 144.724Z" fill="#8FC6EE"/>
</g>
<path opacity="0.71" d="M162.419 137.877C161.877 138.732 158.636 138.196 155.015 136.684C151.525 135.21 148.973 133.341 148.973 132.343C148.972 132.278 148.983 132.215 149.005 132.154C149.005 132.154 148.983 132.154 148.983 132.177C147.534 133.082 146.377 134.387 145.653 135.935C144.928 137.482 144.667 139.206 144.899 140.898C144.899 140.92 144.899 140.952 144.899 140.975C145.091 142.313 145.585 143.59 146.344 144.709C147.102 145.828 148.106 146.759 149.278 147.433C150.451 148.106 151.761 148.503 153.11 148.595C154.459 148.687 155.81 148.47 157.063 147.961C157.728 147.685 158.359 147.331 158.942 146.908C158.977 146.886 158.999 146.863 159.031 146.841C160.389 145.823 161.429 144.44 162.029 142.852C162.629 141.265 162.764 139.539 162.419 137.877ZM154.294 139.603L152.546 143.6L153.63 144.053C153.765 144.112 153.871 144.222 153.925 144.359C153.979 144.496 153.976 144.649 153.918 144.784C153.873 144.883 153.8 144.967 153.707 145.024C153.614 145.081 153.506 145.108 153.398 145.103C153.33 145.102 153.263 145.09 153.2 145.067L151.605 144.394C151.57 144.394 151.538 144.359 151.503 144.35L150.086 143.74C150.019 143.714 149.958 143.673 149.906 143.623C149.855 143.572 149.814 143.511 149.787 143.444C149.759 143.377 149.745 143.306 149.746 143.233C149.746 143.161 149.761 143.089 149.79 143.023C149.817 142.955 149.858 142.893 149.91 142.841C149.962 142.788 150.024 142.747 150.092 142.719C150.16 142.691 150.233 142.677 150.306 142.678C150.38 142.678 150.453 142.694 150.52 142.723L151.525 143.166L152.511 140.911L152.386 140.987C152.327 141.028 152.259 141.057 152.189 141.071C152.118 141.086 152.045 141.087 151.974 141.073C151.903 141.06 151.836 141.032 151.775 140.993C151.715 140.953 151.663 140.902 151.622 140.842C151.582 140.783 151.553 140.716 151.538 140.645C151.524 140.574 151.523 140.501 151.537 140.431C151.55 140.359 151.577 140.292 151.617 140.231C151.657 140.171 151.708 140.119 151.767 140.078L153.471 138.927C153.57 138.857 153.689 138.822 153.81 138.829C153.931 138.835 154.047 138.882 154.138 138.962C154.228 139.039 154.292 139.142 154.32 139.257C154.348 139.372 154.339 139.493 154.294 139.603Z" fill="#8FC6EE"/>
</g>
<g opacity="0.5">
<path opacity="0.5" d="M91.6104 238.131C93.0172 240.154 93.7446 242.08 93.2342 242.431C92.7238 242.782 91.1766 241.433 89.7698 239.41C88.363 237.388 87.6357 235.464 88.1429 235.11H88.178C88.7203 234.814 90.2356 236.153 91.6104 238.131Z" fill="#8FC6EE"/>
<path opacity="0.5" d="M88.4716 230.638C89.9294 230.175 91.6393 230.638 92.861 231.569C91.8268 231.648 90.8367 232.019 90.0066 232.641C89.1766 233.262 88.5411 234.108 88.1749 235.078C86.9978 235.301 86.1174 234.415 86.0632 233.273C85.9962 231.84 87.2307 231.02 88.4716 230.638Z" fill="#8FC6EE"/>
<path opacity="0.5" d="M93.2565 242.44C94.3743 242.451 95.4685 242.117 96.3891 241.483C97.1914 240.919 97.8246 240.147 98.2202 239.25C98.6763 240.717 98.5009 242.466 97.5535 243.668C96.7496 244.699 95.5501 245.582 94.2231 245.005C93.1768 244.574 92.6504 243.448 93.2565 242.44Z" fill="#8FC6EE"/>
<path opacity="0.5" d="M97.228 233.253L102.265 229.744C102.445 229.617 102.669 229.567 102.886 229.605C103.103 229.643 103.296 229.765 103.423 229.945C103.55 230.126 103.6 230.349 103.562 230.566C103.525 230.783 103.402 230.976 103.222 231.103L98.1882 234.612L97.228 233.253Z" fill="#8FC6EE"/>
<path opacity="0.5" d="M101.442 226.319C102.08 225.869 103.675 227.011 104.951 228.871C106.227 230.73 106.77 232.606 106.122 233.056C105.554 233.452 104.278 232.629 103.104 231.174L103.194 231.11C103.374 230.983 103.496 230.79 103.534 230.573C103.572 230.356 103.522 230.132 103.395 229.952C103.268 229.772 103.074 229.65 102.857 229.612C102.64 229.574 102.417 229.624 102.237 229.751L102.144 229.815C101.216 228.204 100.884 226.714 101.442 226.319Z" fill="#8FC6EE"/>
<g opacity="0.5">
<path opacity="0.5" d="M94.5998 221.782C95.0872 221.717 95.582 221.823 96.0002 222.082C96.3297 222.325 96.5668 222.673 96.6733 223.068C97.6973 223.406 98.0801 224.29 98.0578 225.221C98.1394 225.267 98.2182 225.318 98.2938 225.374C98.8776 225.856 99.0339 226.755 99.0818 227.473C99.0846 227.677 99.0451 227.879 98.966 228.067C98.8872 228.254 98.7701 228.424 98.6224 228.564C98.416 228.732 98.1579 228.823 97.8919 228.823C97.6309 228.792 97.3738 228.738 97.1231 228.66C96.5779 228.54 96.0075 228.632 95.5281 228.918C94.2234 229.741 92.2424 228.845 92.6571 226.274C93.0718 223.703 93.949 221.942 92.9378 220.832H92.9761C93.3037 220.846 93.6227 220.94 93.9057 221.105C94.1886 221.271 94.4269 221.503 94.5998 221.782Z" fill="#8FC6EE"/>
</g>
<g opacity="0.5">
<path opacity="0.5" d="M107.777 241.484C108.02 241.056 108.107 240.556 108.023 240.071C107.922 239.674 107.688 239.324 107.36 239.079C107.427 238 106.75 237.318 105.879 236.989C105.879 236.903 105.844 236.788 105.825 236.712C105.596 235.994 104.82 235.512 104.17 235.2C103.982 235.121 103.779 235.083 103.576 235.086C103.372 235.089 103.171 235.134 102.986 235.219C102.755 235.348 102.575 235.553 102.476 235.799C102.407 236.053 102.362 236.313 102.342 236.575C102.249 237.131 101.946 237.631 101.496 237.972C100.249 238.875 100.342 241.047 102.878 241.628C105.414 242.208 107.379 242.045 108.033 243.401C108.04 243.39 108.047 243.379 108.052 243.366C108.165 243.054 108.2 242.719 108.152 242.391C108.104 242.062 107.975 241.75 107.777 241.484Z" fill="#8FC6EE"/>
</g>
<path opacity="0.5" d="M88.1748 235.081C88.7331 234.816 90.2355 236.153 91.6072 238.121C92.9183 240.012 93.6393 241.821 93.3107 242.338C93.2906 242.371 93.2648 242.4 93.2341 242.424C93.2341 242.424 93.2341 242.424 93.2533 242.424C94.3711 242.436 95.4652 242.101 96.3859 241.467C97.1872 240.908 97.8214 240.142 98.2201 239.25C98.2201 239.25 98.2201 239.218 98.2393 239.209C98.5777 238.454 98.7404 237.633 98.7146 236.807C98.689 235.981 98.4756 235.172 98.0909 234.44C97.7059 233.708 97.1598 233.074 96.4937 232.585C95.8273 232.096 95.0585 231.764 94.2454 231.616C93.8106 231.539 93.3684 231.515 92.9279 231.543H92.8609C91.8267 231.621 90.8365 231.993 90.0065 232.614C89.1765 233.236 88.541 234.082 88.1748 235.052V235.081ZM92.9375 236.848L95.1481 235.358L94.743 234.784C94.6929 234.709 94.6747 234.617 94.692 234.529C94.7092 234.44 94.7609 234.362 94.8355 234.312C94.8901 234.272 94.9561 234.25 95.0237 234.25C95.0914 234.25 95.1574 234.272 95.2119 234.312C95.247 234.333 95.2783 234.36 95.3045 234.392L95.9106 235.266C95.9265 235.285 95.9361 235.307 95.9488 235.323L96.4816 236.101C96.5093 236.137 96.5294 236.178 96.5403 236.221C96.5514 236.265 96.553 236.31 96.545 236.354C96.5374 236.399 96.5202 236.441 96.495 236.478C96.4698 236.515 96.4369 236.547 96.3986 236.57C96.3619 236.596 96.3205 236.615 96.2764 236.625C96.2324 236.634 96.1871 236.635 96.1428 236.627C96.0984 236.619 96.0563 236.602 96.0187 236.578C95.981 236.553 95.9485 236.522 95.9233 236.484L95.5405 235.929L94.2932 236.775H94.3793C94.4234 236.773 94.4671 236.78 94.5082 236.796C94.5497 236.811 94.5873 236.835 94.6196 236.865C94.6515 236.895 94.6776 236.931 94.6958 236.971C94.714 237.011 94.7239 237.054 94.7255 237.098C94.7271 237.142 94.7197 237.186 94.7041 237.227C94.6888 237.269 94.6652 237.306 94.6352 237.339C94.6052 237.37 94.5692 237.397 94.529 237.415C94.4888 237.433 94.4457 237.443 94.4017 237.444L93.1448 237.483C93.0727 237.485 93.0019 237.463 92.9442 237.42C92.8861 237.377 92.8443 237.316 92.8258 237.247C92.7987 237.177 92.7949 237.101 92.815 237.028C92.8351 236.957 92.8781 236.893 92.9375 236.848Z" fill="#8FC6EE"/>
</g>
<path d="M127.144 176.497C125.553 176.495 123.997 176.966 122.674 177.85C121.35 178.733 120.318 179.988 119.709 181.458C119.1 182.928 118.94 184.545 119.25 186.106C119.56 187.667 120.326 189.1 121.451 190.225C122.576 191.35 124.01 192.116 125.57 192.427C127.131 192.737 128.748 192.577 130.218 191.967C131.688 191.358 132.944 190.326 133.827 189.003C134.71 187.679 135.181 186.123 135.18 184.532C135.18 183.477 134.972 182.432 134.568 181.457C134.164 180.482 133.572 179.596 132.826 178.85C132.08 178.104 131.194 177.512 130.219 177.108C129.244 176.705 128.199 176.497 127.144 176.497ZM128.781 182.149L127.032 186.146L128.117 186.599C128.252 186.658 128.358 186.768 128.412 186.905C128.466 187.042 128.463 187.195 128.404 187.33C128.36 187.429 128.286 187.513 128.194 187.57C128.101 187.627 127.993 187.655 127.884 187.649C127.817 187.648 127.75 187.636 127.686 187.614L126.091 186.941C126.056 186.941 126.024 186.906 125.992 186.896L124.573 186.287C124.506 186.26 124.445 186.22 124.393 186.169C124.342 186.118 124.301 186.057 124.273 185.99C124.246 185.924 124.232 185.852 124.232 185.78C124.233 185.707 124.248 185.636 124.276 185.569C124.304 185.501 124.345 185.439 124.397 185.387C124.449 185.335 124.51 185.293 124.578 185.265C124.647 185.237 124.719 185.223 124.793 185.224C124.866 185.225 124.939 185.24 125.007 185.269L126.024 185.7L127.01 183.444L126.889 183.521C126.83 183.568 126.761 183.601 126.688 183.62C126.615 183.639 126.539 183.643 126.465 183.631C126.39 183.62 126.319 183.593 126.255 183.553C126.192 183.513 126.137 183.46 126.094 183.398C126.052 183.335 126.022 183.265 126.008 183.191C125.993 183.117 125.994 183.041 126.01 182.967C126.027 182.894 126.058 182.824 126.102 182.763C126.146 182.702 126.202 182.65 126.267 182.612L127.973 181.46C128.072 181.39 128.191 181.355 128.311 181.362C128.432 181.368 128.547 181.415 128.637 181.495C128.728 181.574 128.791 181.681 128.817 181.799C128.843 181.916 128.83 182.04 128.781 182.149Z" fill="#8FC6EE"/>
<path d="M76.4645 218.649C76.4421 219.444 76.6559 220.227 77.0789 220.901C77.5019 221.574 78.115 222.107 78.8407 222.431C79.5664 222.756 80.3722 222.858 81.1563 222.725C81.9401 222.592 82.6668 222.229 83.2445 221.682C83.8219 221.136 84.2245 220.431 84.4012 219.655C84.5779 218.88 84.5205 218.07 84.2369 217.327C83.953 216.585 83.455 215.943 82.8065 215.483C82.1577 215.023 81.3873 214.766 80.5923 214.745C79.5272 214.715 78.4943 215.11 77.7204 215.842C76.9462 216.575 76.4945 217.584 76.4645 218.649ZM79.3355 217.909L81.3101 218.838L81.5525 218.302C81.5838 218.235 81.6396 218.184 81.7085 218.159C81.7771 218.134 81.853 218.137 81.9194 218.167C81.9701 218.19 82.0125 218.227 82.0412 218.274C82.0696 218.322 82.083 218.377 82.0789 218.432C82.0789 218.466 82.0722 218.5 82.0597 218.531L81.6993 219.325L81.6769 219.373L81.3579 220.072C81.3439 220.106 81.3232 220.136 81.297 220.161C81.2709 220.186 81.2399 220.206 81.2058 220.219C81.172 220.232 81.1356 220.238 81.0995 220.237C81.0632 220.236 81.0275 220.227 80.9943 220.212C80.9605 220.197 80.9302 220.176 80.905 220.149C80.8798 220.122 80.86 220.091 80.8472 220.056C80.8345 220.022 80.8287 219.985 80.8303 219.948C80.8322 219.912 80.8412 219.876 80.8571 219.842L81.0868 219.342L79.9703 218.818L80.0086 218.879C80.028 218.909 80.0414 218.943 80.0478 218.979C80.0542 219.014 80.0535 219.051 80.0459 219.086C80.0379 219.121 80.0236 219.155 80.0028 219.184C79.9824 219.214 79.9559 219.239 79.9256 219.259C79.8953 219.278 79.8615 219.291 79.8258 219.298C79.7904 219.304 79.754 219.303 79.7186 219.296C79.6835 219.288 79.65 219.273 79.6203 219.253C79.5907 219.232 79.5655 219.206 79.546 219.176L78.9942 218.308C78.9629 218.259 78.9485 218.202 78.9533 218.144C78.9578 218.087 78.9811 218.032 79.0197 217.989C79.056 217.947 79.1039 217.917 79.1575 217.903C79.2107 217.889 79.2672 217.891 79.3195 217.909H79.3355Z" fill="#8FC6EE"/>
</g>
</g>
<defs>
<clipPath id="clip0_13_1375">
<rect width="319" height="319" fill="white"/>
</clipPath>
</defs>
</svg>
