<svg width="166" height="70" viewBox="0 0 166 70" fill="none" xmlns="http://www.w3.org/2000/svg">
<path d="M23.232 55.24L20.88 45.88H9.408L6.864 55L0.72 54.52L4.944 42.856L11.376 22.216L19.968 21.592L26.16 42.136L30.144 54.184L23.232 55.24ZM15.648 27.832H15.024L10.896 40.792H19.44L15.648 27.832ZM44.5238 55.528C42.2518 55.528 38.9718 55.352 34.6838 55L35.2598 43.336L34.6838 21.88H47.4998C51.8198 21.88 55.1958 23.176 57.6278 25.768C60.0598 28.36 61.2758 31.96 61.2758 36.568C61.2758 42.392 59.7718 47.016 56.7638 50.44C53.7558 53.832 49.6758 55.528 44.5238 55.528ZM45.7718 27.064C43.6598 27.064 42.1718 27.08 41.3078 27.112L40.8278 42.52L41.1638 50.296C43.8518 50.488 45.6598 50.584 46.5878 50.584C49.1158 50.584 51.0998 49.56 52.5398 47.512C54.0118 45.464 54.7478 42.488 54.7478 38.584C54.7478 34.68 54.0278 31.784 52.5878 29.896C51.1798 28.008 48.9078 27.064 45.7718 27.064Z" fill="black"/>
<g clip-path="url(#clip0_10_3644)">
<path fill-rule="evenodd" clip-rule="evenodd" d="M101.609 21.5225C100.353 22.3396 99.0305 23.1385 97.8861 23.6663C97.3086 23.9326 96.6655 24.092 96.0024 24.1616C95.985 24.1621 95.9674 24.1632 95.9497 24.1651C95.8903 24.1715 95.8312 24.1772 95.7721 24.1822C95.2955 24.2172 94.8113 24.2075 94.3364 24.1591C93.7167 24.0818 93.1152 23.9127 92.5266 23.6412C91.095 22.9809 89.3989 22.0143 87.9127 21.0685C85.8141 19.4736 83.2006 18.5276 80.3673 18.5276C73.4499 18.5276 67.8423 24.1661 67.8423 31.1216C67.8423 38.0771 73.4499 43.7156 80.3673 43.7156C86.9915 43.7156 92.4147 38.5448 92.8623 31.9983C92.8827 31.9573 92.899 31.9136 92.9107 31.8674C93.1906 30.7656 93.6352 29.6768 94.4142 29.0947C94.5259 29.0112 94.6568 28.9238 94.7865 28.8567C94.884 28.8062 94.9593 28.7787 95.0109 28.7656C95.1617 28.8006 95.3953 28.9213 95.6062 29.079C96.4184 29.6859 96.9423 30.6595 97.2045 31.6821C97.4962 38.3775 102.987 43.7156 109.717 43.7156C116.635 43.7156 122.242 38.0771 122.242 31.1216C122.242 24.1661 116.635 18.5276 109.717 18.5276C106.625 18.5276 103.794 19.6547 101.609 21.5225ZM91.5861 31.1216C91.5861 37.3517 86.5632 42.4023 80.3673 42.4023C74.1713 42.4023 69.1484 37.3517 69.1484 31.1216C69.1484 24.8915 74.1713 19.8409 80.3673 19.8409C82.3618 19.8409 84.2347 20.3643 85.8577 21.2818C86.2641 21.5616 86.7047 21.8532 87.166 22.1476C89.8526 24.2086 91.5861 27.4615 91.5861 31.1216ZM90.9022 24.3074C91.8001 25.7079 92.4292 27.299 92.7164 29.007C92.9689 28.6445 93.2712 28.3125 93.6352 28.0406C93.782 27.9308 93.9752 27.7994 94.1888 27.6889C94.3904 27.5846 94.6531 27.4762 94.9365 27.449C94.9613 27.4462 94.9865 27.4449 95.012 27.4451C95.0344 27.4452 95.0566 27.4465 95.0785 27.4488C95.6001 27.4982 96.1109 27.8199 96.3853 28.0249C96.7656 28.3091 97.0914 28.6432 97.368 29.0076C97.6369 27.408 98.2057 25.9109 99.0143 24.5768C98.8163 24.6773 98.6214 24.772 98.4306 24.86C97.6277 25.2303 96.7512 25.4259 95.8784 25.4911C95.3088 25.539 94.7463 25.5324 94.191 25.4643C94.1786 25.463 94.1664 25.4617 94.1541 25.4604C94.1372 25.4586 94.1206 25.4562 94.1042 25.4531C93.3845 25.3564 92.677 25.1555 91.9821 24.8349C91.6339 24.6743 91.2719 24.4971 90.9022 24.3074ZM102.392 22.5775C103.184 22.0603 103.939 21.5443 104.592 21.0939C104.606 21.0841 104.62 21.0739 104.633 21.0631C106.159 20.2816 107.887 19.8409 109.717 19.8409C115.913 19.8409 120.936 24.8915 120.936 31.1216C120.936 37.3517 115.913 42.4023 109.717 42.4023C103.521 42.4023 98.4985 37.3517 98.4985 31.1216C98.4985 27.7067 100.008 24.6462 102.392 22.5775Z" fill="black"/>
<path d="M105.391 63.0055H106.012L109.083 54.8135L113.101 42.7912L117.897 40.066L120.479 36.8421L114.319 55.6249L110.533 68.5409L100.192 69.1562L96.9706 56.5238L95.0493 50.2787L93.354 55.6249L89.5677 68.5409L79.3958 69.1562L76.0052 56.5238L69.8015 36.7827L72.8425 40.7883L78.3893 43.0538L81.426 54.2528L83.9403 63.0055H85.2164L88.2115 54.2528L91.9821 36.8421L94.7865 28.8567L97.2223 31.9983L99.4818 38.3818L102.324 54.2528L105.391 63.0055Z" fill="black"/>
<mask id="mask0_10_3644" style="mask-type:luminance" maskUnits="userSpaceOnUse" x="63" y="0" width="64" height="70">
<path d="M127 0H63V70H127V0Z" fill="white"/>
<path fill-rule="evenodd" clip-rule="evenodd" d="M101.609 21.5225C100.353 22.3396 99.0305 23.1385 97.8861 23.6663C97.3086 23.9326 96.6655 24.092 96.0024 24.1616C95.985 24.1621 95.9674 24.1632 95.9497 24.1651C95.8903 24.1715 95.8312 24.1772 95.7721 24.1822C95.2955 24.2172 94.8113 24.2075 94.3364 24.1591C93.7167 24.0818 93.1152 23.9127 92.5266 23.6412C91.095 22.9809 89.3989 22.0143 87.9127 21.0685C85.8141 19.4736 83.2006 18.5276 80.3673 18.5276C73.4499 18.5276 67.8423 24.1661 67.8423 31.1216C67.8423 38.0771 73.4499 43.7156 80.3673 43.7156C86.9915 43.7156 92.4147 38.5448 92.8623 31.9983C92.8827 31.9573 92.899 31.9136 92.9107 31.8674C93.1906 30.7656 93.6352 29.6768 94.4142 29.0947C94.5259 29.0112 94.6568 28.9238 94.7865 28.8567C94.884 28.8062 94.9593 28.7787 95.0109 28.7656C95.1617 28.8006 95.3953 28.9213 95.6062 29.079C96.4184 29.6859 96.9423 30.6595 97.2045 31.6821C97.4962 38.3775 102.987 43.7156 109.717 43.7156C116.635 43.7156 122.242 38.0771 122.242 31.1216C122.242 24.1661 116.635 18.5276 109.717 18.5276C106.625 18.5276 103.794 19.6547 101.609 21.5225ZM91.5861 31.1216C91.5861 37.3517 86.5632 42.4023 80.3673 42.4023C74.1713 42.4023 69.1484 37.3517 69.1484 31.1216C69.1484 24.8915 74.1713 19.8409 80.3673 19.8409C82.3618 19.8409 84.2347 20.3643 85.8577 21.2818C86.2641 21.5616 86.7047 21.8532 87.166 22.1476C89.8526 24.2086 91.5861 27.4615 91.5861 31.1216ZM90.9022 24.3074C91.8001 25.7079 92.4292 27.299 92.7164 29.007C92.9689 28.6445 93.2712 28.3125 93.6352 28.0406C93.782 27.9308 93.9752 27.7994 94.1888 27.6889C94.3904 27.5846 94.6531 27.4762 94.9365 27.449C94.9613 27.4462 94.9865 27.4449 95.012 27.4451C95.0344 27.4452 95.0566 27.4465 95.0785 27.4488C95.6001 27.4982 96.1109 27.8199 96.3853 28.0249C96.7656 28.3091 97.0914 28.6432 97.368 29.0076C97.6369 27.408 98.2057 25.9109 99.0143 24.5768C98.8163 24.6773 98.6214 24.772 98.4306 24.86C97.6277 25.2303 96.7512 25.4259 95.8784 25.4911C95.3088 25.539 94.7463 25.5324 94.191 25.4643C94.1786 25.463 94.1664 25.4617 94.1541 25.4604C94.1372 25.4586 94.1206 25.4562 94.1042 25.4531C93.3845 25.3564 92.677 25.1555 91.9821 24.8349C91.6339 24.6743 91.2719 24.4971 90.9022 24.3074ZM102.392 22.5775C103.184 22.0603 103.939 21.5443 104.592 21.0939C104.606 21.0841 104.62 21.0739 104.633 21.0631C106.159 20.2816 107.887 19.8409 109.717 19.8409C115.913 19.8409 120.936 24.8915 120.936 31.1216C120.936 37.3517 115.913 42.4023 109.717 42.4023C103.521 42.4023 98.4985 37.3517 98.4985 31.1216C98.4985 27.7067 100.008 24.6462 102.392 22.5775Z" fill="black"/>
<path d="M105.391 63.0055H106.012L109.083 54.8135L113.101 42.7912L117.897 40.066L120.479 36.8421L114.319 55.6249L110.533 68.5409L100.192 69.1562L96.9706 56.5238L95.0493 50.2787L93.354 55.6249L89.5677 68.5409L79.3958 69.1562L76.0052 56.5238L69.8015 36.7827L72.8425 40.7883L78.3893 43.0538L81.426 54.2528L83.9403 63.0055H85.2164L88.2115 54.2528L91.9821 36.8421L94.7865 28.8567L97.2223 31.9983L99.4818 38.3818L102.324 54.2528L105.391 63.0055Z" fill="black"/>
</mask>
<g mask="url(#mask0_10_3644)">
<path d="M92.6602 0.735069L92.6289 0.342335L92.6167 0.343314L92.6047 0.345051L92.6602 0.735069ZM92.5427 0.744788L92.6392 0.362927L92.5754 0.346627L92.5098 0.352183L92.5427 0.744788ZM84.3991 4.85128L84.0815 4.6205L84.0727 4.63288L84.0648 4.64592L84.3991 4.85128ZM82.9901 12.6039L82.6835 12.3587L82.5155 12.5711L82.6529 12.8046L82.9901 12.6039ZM83.1654 12.8955L83.5046 12.6981L83.5022 12.6941L83.4999 12.6901L83.1654 12.8955ZM83.1655 12.8956L82.8264 13.0931L82.8287 13.0971L82.8311 13.101L83.1655 12.8956ZM83.6043 14.1851L83.9761 14.0605H83.976L83.6043 14.1851ZM83.1133 13.1884L83.4488 12.985V12.9849L83.1133 13.1884ZM83.0007 13.0022L83.335 12.7967L83.3331 12.7937L83.3312 12.7907L83.0007 13.0022ZM83.0006 13.0021L82.6662 13.2075L82.6681 13.2106L82.67 13.2136L83.0006 13.0021ZM82.5641 12.2302L82.9164 12.0576L82.9039 12.0318L82.8877 12.008L82.5641 12.2302ZM72.0813 23.4429L72.1146 23.8355H72.1147L72.0813 23.4429ZM71.3922 23.4986L71.3704 23.1052H71.3703L71.3922 23.4986ZM63.5878 33.4408L63.1959 33.4407L63.1959 33.4825L63.2046 33.5233L63.5878 33.4408ZM66.7467 36.5263L66.74 36.9202L66.772 36.1332L66.7467 36.5263ZM63.3918 33.4616H63V33.5033L63.0087 33.5441L63.3918 33.4616ZM71.8916 23.2618L71.9258 23.6543L71.9265 23.6542L71.8916 23.2618ZM71.8927 23.2616L71.8585 22.8691L71.8578 22.8692L71.8927 23.2616ZM71.8957 23.2614L71.9299 23.6539H71.93L71.8957 23.2614ZM82.6948 12.0737L82.3743 12.3003L82.4092 12.3502L82.4575 12.3872L82.6948 12.0737ZM82.7239 12.1097L82.3701 12.2791L82.3703 12.2795L82.7239 12.1097ZM82.7272 12.1168L82.3736 12.2866L82.3737 12.2867L82.7272 12.1168ZM82.7336 12.1301L82.3808 12.3014L82.3933 12.3276L82.4096 12.3517L82.7336 12.1301ZM82.7767 12.1948L82.4494 12.4116L83.1618 12.1225L82.7767 12.1948ZM82.7736 12.1788L83.1588 12.1065L83.1588 12.106L82.7736 12.1788ZM82.7712 12.1657L83.1563 12.093L83.1563 12.0928L82.7712 12.1657ZM84.2339 4.74531L84.5683 4.95076L84.5683 4.95069L84.2339 4.74531ZM84.2359 4.74208L83.9183 4.51134L83.9094 4.5237L83.9015 4.53671L84.2359 4.74208ZM92.6385 0.53919L92.6699 0.931917L92.682 0.930945L92.6938 0.929231L92.6385 0.53919ZM105.741 4.81073L106.059 4.58053L106.059 4.58045L105.741 4.81073ZM105.743 4.8138L106.078 4.60866L106.07 4.59582L106.061 4.5836L105.743 4.8138ZM105.745 4.81703L106.08 4.61199V4.61189L105.745 4.81703ZM107.219 12.1956L106.834 12.1248L107.525 12.4415L107.219 12.1956ZM107.371 12.0458L107.436 12.4342L107.588 12.4083L107.682 12.285L107.371 12.0458ZM124.744 27.0367L124.411 27.2434L124.411 27.2434L124.744 27.0367ZM126.587 33.6092L126.97 33.6914L126.979 33.6507V33.6092H126.587ZM123.996 36.4447L124.059 36.8336L124.061 36.8333L124.062 36.833L123.996 36.4447ZM126.391 33.5883L126.774 33.6707L126.783 33.6299V33.5882L126.391 33.5883ZM124.577 27.1401L124.244 27.3467V27.3468L124.577 27.1401ZM118.068 23.5787L118.102 23.1862L118.102 23.1861L118.068 23.5787ZM118.067 23.5785L118.032 23.971H118.033L118.067 23.5785ZM118.059 23.5779L118.094 23.1854H118.094L118.059 23.5779ZM107.264 12.5541L106.935 12.3406L106.935 12.3407L107.264 12.5541ZM107.253 12.5712L106.924 12.3567L106.924 12.3567L107.253 12.5712ZM107.17 12.6869L106.881 12.4212L106.881 12.4212L107.17 12.6869ZM107.146 12.7102L106.905 12.3992H106.905L107.146 12.7102ZM107.052 12.7348L107.127 12.3481L106.886 12.3007L106.738 12.4988L107.052 12.7348ZM106.966 12.522L107.278 12.7604L107.343 12.674L107.355 12.5661L106.966 12.522ZM105.58 4.9228L105.915 4.71783L105.907 4.7048L105.898 4.69242L105.58 4.9228ZM95.8983 0.616816L95.9168 0.223261L95.8152 0.218417L95.724 0.263939L95.8983 0.616816ZM120.479 36.8421L120.437 36.4503L120.293 36.4659L120.193 36.5726L120.479 36.8421ZM69.0837 36.5945L69.3706 36.3262L69.2589 36.2055L69.095 36.2007L69.0837 36.5945ZM90.9023 36.4025L90.8994 36.0085L90.7144 36.0098L90.5978 36.1545L90.9023 36.4025ZM99.0144 36.342L99.3107 36.0842L99.1923 35.9467L99.0115 35.9481L99.0144 36.342ZM103.434 41.4787L103.138 41.7364L103.198 41.8063L103.283 41.842L103.434 41.4787ZM108.626 43.6685L108.474 44.0318L108.602 44.0856L108.735 44.0469L108.626 43.6685ZM116.155 41.4787L116.264 41.8571L116.367 41.8271L116.441 41.7482L116.155 41.4787ZM72.2941 40.066L72.0072 40.3343L72.0709 40.4033L72.1587 40.4358L72.2941 40.066ZM80.3673 43.0538L80.232 43.4236L80.3439 43.465L80.4599 43.4367L80.3673 43.0538ZM86.8137 41.4787L86.9063 41.8615L87.0349 41.8301L87.1183 41.7267L86.8137 41.4787ZM92.6394 1.13633C92.6649 1.13251 92.6903 1.12876 92.7158 1.12508L92.6047 0.345051C92.5775 0.348967 92.5503 0.352971 92.5232 0.35706L92.6394 1.13633ZM92.4462 1.12665C92.5081 1.14245 92.5737 1.14625 92.6394 1.13633L92.5232 0.35706C92.5624 0.351154 92.6018 0.353385 92.6392 0.362927L92.4462 1.12665ZM89.6448 1.51258C90.7431 1.33499 91.6638 1.21462 92.5756 1.13739L92.5098 0.352183C91.5731 0.431522 90.632 0.554837 89.5204 0.734577L89.6448 1.51258ZM84.7167 5.08206C86.2856 2.89917 88.2489 1.73827 89.6448 1.51258L89.5204 0.734577C87.8699 1.00144 85.7394 2.31383 84.0815 4.6205L84.7167 5.08206ZM83.3488 12.0563C82.8545 9.41825 83.4125 7.2315 84.7336 5.05664L84.0648 4.64592C82.6598 6.95886 82.0427 9.34201 82.5787 12.2022L83.3488 12.0563ZM83.3988 12.3557C83.3888 12.2777 83.3715 12.1773 83.3488 12.0563L82.5787 12.2022C82.6009 12.3207 82.6146 12.4025 82.6216 12.4566L83.3988 12.3557ZM83.4095 12.4787C83.4082 12.4369 83.4037 12.3942 83.3988 12.3557L82.6216 12.4566C82.6251 12.484 82.6261 12.4986 82.6263 12.5044L83.4095 12.4787ZM83.3822 12.6895C83.4135 12.5935 83.4104 12.5057 83.4095 12.4787L82.6263 12.5044C82.6264 12.5082 82.6261 12.504 82.6267 12.4959C82.6274 12.4883 82.6293 12.4692 82.6376 12.4437L83.3822 12.6895ZM83.2968 12.8492C83.347 12.7857 83.3709 12.7239 83.3822 12.6894L82.6376 12.4437C82.643 12.4272 82.6556 12.394 82.6835 12.3587L83.2968 12.8492ZM83.4999 12.6901C83.4402 12.592 83.3828 12.4975 83.3274 12.4033L82.6529 12.8046C82.7116 12.9043 82.772 13.0036 82.8311 13.1009L83.4999 12.6901ZM83.5046 12.6982L83.5046 12.6981L82.8264 13.0929L82.8264 13.0931L83.5046 12.6982ZM83.6166 12.8832C83.5774 12.8179 83.5383 12.7534 83.4999 12.6902L82.8311 13.101C82.8696 13.1644 82.9077 13.2271 82.9455 13.2901L83.6166 12.8832ZM84.1619 13.9982C84.0248 13.5847 83.8148 13.2137 83.6166 12.8832L82.9455 13.2901C83.1398 13.6141 83.3106 13.9221 83.4184 14.2474L84.1619 13.9982ZM83.8521 14.6212C84.1088 14.5351 84.2474 14.2563 84.1619 13.9982L83.4184 14.2474C83.3671 14.0926 83.4504 13.9252 83.6043 13.8736L83.8521 14.6212ZM83.2326 14.3096C83.3181 14.5677 83.5955 14.7072 83.8521 14.6212L83.6043 13.8736C83.7583 13.822 83.9247 13.9057 83.9761 14.0605L83.2326 14.3096ZM82.7778 13.3918C82.9711 13.7143 83.1321 14.0065 83.2326 14.3096L83.976 14.0605C83.8462 13.669 83.646 13.3138 83.4488 12.985L82.7778 13.3918ZM82.6663 13.2076C82.7042 13.2701 82.7413 13.3312 82.7778 13.3918L83.4488 12.9849C83.411 12.9219 83.3728 12.8589 83.335 12.7967L82.6663 13.2076ZM82.67 13.2136L82.6701 13.2137L83.3312 12.7907V12.7906L82.67 13.2136ZM82.2119 12.4028C82.3497 12.6873 82.5151 12.9589 82.6662 13.2075L83.335 12.7966C83.1804 12.5424 83.0351 12.3028 82.9164 12.0576L82.2119 12.4028ZM81.8893 12.0461C82.012 12.1415 82.1305 12.2903 82.2406 12.4524L82.8877 12.008C82.7662 11.8291 82.5916 11.596 82.3684 11.4226L81.8893 12.0461ZM79.5774 11.1382C80.3633 11.1586 81.1473 11.4697 81.8893 12.0461L82.3684 11.4226C81.5234 10.766 80.583 10.376 79.5976 10.3505L79.5774 11.1382ZM77.1189 12.0452C77.9644 11.384 78.7955 11.118 79.5774 11.1382L79.5976 10.3505C78.6097 10.3249 77.6053 10.6666 76.6378 11.4232L77.1189 12.0452ZM75.4615 13.8954C75.7398 13.1623 76.3298 12.6623 77.1189 12.0452L76.6378 11.4232C75.8695 12.024 75.0967 12.6467 74.7294 13.6144L75.4615 13.8954ZM74.5182 16.9583C74.6939 15.9294 75.0697 14.9278 75.4615 13.8954L74.7294 13.6144C74.3417 14.6357 73.9366 15.7081 73.7459 16.825L74.5182 16.9583ZM74.3976 22.0112C74.0491 20.4409 74.2354 18.6147 74.5182 16.9583L73.7459 16.825C73.4605 18.4963 73.2487 20.4526 73.6328 22.1829L74.3976 22.0112ZM72.1147 23.8355C72.3597 23.8144 72.6079 23.7958 72.851 23.7904L72.8339 23.0026C72.5649 23.0086 72.2966 23.029 72.048 23.0503L72.1147 23.8355ZM71.9495 23.8499C72.0043 23.8451 72.0593 23.8402 72.1146 23.8355L72.048 23.0503C71.9915 23.0552 71.9356 23.0601 71.8808 23.065L71.9495 23.8499ZM71.414 23.892C71.5803 23.8826 71.7628 23.8664 71.9453 23.8503L71.8767 23.0654C71.691 23.0818 71.5217 23.0967 71.3704 23.1052L71.414 23.892ZM68.4433 24.5718C69.4252 24.168 70.3568 23.9514 71.414 23.892L71.3703 23.1052C70.2234 23.1696 69.2065 23.4065 68.1466 23.8425L68.4433 24.5718ZM66.4532 26.1114C66.919 25.48 67.4598 24.9764 68.4433 24.5718L68.1466 23.8425C67.015 24.308 66.3642 24.9095 65.8238 25.6419L66.4532 26.1114ZM65.7567 27.1807C66.0042 26.7779 66.219 26.4288 66.4532 26.1114L65.8238 25.6419C65.5662 25.991 65.3338 26.3698 65.09 26.7666L65.7567 27.1807ZM65.7344 27.2169L65.7567 27.1807L65.09 26.7666L65.0678 26.8027L65.7344 27.2169ZM64.842 28.5859C65.1968 28.0897 65.4805 27.6301 65.7344 27.2169L65.0678 26.8027C64.8139 27.2157 64.5429 27.6543 64.2057 28.1258L64.842 28.5859ZM64.1599 30.6045C64.2975 29.7291 64.521 29.0347 64.842 28.5859L64.2057 28.1258C63.7776 28.7245 63.5299 29.5647 63.3858 30.4814L64.1599 30.6045ZM63.9796 33.4409C63.9799 32.4502 64.0245 31.4661 64.1599 30.6045L63.3858 30.4814C63.2412 31.4014 63.1962 32.4318 63.1959 33.4407L63.9796 33.4409ZM64.6629 35.2522C64.3785 34.9495 64.2019 34.4423 63.9709 33.3582L63.2046 33.5233C63.4281 34.5722 63.6347 35.3053 64.0933 35.7933L64.6629 35.2522ZM66.2617 36.097C65.7981 36.0322 65.4851 35.9058 65.252 35.7625C65.0156 35.6173 64.8437 35.4447 64.6629 35.2522L64.0933 35.7933C64.2815 35.9937 64.5128 36.2318 64.8433 36.4349C65.1769 36.6399 65.5942 36.7993 66.1539 36.8775L66.2617 36.097ZM66.7467 36.5263C66.772 36.1332 66.772 36.1332 66.772 36.1332C66.772 36.1332 66.772 36.1332 66.772 36.1332C66.772 36.1332 66.7719 36.1332 66.7719 36.1332C66.7718 36.1331 66.7717 36.1331 66.7716 36.1331C66.7714 36.1331 66.7711 36.1331 66.7706 36.133C66.7697 36.133 66.7684 36.1329 66.7666 36.1328C66.7631 36.1326 66.7579 36.1322 66.7512 36.1318C66.7379 36.1309 66.7189 36.1297 66.6958 36.1281C66.6497 36.1251 66.5877 36.1209 66.5241 36.1166C66.4604 36.1121 66.3958 36.1076 66.344 36.1036C66.2843 36.0991 66.2597 36.0967 66.2617 36.097L66.1539 36.8775C66.1984 36.8837 66.3541 36.8946 66.4705 36.9026C66.535 36.9071 66.5977 36.9113 66.6442 36.9144C66.6675 36.916 66.6867 36.9172 66.7002 36.9181C66.7069 36.9185 66.7122 36.9189 66.7158 36.9191C66.7176 36.9193 66.719 36.9193 66.7199 36.9194C66.7204 36.9194 66.7208 36.9194 66.721 36.9194C66.7211 36.9194 66.7212 36.9194 66.7213 36.9194C66.7213 36.9195 66.7213 36.9195 66.7213 36.9195C66.7213 36.9195 66.7214 36.9195 66.7213 36.9195C66.7213 36.9195 66.7214 36.9195 66.7467 36.5263ZM66.1539 36.9008C66.1928 36.9062 66.2593 36.9086 66.3012 36.9099C66.3564 36.9118 66.4237 36.9136 66.4882 36.9151C66.5529 36.9166 66.6159 36.9179 66.6625 36.9189C66.6859 36.9193 66.7052 36.9196 66.7187 36.9199C66.7255 36.92 66.7308 36.9201 66.7344 36.9202C66.7362 36.9202 66.7376 36.9202 66.7386 36.9202C66.739 36.9202 66.7394 36.9202 66.7397 36.9202C66.7398 36.9202 66.7399 36.9202 66.7399 36.9202C66.74 36.9202 66.74 36.9202 66.74 36.9202C66.74 36.9202 66.74 36.9202 66.7467 36.5263C66.7533 36.1324 66.7533 36.1324 66.7533 36.1324C66.7533 36.1324 66.7533 36.1324 66.7532 36.1324C66.7532 36.1324 66.7531 36.1324 66.753 36.1324C66.7528 36.1324 66.7524 36.1324 66.752 36.1324C66.7511 36.1323 66.7498 36.1323 66.748 36.1323C66.7445 36.1322 66.7393 36.1321 66.7327 36.132C66.7195 36.1318 66.7005 36.1315 66.6775 36.131C66.6315 36.1301 66.5697 36.1288 66.5065 36.1274C66.4429 36.1259 66.3789 36.1242 66.328 36.1225C66.2639 36.1202 66.2496 36.1186 66.2617 36.1204L66.1539 36.9008ZM63.9509 35.9287C64.4523 36.4623 65.0755 36.7502 66.1539 36.9008L66.2617 36.1204C65.2906 35.9847 64.8589 35.7476 64.5205 35.3875L63.9509 35.9287ZM63.0108 33.5543C63.2334 34.6005 63.4474 35.3929 63.9509 35.9287L64.5205 35.3875C64.1913 35.0372 64.0072 34.4708 63.7772 33.3894L63.0108 33.5543ZM63.0087 33.5441L63.0108 33.5543L63.7772 33.3894L63.775 33.3792L63.0087 33.5441ZM63 33.4512V33.4616H63.7837V33.4512H63ZM63.1923 30.4507C63.0449 31.3885 63 32.4345 63 33.4512H63.7837C63.7837 32.4526 63.8282 31.453 63.9664 30.5737L63.1923 30.4507ZM64.0466 28.0109C63.5917 28.647 63.338 29.5235 63.1923 30.4507L63.9664 30.5737C64.1056 29.688 64.3351 28.9572 64.6829 28.4709L64.0466 28.0109ZM64.9011 26.6991C64.6473 27.1122 64.3795 27.5455 64.0466 28.0109L64.6829 28.4709C65.0334 27.9809 65.3139 27.5265 65.5678 27.1133L64.9011 26.6991ZM64.9253 26.6597L64.9011 26.6992L65.5678 27.1133L65.592 27.0739L64.9253 26.6597ZM65.6664 25.5246C65.4038 25.8805 65.1675 26.2655 64.9253 26.6597L65.592 27.0739C65.8378 26.6738 66.0566 26.3183 66.2958 25.9941L65.6664 25.5246ZM68.0724 23.6602C66.9038 24.1409 66.2254 24.7669 65.6664 25.5246L66.2958 25.9941C66.7803 25.3373 67.3486 24.8093 68.3691 24.3895L68.0724 23.6602ZM71.3594 22.9085C70.1901 22.9742 69.1519 23.2161 68.0724 23.6602L68.3691 24.3895C69.3705 23.9776 70.3234 23.756 71.4031 23.6952L71.3594 22.9085ZM71.8573 22.8693C71.6723 22.8856 71.5073 22.9001 71.3594 22.9085L71.4031 23.6952C71.5659 23.6861 71.7441 23.6703 71.9258 23.6543L71.8573 22.8693ZM71.8578 22.8692L71.8566 22.8693L71.9265 23.6542L71.9277 23.6541L71.8578 22.8692ZM71.8615 22.8689L71.8585 22.8691L71.927 23.6542L71.9299 23.6539L71.8615 22.8689ZM72.0313 22.854C71.9735 22.859 71.9166 22.864 71.8614 22.8689L71.93 23.6539C71.9853 23.649 72.0412 23.6441 72.098 23.6392L72.0313 22.854ZM72.8296 22.8056C72.5542 22.8118 72.2808 22.8326 72.0313 22.854L72.098 23.6392C72.3439 23.6181 72.5971 23.599 72.8467 23.5935L72.8296 22.8056ZM73.5528 16.7916C73.2668 18.4667 73.0486 20.4555 73.4416 22.2258L74.2064 22.0541C73.849 20.4438 74.0417 18.585 74.3251 16.925L73.5528 16.7916ZM74.5464 13.5442C74.1597 14.5627 73.7472 15.6528 73.5528 16.7916L74.3251 16.925C74.5045 15.8741 74.8877 14.8547 75.2785 13.8252L74.5464 13.5442ZM76.5175 11.2677C75.7541 11.8647 74.9359 12.5179 74.5464 13.5442L75.2785 13.8252C75.5791 13.0333 76.215 12.5026 76.9986 11.8897L76.5175 11.2677ZM79.6026 10.1536C78.5632 10.1267 77.5155 10.4872 76.5175 11.2677L76.9986 11.8897C77.8746 11.2046 78.7491 10.9197 79.5824 10.9413L79.6026 10.1536ZM82.4882 11.2667C81.6175 10.5902 80.6379 10.1804 79.6026 10.1536L79.5824 10.9413C80.4182 10.9629 81.2413 11.2937 82.009 11.8902L82.4882 11.2667ZM83.0154 11.8472C82.8896 11.6672 82.7119 11.4406 82.4882 11.2667L82.009 11.8902C82.1401 11.9921 82.2643 12.1429 82.3743 12.3003L83.0154 11.8472ZM83.0777 11.9403C83.0432 11.8677 82.9927 11.8066 82.9322 11.7602L82.4575 12.3872C82.421 12.3593 82.3906 12.3225 82.3701 12.2791L83.0777 11.9403ZM83.0809 11.947L83.0775 11.94L82.3703 12.2795L82.3736 12.2866L83.0809 11.947ZM83.0865 11.9588C83.0846 11.9549 83.0827 11.9509 83.0808 11.9468L82.3737 12.2867C82.3761 12.2917 82.3784 12.2965 82.3808 12.3014L83.0865 11.9588ZM83.1038 11.978C83.0893 11.9558 83.0739 11.9325 83.0577 11.9086L82.4096 12.3517C82.4233 12.372 82.4366 12.392 82.4494 12.4116L83.1038 11.978ZM82.3885 12.2511L82.3915 12.2672L83.1618 12.1225L83.1588 12.1065L82.3885 12.2511ZM82.3861 12.2385L82.3885 12.2515L83.1588 12.106L83.1563 12.093L82.3861 12.2385ZM83.8996 4.53987C82.4723 6.88833 81.8396 9.32152 82.3862 12.2387L83.1563 12.0928C82.6513 9.39789 83.2249 7.16117 84.5683 4.95076L83.8996 4.53987ZM83.9015 4.53671L83.8995 4.53994L84.5683 4.95069L84.5703 4.94746L83.9015 4.53671ZM83.9205 4.50827L83.9183 4.51134L84.5535 4.97283L84.5557 4.96975L83.9205 4.50827ZM89.4893 0.540075C87.7743 0.817369 85.6009 2.16876 83.9204 4.50833L84.5557 4.96975C86.1472 2.75398 88.1536 1.55417 89.6137 1.31807L89.4893 0.540075ZM92.6071 0.146464C91.6276 0.22575 90.6508 0.352272 89.4893 0.540075L89.6137 1.31807C90.7612 1.13253 91.7167 1.00908 92.6699 0.931917L92.6071 0.146464ZM100.394 0.540123C98.0751 0.164161 95.1449 -0.218478 92.5832 0.149146L92.6938 0.929231C95.1255 0.580276 97.9497 0.941996 100.269 1.31807L100.394 0.540123ZM106.059 4.58045C104.379 2.23442 102.109 0.818131 100.394 0.540123L100.269 1.31807C101.73 1.5548 103.832 2.81951 105.423 5.04101L106.059 4.58045ZM106.061 4.5836L106.059 4.58053L105.423 5.04093L105.425 5.044L106.061 4.5836ZM106.08 4.61189L106.078 4.60866L105.409 5.01894L105.411 5.02218L106.08 4.61189ZM107.605 12.2663C108.13 9.36985 107.497 6.94907 106.08 4.61199L105.411 5.02209C106.745 7.2227 107.319 9.44911 106.834 12.1248L107.605 12.2663ZM107.007 11.8323C106.976 11.8714 106.944 11.9105 106.913 11.9496L107.525 12.4415C107.555 12.4041 107.585 12.3667 107.615 12.3292L107.007 11.8323ZM107.305 11.6573C107.192 11.6766 107.085 11.7359 107.007 11.8323L107.615 12.3292C107.569 12.3869 107.504 12.4227 107.436 12.4342L107.305 11.6573ZM107.49 11.3569C107.317 11.4922 107.172 11.658 107.059 11.8065L107.682 12.285C107.774 12.1648 107.871 12.0573 107.97 11.9798L107.49 11.3569ZM110.376 10.2407C109.341 10.2676 108.361 10.6786 107.49 11.3569L107.97 11.9798C108.738 11.3817 109.561 11.0501 110.397 11.0284L110.376 10.2407ZM113.462 11.3579C112.464 10.5753 111.416 10.2137 110.376 10.2407L110.397 11.0284C111.23 11.0068 112.104 11.2924 112.98 11.9792L113.462 11.3579ZM115.433 13.6399C115.043 12.6113 114.225 11.9566 113.462 11.3579L112.98 11.9792C113.764 12.5937 114.4 13.1259 114.7 13.9202L115.433 13.6399ZM116.426 16.8955C116.232 15.7538 115.819 14.6612 115.433 13.6399L114.7 13.9202C115.091 14.9524 115.474 15.9747 115.654 17.0285L116.426 16.8955ZM116.537 22.343C116.93 20.5686 116.712 18.575 116.426 16.8955L115.654 17.0285C115.937 18.693 116.13 20.557 115.772 22.1718L116.537 22.343ZM118.122 22.9902C118.065 22.9851 118.007 22.9799 117.948 22.9749L117.881 23.76C117.939 23.765 117.996 23.7701 118.053 23.7751L118.122 22.9902ZM118.619 23.0294C118.472 23.0211 118.307 23.0065 118.122 22.9902L118.053 23.7751C118.235 23.7912 118.413 23.807 118.576 23.8162L118.619 23.0294ZM121.907 23.7832C120.827 23.3379 119.789 23.0953 118.619 23.0294L118.576 23.8162C119.655 23.877 120.608 24.0992 121.609 24.5122L121.907 23.7832ZM124.313 25.6524C123.754 24.8929 123.075 24.2652 121.907 23.7832L121.609 24.5122C122.63 24.9331 123.198 25.4626 123.683 26.1211L124.313 25.6524ZM125.054 26.7905C124.811 26.3952 124.575 26.0092 124.313 25.6524L123.683 26.1211C123.922 26.4462 124.141 26.8027 124.386 27.2038L125.054 26.7905ZM125.078 26.8301L125.054 26.7905L124.386 27.2038L124.411 27.2434L125.078 26.8301ZM125.932 28.1453C125.599 27.6786 125.332 27.2441 125.078 26.83L124.411 27.2434C124.665 27.6576 124.945 28.1132 125.296 28.6045L125.932 28.1453ZM126.786 30.5907C126.641 29.6613 126.387 28.7828 125.932 28.1453L125.296 28.6045C125.643 29.0923 125.873 29.8252 126.012 30.7134L126.786 30.5907ZM126.979 33.5987C126.979 32.5794 126.934 31.5308 126.786 30.5907L126.012 30.7134C126.15 31.5951 126.195 32.5974 126.195 33.5987H126.979ZM126.979 33.6092V33.5987H126.195V33.6092H126.979ZM126.968 33.7015L126.97 33.6914L126.204 33.5269L126.201 33.5371L126.968 33.7015ZM126.028 36.0814C126.531 35.5445 126.745 34.7505 126.968 33.7015L126.201 33.5371C125.971 34.6213 125.787 35.1895 125.458 35.541L126.028 36.0814ZM123.617 36.9008C124.122 36.8301 124.589 36.7641 124.984 36.6549C125.381 36.5449 125.748 36.3799 126.028 36.0814L125.458 35.541C125.318 35.6906 125.107 35.8035 124.776 35.8953C124.441 35.9879 124.028 36.0476 123.508 36.1204L123.617 36.9008ZM123.996 36.4447C123.933 36.0558 123.933 36.0558 123.933 36.0558C123.933 36.0558 123.933 36.0559 123.933 36.0559C123.932 36.0559 123.932 36.0559 123.932 36.056C123.931 36.0561 123.93 36.0563 123.929 36.0565C123.926 36.057 123.921 36.0577 123.916 36.0586C123.905 36.0604 123.889 36.0629 123.87 36.066C123.832 36.0721 123.782 36.0802 123.73 36.0884C123.678 36.0966 123.627 36.1045 123.587 36.1104C123.567 36.1134 123.551 36.1156 123.54 36.1169C123.517 36.12 123.536 36.1166 123.562 36.1166V36.9045C123.597 36.9045 123.636 36.8991 123.64 36.8986C123.657 36.8963 123.678 36.8934 123.7 36.8902C123.744 36.8837 123.799 36.8752 123.852 36.8669C123.905 36.8585 123.956 36.8502 123.995 36.844C124.014 36.8408 124.03 36.8383 124.041 36.8364C124.047 36.8355 124.051 36.8348 124.054 36.8343C124.056 36.8341 124.057 36.8339 124.058 36.8338C124.058 36.8337 124.058 36.8336 124.059 36.8336C124.059 36.8336 124.059 36.8336 124.059 36.8336H124.059C124.059 36.8336 124.059 36.8336 123.996 36.4447ZM125.315 35.4059C125.062 35.6766 124.655 35.9312 123.93 36.0563L124.062 36.833C124.924 36.6843 125.496 36.3625 125.886 35.9463L125.315 35.4059ZM126.008 33.506C125.777 34.593 125.6 35.1021 125.315 35.4059L125.886 35.9463C126.344 35.4571 126.551 34.7223 126.774 33.6707L126.008 33.506ZM125.819 30.744C125.954 31.6082 125.999 32.5951 125.999 33.5885L126.783 33.5882C126.782 32.5768 126.737 31.5437 126.593 30.6214L125.819 30.744ZM125.136 28.7193C125.457 29.1696 125.681 29.8661 125.819 30.744L126.593 30.6214C126.449 29.7023 126.201 28.8601 125.773 28.2601L125.136 28.7193ZM124.244 27.3468C124.498 27.761 124.781 28.2219 125.136 28.7193L125.773 28.2601C125.436 27.7873 125.165 27.3475 124.911 26.9334L124.244 27.3468ZM124.222 27.3105L124.244 27.3467L124.911 26.9334L124.889 26.8971L124.222 27.3105ZM123.525 26.2382C123.759 26.5565 123.974 26.9066 124.222 27.3105L124.889 26.8971C124.645 26.4993 124.413 26.1196 124.155 25.7696L123.525 26.2382ZM121.535 24.6945C122.518 25.1001 123.059 25.605 123.525 26.2382L124.155 25.7696C123.615 25.0353 122.964 24.4322 121.832 23.9654L121.535 24.6945ZM118.565 24.0129C119.622 24.0724 120.553 24.2896 121.535 24.6945L121.832 23.9654C120.772 23.5282 119.755 23.2907 118.609 23.2261L118.565 24.0129ZM118.034 23.9711C118.216 23.9873 118.398 24.0035 118.565 24.0129L118.609 23.2261C118.457 23.2176 118.288 23.2026 118.102 23.1862L118.034 23.9711ZM118.033 23.971L118.034 23.9712L118.102 23.1861L118.101 23.1861L118.033 23.971ZM117.955 23.9641C117.978 23.9662 118.002 23.9683 118.025 23.9704L118.094 23.1854C118.07 23.1834 118.047 23.1813 118.023 23.1792L117.955 23.9641ZM117.864 23.9562C117.894 23.9589 117.925 23.9615 117.955 23.9641L118.023 23.1792C117.993 23.1765 117.962 23.1738 117.931 23.1711L117.864 23.9562ZM115.461 17.0617C115.743 18.7225 115.93 20.5541 115.581 22.129L116.346 22.3002C116.73 20.5657 116.518 18.6045 116.233 16.9287L115.461 17.0617ZM114.517 13.9902C114.909 15.0253 115.285 16.0299 115.461 17.0617L116.233 16.9287C116.042 15.8091 115.637 14.7339 115.25 13.7099L114.517 13.9902ZM112.86 12.1346C113.648 12.7532 114.239 13.2547 114.517 13.9902L115.25 13.7099C114.882 12.7399 114.11 12.1157 113.341 11.5132L112.86 12.1346ZM110.402 11.2254C111.183 11.2051 112.014 11.4716 112.86 12.1346L113.341 11.5132C112.374 10.7546 111.37 10.412 110.381 10.4376L110.402 11.2254ZM108.09 12.1356C108.832 11.5575 109.616 11.2457 110.402 11.2254L110.381 10.4376C109.396 10.4632 108.455 10.8544 107.61 11.5127L108.09 12.1356ZM107.623 12.7211C107.757 12.5106 107.912 12.2743 108.09 12.1356L107.61 11.5127C107.307 11.7493 107.083 12.1086 106.963 12.2962L107.623 12.7211ZM107.606 12.7478C107.612 12.739 107.617 12.73 107.623 12.7211L106.963 12.2962C106.957 12.3052 106.952 12.3138 106.946 12.3222L107.606 12.7478ZM107.593 12.7676C107.597 12.7611 107.602 12.7545 107.606 12.7477L106.946 12.3222C106.942 12.3285 106.938 12.3347 106.935 12.3406L107.593 12.7676ZM107.582 12.7858C107.586 12.7798 107.589 12.7737 107.593 12.7675L106.935 12.3407C106.931 12.3462 106.928 12.3515 106.924 12.3567L107.582 12.7858ZM107.46 12.9526C107.51 12.8971 107.556 12.8251 107.582 12.7857L106.924 12.3567C106.91 12.3785 106.899 12.3953 106.89 12.4086C106.88 12.4233 106.877 12.4254 106.881 12.4212L107.46 12.9526ZM107.386 13.0212C107.42 12.9951 107.444 12.9693 107.46 12.9526L106.881 12.4212C106.883 12.4192 106.891 12.4101 106.905 12.3992L107.386 13.0212ZM107.192 13.1164C107.29 13.0921 107.358 13.0435 107.386 13.0212L106.905 12.3992C106.916 12.3904 106.951 12.3644 107.006 12.351L107.192 13.1164ZM106.977 13.1215C107.054 13.1367 107.128 13.1321 107.192 13.1164L107.006 12.351C107.042 12.3421 107.083 12.3395 107.127 12.3481L106.977 13.1215ZM105.786 15.7708C106.195 14.7446 106.711 13.8507 107.366 12.9708L106.738 12.4988C106.047 13.4277 105.495 14.3812 105.059 15.4782L105.786 15.7708ZM105.15 16.0452C105.401 16.1463 105.686 16.0234 105.786 15.7708L105.059 15.4782C105.119 15.3267 105.29 15.2529 105.441 15.3135L105.15 16.0452ZM104.877 15.405C104.776 15.6576 104.898 15.9442 105.15 16.0452L105.441 15.3135C105.591 15.3742 105.665 15.5461 105.604 15.6977L104.877 15.405ZM106.654 12.2837C105.92 13.2548 105.336 14.2513 104.877 15.405L105.604 15.6977C106.034 14.6174 106.582 13.682 107.278 12.7604L106.654 12.2837ZM106.58 12.4477C106.579 12.4577 106.578 12.4678 106.577 12.478L107.355 12.5661C107.356 12.5608 107.357 12.5549 107.358 12.5484L106.58 12.4477ZM106.63 12.1477C106.608 12.2689 106.59 12.3695 106.58 12.4477L107.358 12.5484C107.365 12.494 107.378 12.412 107.4 12.2932L106.63 12.1477ZM105.245 5.12776C106.567 7.30866 107.125 9.50184 106.63 12.1477L107.4 12.2932C107.936 9.42587 107.319 7.03674 105.915 4.71783L105.245 5.12776ZM100.238 1.51256C101.634 1.73887 103.693 2.96469 105.262 5.15317L105.898 4.69242C104.24 2.37943 102.013 1.00217 100.363 0.73461L100.238 1.51256ZM95.8797 1.01037C97.3841 1.08205 98.8945 1.29471 100.238 1.51256L100.363 0.73461C99.0103 0.515322 97.4656 0.297057 95.9168 0.223261L95.8797 1.01037ZM95.8536 1.02104C95.9315 1.02122 96.0062 1.00284 96.0725 0.969694L95.724 0.263939C95.764 0.243949 95.809 0.23294 95.8554 0.233047L95.8536 1.02104ZM92.6916 1.1278C93.6725 1.04859 94.6564 1.01827 95.8536 1.02104L95.8554 0.233047C94.6435 0.230248 93.6371 0.260922 92.6289 0.342335L92.6916 1.1278ZM71.9452 23.8503L71.9495 23.8499L71.8808 23.065L71.8767 23.0654L71.9452 23.8503ZM118.025 23.9704L118.032 23.971L118.101 23.1861L118.094 23.1854L118.025 23.9704ZM69.095 36.2007L66.2192 36.1167L66.1964 36.9044L69.0723 36.9884L69.095 36.2007ZM99.0115 35.9481L90.8994 36.0085L90.9052 36.7965L99.0172 36.736L99.0115 35.9481ZM123.521 36.1188L120.437 36.4503L120.521 37.2339L123.604 36.9023L123.521 36.1188ZM103.731 41.2209L99.3107 36.0842L98.7181 36.5998L103.138 41.7364L103.731 41.2209ZM108.778 43.3051L103.586 41.1154L103.283 41.842L108.474 44.0318L108.778 43.3051ZM120.193 36.5726L115.869 41.2092L116.441 41.7482L120.765 37.1117L120.193 36.5726ZM116.046 41.1002L108.517 43.29L108.735 44.0469L116.264 41.8571L116.046 41.1002ZM72.5811 39.7978L69.3706 36.3262L68.7967 36.8628L72.0072 40.3343L72.5811 39.7978ZM80.5026 42.6841L72.4294 39.6963L72.1587 40.4358L80.232 43.4236L80.5026 42.6841ZM90.5978 36.1545L86.5093 41.2307L87.1183 41.7267L91.2068 36.6504L90.5978 36.1545ZM86.7213 41.0958L80.2748 42.671L80.4599 43.4367L86.9063 41.8615L86.7213 41.0958ZM85.8577 21.2818L86.3004 20.6316L86.2719 20.612L86.2419 20.595L85.8577 21.2818ZM87.1661 22.1475L87.6414 21.5211L87.6145 21.5005L87.5859 21.4822L87.1661 22.1475ZM90.9023 24.3074L91.2586 23.6055L88.6675 22.2756L90.2436 24.7343L90.9023 24.3074ZM92.7165 29.007L91.9438 29.1383L92.2624 31.0331L93.3585 29.4589L92.7165 29.007ZM94.9365 27.449L95.011 28.2334L95.0163 28.2329L95.0218 28.2323L94.9365 27.449ZM95.012 27.4451L95.0067 28.2331H95.0075H95.0084L95.012 27.4451ZM95.0786 27.4488L94.995 28.2324L95.0001 28.2329L95.0051 28.2333L95.0786 27.4488ZM97.3681 29.0076L96.7451 29.4857L97.84 30.9283L98.1408 29.1389L97.3681 29.0076ZM99.0144 24.5768L99.6836 24.9869L101.112 22.6297L98.6613 23.8733L99.0144 24.5768ZM95.8785 25.4911L95.8204 24.7052L95.8168 24.7056L95.8132 24.7058L95.8785 25.4911ZM94.1911 25.4643L94.2859 24.6821L94.2786 24.6812L94.2711 24.6804L94.1911 25.4643ZM94.1542 25.4604L94.0712 26.244H94.0712L94.1542 25.4604ZM94.1043 25.4531L94.2462 24.6782L94.2272 24.6746L94.2081 24.6721L94.1043 25.4531ZM101.609 21.5225L102.035 22.1841L102.078 22.1561L102.117 22.1229L101.609 21.5225ZM96.0025 24.1616L96.0231 24.9493L96.0535 24.9485L96.0838 24.9453L96.0025 24.1616ZM95.7722 24.1821L95.8294 24.968L95.8336 24.9677L95.8378 24.9674L95.7722 24.1821ZM94.3365 24.1591L94.24 24.941L94.2487 24.9422L94.2575 24.9431L94.3365 24.1591ZM87.9127 21.0685L87.4402 21.6971L87.4662 21.7168L87.4937 21.7344L87.9127 21.0685ZM92.8624 31.9983L92.1609 31.6471L92.0913 31.7876L92.0806 31.9443L92.8624 31.9983ZM95.011 28.7656L95.1872 27.9977L95.0028 27.955L94.8194 28.0015L95.011 28.7656ZM97.2046 31.6821L97.9875 31.6476L97.9839 31.5653L97.9635 31.4855L97.2046 31.6821ZM102.392 22.5775L101.965 21.9165L101.92 21.9458L101.88 21.9809L102.392 22.5775ZM104.633 21.0631L104.277 20.361L104.205 20.3981L104.141 20.4496L104.633 21.0631ZM105.391 63.0055L104.652 63.2674L104.836 63.7935H105.391V63.0055ZM106.012 63.0055V63.7935H106.554L106.746 63.2835L106.012 63.0055ZM109.083 54.8135L109.816 55.0914L109.821 55.078L109.826 55.0645L109.083 54.8135ZM117.897 40.066L118.283 40.7521L118.414 40.6778L118.508 40.5602L117.897 40.066ZM120.479 36.8421L121.223 37.0889L119.869 36.3479L120.479 36.8421ZM114.319 55.6249L113.575 55.3782L113.571 55.3901L113.568 55.4021L114.319 55.6249ZM110.533 68.5409L110.579 69.3276L111.129 69.2948L111.285 68.7635L110.533 68.5409ZM100.192 69.1562L99.4327 69.3519L99.5931 69.981L100.238 69.9429L100.192 69.1562ZM96.9706 56.5238L97.7297 56.3282L97.725 56.3095L97.7193 56.291L96.9706 56.5238ZM95.0493 50.2787L95.798 50.0458L95.0606 47.6491L94.3027 50.0393L95.0493 50.2787ZM93.354 55.6249L92.6073 55.3855L92.6047 55.3938L92.6023 55.4021L93.354 55.6249ZM89.5677 68.5409L89.6148 69.3276L90.1639 69.2941L90.3194 68.7635L89.5677 68.5409ZM79.3958 69.1562L78.6392 69.3618L78.8056 69.981L79.4428 69.9429L79.3958 69.1562ZM76.0052 56.5238L76.7618 56.3185L76.7575 56.3024L76.7524 56.2864L76.0052 56.5238ZM69.8015 36.7827L70.4245 36.3046L69.0543 37.0202L69.8015 36.7827ZM81.426 54.2529L80.6699 54.4602L80.6715 54.4659L80.6731 54.4715L81.426 54.2529ZM83.9403 63.0055L83.1874 63.2242L83.351 63.7935H83.9403V63.0055ZM85.2164 63.0055V63.7935H85.7755L85.9575 63.262L85.2164 63.0055ZM88.2115 54.2529L88.9525 54.5093L88.9675 54.4656L88.9772 54.4206L88.2115 54.2529ZM91.9821 36.8421L91.2432 36.5798L91.2269 36.6263L91.2164 36.6744L91.9821 36.8421ZM97.2223 31.9983L97.9606 31.7341L97.9181 31.6142L97.8404 31.5138L97.2223 31.9983ZM102.324 54.2529L101.553 54.3925L101.564 54.4549L101.585 54.5147L102.324 54.2529ZM99.4818 38.3818L100.253 38.2422L100.242 38.1785L100.22 38.1176L99.4818 38.3818ZM78.3893 43.0538L79.1454 42.8466L79.0434 42.4705L78.6842 42.3238L78.3893 43.0538ZM72.8425 40.7884L72.2195 41.2665L72.3494 41.4375L72.5476 41.5184L72.8425 40.7884ZM113.101 42.7912L112.715 42.1052L112.453 42.2538L112.358 42.5402L113.101 42.7912ZM80.3673 43.1903C86.9961 43.1903 92.3699 37.787 92.3699 31.1216H90.8025C90.8025 36.9166 86.1305 41.6143 80.3673 41.6143V43.1903ZM68.3648 31.1216C68.3648 37.787 73.7385 43.1903 80.3673 43.1903V41.6143C74.6041 41.6143 69.9321 36.9166 69.9321 31.1216H68.3648ZM80.3673 19.0529C73.7385 19.0529 68.3648 24.4562 68.3648 31.1216H69.9321C69.9321 25.3266 74.6041 20.6289 80.3673 20.6289V19.0529ZM86.2419 20.595C84.5047 19.6128 82.4998 19.0529 80.3673 19.0529V20.6289C82.2238 20.6289 83.9649 21.1157 85.4737 21.9687L86.2419 20.595ZM87.5859 21.4822C87.1317 21.1924 86.6987 20.9057 86.3004 20.6316L85.4151 21.9321C85.8296 22.2174 86.2778 22.5141 86.7462 22.8129L87.5859 21.4822ZM92.3699 31.1216C92.3699 27.2053 90.5139 23.7247 87.6414 21.5211L86.6907 22.7741C89.1913 24.6924 90.8025 27.7177 90.8025 31.1216H92.3699ZM90.2436 24.7343C91.0853 26.0471 91.6747 27.538 91.9438 29.1383L93.4892 28.8756C93.1839 27.06 92.515 25.3686 91.561 23.8804L90.2436 24.7343ZM93.3585 29.4589C93.5715 29.153 93.8173 28.8863 94.1026 28.673L93.1678 27.4081C92.7251 27.7388 92.3664 28.1359 92.0745 28.555L93.3585 29.4589ZM94.1026 28.673C94.2283 28.5791 94.3842 28.4741 94.5475 28.3896L93.8304 26.9882C93.5663 27.1248 93.3358 27.2826 93.1678 27.4081L94.1026 28.673ZM94.5475 28.3896C94.7083 28.3064 94.869 28.247 95.011 28.2334L94.862 26.6645C94.4373 26.7053 94.0727 26.8629 93.8304 26.9882L94.5475 28.3896ZM95.0218 28.2323C95.0166 28.2329 95.0115 28.2331 95.0067 28.2331L95.0173 26.6571C94.9615 26.6568 94.9061 26.6596 94.8512 26.6656L95.0218 28.2323ZM95.0084 28.2331C95.0041 28.2331 94.9996 28.2328 94.995 28.2324L95.162 26.6653C95.1136 26.6601 95.0648 26.6574 95.0156 26.6571L95.0084 28.2331ZM95.0051 28.2333C95.1388 28.246 95.302 28.2982 95.4792 28.3858C95.6521 28.4712 95.8073 28.5747 95.9179 28.6573L96.8528 27.3924C96.5544 27.1694 95.8978 26.7348 95.152 26.6643L95.0051 28.2333ZM95.9179 28.6573C96.2338 28.8934 96.5084 29.1738 96.7451 29.4857L97.9911 28.5296C97.6745 28.1124 97.2975 27.7247 96.8528 27.3924L95.9179 28.6573ZM98.1408 29.1389C98.3927 27.6401 98.9256 26.2374 99.6836 24.9869L98.3452 24.1667C97.4859 25.5844 96.8812 27.1759 96.5954 28.8763L98.1408 29.1389ZM98.6613 23.8733C98.471 23.9699 98.2848 24.0603 98.1039 24.1438L98.7574 25.5763C98.958 25.4837 99.1618 25.3847 99.3674 25.2803L98.6613 23.8733ZM98.1039 24.1438C97.4012 24.4679 96.6188 24.6455 95.8204 24.7052L95.9366 26.2769C96.8837 26.2061 97.8543 25.9928 98.7574 25.5763L98.1039 24.1438ZM95.8132 24.7058C95.2925 24.7496 94.7838 24.7432 94.2859 24.6821L94.0962 26.2465C94.7089 26.3217 95.3254 26.3284 95.9439 26.2764L95.8132 24.7058ZM94.2711 24.6804C94.2598 24.6792 94.2484 24.6781 94.2371 24.6769L94.0712 26.244C94.0845 26.2454 94.0977 26.2468 94.1109 26.2481L94.2711 24.6804ZM94.2371 24.6769C94.2401 24.6771 94.2431 24.6776 94.2462 24.6782L93.9624 26.2281C93.9982 26.2347 94.0345 26.24 94.0712 26.244L94.2371 24.6769ZM94.2081 24.6721C93.5643 24.5855 92.932 24.4061 92.3089 24.1187L91.6554 25.5511C92.4221 25.9048 93.2049 26.1272 94.0004 26.2342L94.2081 24.6721ZM92.3089 24.1187C91.972 23.9633 91.62 23.791 91.2586 23.6055L90.5461 25.0092C90.924 25.2031 91.2958 25.3853 91.6554 25.5511L92.3089 24.1187ZM98.2129 24.3826C99.4102 23.8303 100.771 23.0063 102.035 22.1841L101.183 20.861C99.9354 21.673 98.6509 22.4467 97.5594 22.95L98.2129 24.3826ZM96.0838 24.9453C96.8155 24.8685 97.5443 24.6909 98.2129 24.3826L97.5594 22.95C97.0732 23.1743 96.5156 23.3155 95.9211 23.3779L96.0838 24.9453ZM96.0328 24.9487C96.0296 24.949 96.0264 24.9493 96.0231 24.9493L95.9819 23.3739C95.9436 23.3749 95.9053 23.3774 95.8668 23.3815L96.0328 24.9487ZM95.8378 24.9674C95.9027 24.9619 95.9676 24.9556 96.0328 24.9487L95.8668 23.3815C95.8131 23.3873 95.7597 23.3924 95.7066 23.3969L95.8378 24.9674ZM94.2575 24.9431C94.7744 24.9957 95.3042 25.0067 95.8294 24.968L95.715 23.3962C95.2868 23.4278 94.8484 23.4192 94.4155 23.3751L94.2575 24.9431ZM92.1999 24.3574C92.8621 24.6628 93.5413 24.8538 94.24 24.941L94.4331 23.3771C93.8922 23.3096 93.3684 23.1625 92.8534 22.925L92.1999 24.3574ZM87.4937 21.7344C88.9982 22.6919 90.7263 23.6778 92.1999 24.3574L92.8534 22.925C91.4638 22.2841 89.7997 21.3368 88.3318 20.4027L87.4937 21.7344ZM80.3673 19.3156C83.0242 19.3156 85.473 20.202 87.4402 21.6971L88.3853 20.4399C86.1554 18.7451 83.377 17.7396 80.3673 17.7396V19.3156ZM68.626 31.1216C68.626 24.6013 73.8828 19.3156 80.3673 19.3156V17.7396C73.0172 17.7396 67.0587 23.7309 67.0587 31.1216H68.626ZM80.3673 42.9276C73.8828 42.9276 68.626 37.6418 68.626 31.1216H67.0587C67.0587 38.5122 73.0172 44.5036 80.3673 44.5036V42.9276ZM92.0806 31.9443C91.661 38.0804 86.5768 42.9276 80.3673 42.9276V44.5036C87.4063 44.5036 93.1685 39.0092 93.6442 32.0524L92.0806 31.9443ZM92.1514 31.6725C92.1535 31.6643 92.1566 31.6557 92.1609 31.6471L93.5639 32.3496C93.6088 32.2591 93.6445 32.1629 93.67 32.0625L92.1514 31.6725ZM93.9468 28.4622C92.9342 29.2189 92.4369 30.5486 92.1514 31.6725L93.67 32.0625C93.9443 30.9825 94.3364 30.1346 94.8817 29.7272L93.9468 28.4622ZM94.428 28.156C94.2479 28.2492 94.0796 28.363 93.9468 28.4622L94.8817 29.7272C94.9723 29.6595 95.0658 29.5983 95.145 29.5574L94.428 28.156ZM94.8194 28.0015C94.6965 28.0327 94.5647 28.0853 94.428 28.156L95.145 29.5574C95.1727 29.5431 95.1921 29.5346 95.203 29.5303C95.2146 29.5257 95.2143 29.5267 95.2026 29.5297L94.8194 28.0015ZM96.0738 28.4465C95.8212 28.2578 95.4869 28.0673 95.1872 27.9977L94.8348 29.5334C94.8202 29.53 94.8504 29.5365 94.924 29.5751C94.9899 29.6096 95.0659 29.6569 95.1389 29.7115L96.0738 28.4465ZM97.9635 31.4855C97.6726 30.3511 97.0742 29.194 96.0738 28.4465L95.1389 29.7115C95.7628 30.1776 96.2122 30.9679 96.4458 31.8789L97.9635 31.4855ZM109.717 42.9276C103.408 42.9276 98.2609 37.9235 97.9875 31.6476L96.4217 31.7167C96.7316 38.8315 102.566 44.5036 109.717 44.5036V42.9276ZM121.459 31.1216C121.459 37.6418 116.202 42.9276 109.717 42.9276V44.5036C117.068 44.5036 123.026 38.5122 123.026 31.1216H121.459ZM109.717 19.3156C116.202 19.3156 121.459 24.6013 121.459 31.1216H123.026C123.026 23.7309 117.068 17.7396 109.717 17.7396V19.3156ZM102.117 22.1229C104.165 20.3715 106.818 19.3156 109.717 19.3156V17.7396C106.432 17.7396 103.423 18.9377 101.101 20.9222L102.117 22.1229ZM104.149 20.4439C103.497 20.8935 102.749 21.4049 101.965 21.9165L102.818 23.2385C103.62 22.7156 104.381 22.1951 105.035 21.7438L104.149 20.4439ZM104.141 20.4496C104.144 20.4475 104.146 20.4457 104.149 20.444L105.035 21.7438C105.066 21.7225 105.096 21.7001 105.125 21.6767L104.141 20.4496ZM109.717 19.0529C107.761 19.0529 105.911 19.5243 104.277 20.361L104.989 21.7653C106.407 21.0388 108.014 20.6289 109.717 20.6289V19.0529ZM121.72 31.1216C121.72 24.4562 116.346 19.0529 109.717 19.0529V20.6289C115.481 20.6289 120.153 25.3266 120.153 31.1216H121.72ZM109.717 43.1903C116.346 43.1903 121.72 37.787 121.72 31.1216H120.153C120.153 36.9166 115.481 41.6143 109.717 41.6143V43.1903ZM97.7148 31.1216C97.7148 37.787 103.089 43.1903 109.717 43.1903V41.6143C103.954 41.6143 99.2822 36.9166 99.2822 31.1216H97.7148ZM101.88 21.9809C99.3305 24.1928 97.7148 27.4679 97.7148 31.1216H99.2822C99.2822 27.9454 100.685 25.0994 102.904 23.1741L101.88 21.9809ZM105.391 63.7935H106.012V62.2176H105.391V63.7935ZM106.746 63.2835L109.816 55.0914L108.35 54.5355L105.279 62.7276L106.746 63.2835ZM118.508 40.5602L121.089 37.3363L119.869 36.3479L117.287 39.5719L118.508 40.5602ZM119.735 36.5953L113.575 55.3782L115.064 55.8717L121.223 37.0889L119.735 36.5953ZM113.568 55.4021L109.782 68.3183L111.285 68.7635L115.071 55.8477L113.568 55.4021ZM110.487 67.7543L100.145 68.3696L100.238 69.9429L110.579 69.3276L110.487 67.7543ZM100.951 68.9605L97.7297 56.3282L96.2115 56.7195L99.4327 69.3519L100.951 68.9605ZM97.7193 56.291L95.798 50.0458L94.3006 50.5115L96.2219 56.7567L97.7193 56.291ZM94.3027 50.0393L92.6073 55.3855L94.1006 55.8643L95.7959 50.518L94.3027 50.0393ZM92.6023 55.4021L88.816 68.3183L90.3194 68.7635L94.1056 55.8477L92.6023 55.4021ZM89.5207 67.7543L79.3488 68.3696L79.4428 69.9429L89.6148 69.3276L89.5207 67.7543ZM80.1524 68.9507L76.7618 56.3185L75.2486 56.7292L78.6392 69.3618L80.1524 68.9507ZM76.7524 56.2864L70.5488 36.5453L69.0543 37.0202L75.2579 56.7613L76.7524 56.2864ZM80.6731 54.4715L83.1874 63.2242L84.6932 62.7869L82.1789 54.0342L80.6731 54.4715ZM83.9403 63.7935H85.2164V62.2176H83.9403V63.7935ZM85.9575 63.262L88.9525 54.5093L87.4705 53.9965L84.4754 62.7492L85.9575 63.262ZM88.9772 54.4206L92.7479 37.0098L91.2164 36.6744L87.4458 54.0852L88.9772 54.4206ZM92.7211 37.1045L95.5255 29.1191L94.0475 28.5943L91.2432 36.5798L92.7211 37.1045ZM94.1685 29.3412L96.6042 32.4828L97.8404 31.5138L95.4045 28.3722L94.1685 29.3412ZM101.585 54.5147L104.652 63.2674L106.13 62.7437L103.063 53.991L101.585 54.5147ZM96.484 32.2625L98.7435 38.6461L100.22 38.1176L97.9606 31.7341L96.484 32.2625ZM98.7106 38.5215L101.553 54.3925L103.095 54.1133L100.253 38.2422L98.7106 38.5215ZM77.6332 43.2611L80.6699 54.4602L82.1821 54.0456L79.1454 42.8466L77.6332 43.2611ZM69.1786 37.2609L72.2195 41.2665L73.4654 40.3102L70.4245 36.3046L69.1786 37.2609ZM72.5476 41.5184L78.0943 43.7839L78.6842 42.3238L73.1374 40.0584L72.5476 41.5184ZM109.826 55.0645L113.843 43.0421L112.358 42.5402L108.34 54.5625L109.826 55.0645ZM113.486 43.4773L118.283 40.7521L117.512 39.38L112.715 42.1052L113.486 43.4773Z" fill="black"/>
</g>
</g>
<path d="M137.656 21.64L136.984 42.52L137.56 55H130.84L131.416 43.336L130.84 22.84L137.656 21.64ZM145.852 45.448C148.572 48.168 151.292 49.528 154.012 49.528C155.42 49.528 156.54 49.208 157.372 48.568C158.236 47.896 158.668 47.048 158.668 46.024C158.668 44.968 158.156 44.088 157.132 43.384C156.108 42.648 154.86 42.008 153.388 41.464C151.948 40.92 150.508 40.312 149.068 39.64C147.628 38.936 146.396 37.944 145.372 36.664C144.348 35.384 143.836 33.832 143.836 32.008C143.836 29.128 145.036 26.648 147.436 24.568C149.836 22.456 152.684 21.4 155.98 21.4C157.484 21.4 158.94 21.56 160.348 21.88C161.756 22.2 163.116 22.664 164.428 23.272L161.164 30.28C160.268 29.576 159.036 28.936 157.468 28.36C155.932 27.752 154.572 27.448 153.388 27.448C152.236 27.448 151.292 27.736 150.556 28.312C149.852 28.856 149.5 29.592 149.5 30.52C149.5 31.448 150.012 32.28 151.036 33.016C152.06 33.72 153.292 34.344 154.732 34.888C156.204 35.432 157.66 36.04 159.1 36.712C160.572 37.352 161.82 38.312 162.844 39.592C163.868 40.872 164.38 42.424 164.38 44.248C164.38 47.256 163.18 49.896 160.78 52.168C158.38 54.408 155.58 55.528 152.38 55.528C149.98 55.528 147.852 54.952 145.996 53.8C144.364 52.808 143.212 51.928 142.54 51.16L142.108 50.632L145.852 45.448Z" fill="black"/>
<defs>
<clipPath id="clip0_10_3644">
<rect width="64" height="70" fill="white" transform="translate(63)"/>
</clipPath>
</defs>
</svg>
