<svg width="980" height="1066" viewBox="0 0 980 1066" fill="none" xmlns="http://www.w3.org/2000/svg">
<mask id="path-1-outside-1_10_3615" maskUnits="userSpaceOnUse" x="0" y="0" width="980" height="1066" fill="black">
<rect fill="white" width="980" height="1066"/>
<path fill-rule="evenodd" clip-rule="evenodd" d="M591.2 327.757C571.974 340.2 551.718 352.366 534.194 360.403C525.352 364.459 515.504 366.886 505.35 367.946C505.083 367.953 504.814 367.971 504.543 368C503.634 368.097 502.728 368.183 501.824 368.259C494.525 368.793 487.112 368.645 479.84 367.908C470.351 366.73 461.14 364.155 452.127 360.021C430.206 349.966 404.234 335.246 381.476 320.843C349.342 296.554 309.322 282.148 265.937 282.148C160.015 282.148 74.1484 368.015 74.1484 473.937C74.1484 579.859 160.015 665.726 265.937 665.726C367.371 665.726 450.413 586.981 457.268 487.288C457.579 486.664 457.829 485.998 458.008 485.295C462.294 468.515 469.103 451.934 481.031 443.07C482.741 441.799 484.745 440.467 486.731 439.446C488.225 438.677 489.377 438.258 490.168 438.058C492.477 438.591 496.054 440.43 499.284 442.831C511.72 452.073 519.743 466.9 523.758 482.473C528.224 584.434 612.298 665.726 715.36 665.726C821.282 665.726 907.148 579.859 907.148 473.937C907.148 368.015 821.282 282.148 715.36 282.148C668.004 282.148 624.657 299.312 591.2 327.757ZM437.726 473.937C437.726 568.813 360.813 645.726 265.937 645.726C171.061 645.726 94.1484 568.813 94.1484 473.937C94.1484 379.061 171.061 302.148 265.937 302.148C296.478 302.148 325.158 310.118 350.009 324.091C356.233 328.352 362.979 332.793 370.043 337.275C411.181 368.661 437.726 418.199 437.726 473.937ZM427.254 370.166C441.003 391.494 450.636 415.724 455.034 441.735C458.899 436.214 463.528 431.159 469.102 427.017C471.351 425.346 474.309 423.345 477.58 421.662C480.667 420.074 484.689 418.422 489.028 418.008C489.408 417.966 489.794 417.946 490.184 417.949C490.527 417.951 490.867 417.97 491.203 418.006C499.19 418.757 507.011 423.656 511.213 426.778C517.037 431.106 522.025 436.194 526.261 441.744C530.378 417.384 539.089 394.585 551.47 374.269C548.438 375.799 545.453 377.242 542.532 378.582C530.238 384.221 516.816 387.199 503.452 388.192C494.73 388.922 486.116 388.822 477.613 387.784C477.424 387.765 477.236 387.745 477.048 387.725C476.79 387.698 476.535 387.661 476.284 387.614C465.264 386.141 454.43 383.081 443.789 378.2C438.457 375.754 432.915 373.055 427.254 370.166ZM603.187 343.823C615.326 335.946 626.874 328.088 636.878 321.229C637.096 321.08 637.305 320.924 637.507 320.761C660.878 308.859 687.335 302.148 715.36 302.148C810.236 302.148 887.148 379.061 887.148 473.937C887.148 568.813 810.236 645.726 715.36 645.726C620.484 645.726 543.571 568.813 543.571 473.937C543.571 421.933 566.679 375.325 603.187 343.823Z"/>
<path d="M649.108 959.484H658.627L705.648 834.731L767.164 651.648L840.617 610.148L880.148 561.052L785.829 847.088L727.852 1043.78L569.499 1053.15L520.175 860.777L490.755 765.672L464.795 847.088L406.818 1043.78L251.061 1053.15L199.142 860.777L104.148 560.148L150.713 621.148L235.648 655.648L282.148 826.193L320.648 959.484H340.189L386.051 826.193L443.789 561.052L486.731 439.446L524.029 487.288L558.628 584.5L602.148 826.193L649.108 959.484Z"/>
</mask>
<path fill-rule="evenodd" clip-rule="evenodd" d="M591.2 327.757C571.974 340.2 551.718 352.366 534.194 360.403C525.352 364.459 515.504 366.886 505.35 367.946C505.083 367.953 504.814 367.971 504.543 368C503.634 368.097 502.728 368.183 501.824 368.259C494.525 368.793 487.112 368.645 479.84 367.908C470.351 366.73 461.14 364.155 452.127 360.021C430.206 349.966 404.234 335.246 381.476 320.843C349.342 296.554 309.322 282.148 265.937 282.148C160.015 282.148 74.1484 368.015 74.1484 473.937C74.1484 579.859 160.015 665.726 265.937 665.726C367.371 665.726 450.413 586.981 457.268 487.288C457.579 486.664 457.829 485.998 458.008 485.295C462.294 468.515 469.103 451.934 481.031 443.07C482.741 441.799 484.745 440.467 486.731 439.446C488.225 438.677 489.377 438.258 490.168 438.058C492.477 438.591 496.054 440.43 499.284 442.831C511.72 452.073 519.743 466.9 523.758 482.473C528.224 584.434 612.298 665.726 715.36 665.726C821.282 665.726 907.148 579.859 907.148 473.937C907.148 368.015 821.282 282.148 715.36 282.148C668.004 282.148 624.657 299.312 591.2 327.757ZM437.726 473.937C437.726 568.813 360.813 645.726 265.937 645.726C171.061 645.726 94.1484 568.813 94.1484 473.937C94.1484 379.061 171.061 302.148 265.937 302.148C296.478 302.148 325.158 310.118 350.009 324.091C356.233 328.352 362.979 332.793 370.043 337.275C411.181 368.661 437.726 418.199 437.726 473.937ZM427.254 370.166C441.003 391.494 450.636 415.724 455.034 441.735C458.899 436.214 463.528 431.159 469.102 427.017C471.351 425.346 474.309 423.345 477.58 421.662C480.667 420.074 484.689 418.422 489.028 418.008C489.408 417.966 489.794 417.946 490.184 417.949C490.527 417.951 490.867 417.97 491.203 418.006C499.19 418.757 507.011 423.656 511.213 426.778C517.037 431.106 522.025 436.194 526.261 441.744C530.378 417.384 539.089 394.585 551.47 374.269C548.438 375.799 545.453 377.242 542.532 378.582C530.238 384.221 516.816 387.199 503.452 388.192C494.73 388.922 486.116 388.822 477.613 387.784C477.424 387.765 477.236 387.745 477.048 387.725C476.79 387.698 476.535 387.661 476.284 387.614C465.264 386.141 454.43 383.081 443.789 378.2C438.457 375.754 432.915 373.055 427.254 370.166ZM603.187 343.823C615.326 335.946 626.874 328.088 636.878 321.229C637.096 321.08 637.305 320.924 637.507 320.761C660.878 308.859 687.335 302.148 715.36 302.148C810.236 302.148 887.148 379.061 887.148 473.937C887.148 568.813 810.236 645.726 715.36 645.726C620.484 645.726 543.571 568.813 543.571 473.937C543.571 421.933 566.679 375.325 603.187 343.823Z" fill="black"/>
<path d="M649.108 959.484H658.627L705.648 834.731L767.164 651.648L840.617 610.148L880.148 561.052L785.829 847.088L727.852 1043.78L569.499 1053.15L520.175 860.777L490.755 765.672L464.795 847.088L406.818 1043.78L251.061 1053.15L199.142 860.777L104.148 560.148L150.713 621.148L235.648 655.648L282.148 826.193L320.648 959.484H340.189L386.051 826.193L443.789 561.052L486.731 439.446L524.029 487.288L558.628 584.5L602.148 826.193L649.108 959.484Z" fill="black"/>
<path d="M452.964 11.3707L453.854 17.3043L453.854 17.3043L452.964 11.3707ZM454.172 11.1936L453.692 5.21281L453.506 5.22773L453.322 5.25417L454.172 11.1936ZM452.373 11.3416L453.85 5.52641L452.873 5.27818L451.869 5.36278L452.373 11.3416ZM407.046 17.11L406.093 11.1861L406.093 11.1861L407.046 17.11ZM327.674 73.8776L322.811 70.3631L322.675 70.5517L322.554 70.7502L327.674 73.8776ZM305.695 184.711L311.591 183.6L311.591 183.6L305.695 184.711ZM306.406 188.928L312.356 188.159L312.356 188.159L306.406 188.928ZM306.524 190.228L300.528 190.423L300.528 190.423L306.524 190.228ZM306.402 191.371L300.701 189.5L300.701 189.5L306.402 191.371ZM306.099 191.939L301.403 188.205L298.831 191.439L300.935 194.995L306.099 191.939ZM308.783 196.38L313.976 193.373L313.94 193.312L313.904 193.252L308.783 196.38ZM308.784 196.381L303.592 199.388L303.627 199.449L303.664 199.509L308.784 196.381ZM310.554 199.291L315.692 196.192L315.692 196.192L310.554 199.291ZM318.349 215.069L324.042 213.172L324.042 213.172L318.349 215.069ZM317.401 216.967L319.298 222.659L319.298 222.659L317.401 216.967ZM315.503 216.018L321.196 214.121L321.195 214.121L315.503 216.018ZM307.985 200.84L313.123 197.742L313.123 197.741L307.985 200.84ZM306.26 198.004L311.379 194.875L311.351 194.829L311.321 194.783L306.26 198.004ZM306.259 198.003L301.139 201.131L301.168 201.178L301.197 201.224L306.259 198.003ZM299.576 186.248L304.97 183.62L304.778 183.226L304.53 182.864L299.576 186.248ZM292.91 178.697L289.242 183.445L289.242 183.445L292.91 178.697ZM253.995 163.621L253.841 169.619L253.841 169.619L253.995 163.621ZM212.512 178.694L208.829 173.958L212.512 178.694ZM185.212 209.467L190.817 211.607L190.817 211.607L185.212 209.467ZM170.459 257.235L176.373 258.25L176.373 258.25L170.459 257.235ZM139.058 357.002L139.568 362.98L139.569 362.98L139.058 357.002ZM136.514 357.223L137.039 363.2L137.039 363.2L136.514 357.223ZM136.449 357.229L135.924 351.252L135.924 351.252L136.449 357.229ZM128.505 357.849L128.171 351.858L128.17 351.858L128.505 357.849ZM81.079 368.64L83.3508 374.193L83.3508 374.193L81.079 368.64ZM48.0577 394.064L43.239 390.489L43.239 390.489L48.0577 394.064ZM37.1074 410.769L42.2117 413.923L42.2117 413.923L37.1074 410.769ZM36.7669 411.32L41.871 414.474L41.8712 414.474L36.7669 411.32ZM23.3337 431.819L28.205 435.322L28.205 435.322L23.3337 431.819ZM11.8343 465.125L17.7607 466.062L11.8343 465.125ZM9.00002 509.255L3.00002 509.253L2.99983 509.89L3.13321 510.512L9.00002 509.255ZM21.102 540.961L16.7408 545.081L16.7408 545.081L21.102 540.961ZM49.1198 555.648L49.9455 549.705L49.9452 549.705L49.1198 555.648ZM57.3709 556.243L57.2694 562.242L57.7582 550.256L57.3709 556.243ZM49.1198 556.003L48.2944 561.946L48.2945 561.946L49.1198 556.003ZM18.9214 543.021L23.2826 538.9L23.2826 538.9L18.9214 543.021ZM6.03319 509.727L11.9004 508.472L11.9004 508.472L6.03319 509.727ZM6 509.572H5.10938e-09V510.207L0.132806 510.828L6 509.572ZM6 509.414L12 509.414L12 509.414L6 509.414ZM8.87103 464.657L2.94457 463.72L2.94457 463.72L8.87103 464.657ZM20.898 430.068L25.7693 433.571L25.7693 433.571L20.898 430.068ZM34.2148 409.743L39.3189 412.897L39.3191 412.897L34.2148 409.743ZM34.5858 409.143L39.6902 412.296L39.6903 412.296L34.5858 409.143ZM45.6484 392.277L40.8297 388.702L40.8296 388.702L45.6484 392.277ZM79.9431 365.863L82.2149 371.417L82.2149 371.417L79.9431 365.863ZM128.338 354.854L128.673 360.844L128.673 360.844L128.338 354.854ZM136.152 354.243L136.677 360.22L136.687 360.219L136.152 354.243ZM136.17 354.241L135.646 348.264L135.635 348.265L136.17 354.241ZM136.215 354.238L136.739 360.215L136.74 360.215L136.215 354.238ZM138.803 354.012L138.292 348.034L138.292 348.034L138.803 354.012ZM167.503 256.727L173.416 257.743L173.416 257.743L167.503 256.727ZM182.409 208.397L176.804 206.258L176.804 206.258L182.409 208.397ZM210.67 176.326L214.354 181.062L214.354 181.062L210.67 176.326ZM254.073 160.622L253.918 166.62L253.918 166.62L254.073 160.622ZM294.745 176.323L291.076 181.071L291.076 181.071L294.745 176.323ZM301.577 183.865L296.669 187.316L297.203 188.076L297.943 188.639L301.577 183.865ZM302.022 184.413L296.605 186.993L296.608 186.999L302.022 184.413ZM302.073 184.521L296.659 187.107L296.66 187.109L302.073 184.521ZM302.171 184.724L296.768 187.333L296.96 187.731L297.209 188.098L302.171 184.724ZM302.83 185.709L297.819 189.01L308.728 184.608L302.83 185.709ZM302.784 185.465L308.682 184.364L308.681 184.357L302.784 185.465ZM302.747 185.266L308.644 184.158L308.643 184.155L302.747 185.266ZM325.144 72.2639L330.264 75.3926L330.265 75.3915L325.144 72.2639ZM325.174 72.2147L320.311 68.7008L320.175 68.889L320.054 69.0871L325.174 72.2147ZM325.208 72.1679L330.072 75.6818L330.072 75.6808L325.208 72.1679ZM406.57 14.148L405.617 8.22412L406.57 14.148ZM453.839 8.21063L454.321 14.1913L454.505 14.1765L454.687 14.1504L453.839 8.21063ZM571.642 14.1483L570.687 20.0718L570.687 20.0718L571.642 14.1483ZM654.474 73.2601L659.344 69.7545L659.343 69.7533L654.474 73.2601ZM654.508 73.3069L659.63 70.1829L659.511 69.9873L659.377 69.8013L654.508 73.3069ZM654.538 73.3561L659.661 70.2335L659.661 70.2321L654.538 73.3561ZM677.107 185.721L671.204 184.643L681.794 189.466L677.107 185.721ZM678.515 183.972L683.172 187.756L683.172 187.756L678.515 183.972ZM679.428 183.44L680.432 189.355L682.76 188.96L684.195 187.083L679.428 183.44ZM684.934 177.692L681.259 172.949L681.259 172.949L684.934 177.692ZM725.607 161.949L725.452 155.951L725.452 155.951L725.607 161.949ZM769.009 177.695L765.319 182.426L765.319 182.426L769.009 177.695ZM797.268 209.849L802.876 207.715L802.876 207.715L797.268 209.849ZM812.174 258.306L806.26 259.319L806.26 259.319L812.174 258.306ZM843.528 356.083L843.001 362.06L843.001 362.06L843.528 356.083ZM851.338 356.695L851.002 362.686L851.002 362.686L851.338 356.695ZM899.732 367.734L897.455 373.285L897.455 373.285L899.732 367.734ZM934.026 394.217L938.849 390.649L938.849 390.649L934.026 394.217ZM945.088 411.128L950.196 407.98L950.196 407.98L945.088 411.128ZM945.459 411.73L940.35 414.877L940.351 414.878L945.459 411.73ZM958.775 432.109L963.651 428.612L963.651 428.612L958.775 432.109ZM970.801 466.786L976.728 465.852L976.728 465.852L970.801 466.786ZM973.672 511.66L967.672 511.66V511.66H973.672ZM973.672 511.819L979.54 513.071L979.672 512.452V511.819H973.672ZM973.639 511.973L967.771 510.721L967.771 510.721L973.639 511.973ZM960.752 545.353L965.119 549.468L965.119 549.468L960.752 545.353ZM934 555L934.965 560.922L934.99 560.918L935.015 560.914L934 555ZM958.569 543.295L962.935 547.41L962.935 547.41L958.569 543.295ZM970.672 511.502L976.539 512.756L976.672 512.135L976.672 511.5L970.672 511.502ZM967.837 467.253L961.911 468.187L961.911 468.187L967.837 467.253ZM956.337 433.857L951.462 437.354L951.462 437.354L956.337 433.857ZM942.905 413.304L937.797 416.451L937.797 416.452L942.905 413.304ZM942.564 412.751L937.456 415.899L937.456 415.899L942.564 412.751ZM931.614 396.002L936.437 392.433L936.437 392.433L931.614 396.002ZM898.594 370.51L900.871 364.959L900.871 364.959L898.594 370.51ZM851.17 359.691L850.834 365.681L850.834 365.681L851.17 359.691ZM843.228 359.069L843.754 353.092L843.748 353.091L843.228 359.069ZM843.21 359.067L842.681 365.044L842.689 365.044L843.21 359.067ZM843.096 359.057L843.624 353.08L843.622 353.08L843.096 359.057ZM842.018 358.962L841.494 364.939L841.494 364.939L842.018 358.962ZM809.217 258.812L815.131 257.8L815.131 257.8L809.217 258.812ZM794.465 210.917L800.072 208.782L800.072 208.782L794.465 210.917ZM767.164 180.061L770.854 175.329L770.854 175.329L767.164 180.061ZM725.684 164.948L725.839 170.946L725.839 170.946L725.684 164.948ZM686.772 180.064L690.446 184.807L690.446 184.807L686.772 180.064ZM678.237 190.488L673.184 187.253L673.184 187.253L678.237 190.488ZM677.98 190.889L672.93 187.649L672.93 187.65L677.98 190.889ZM677.792 191.181L672.75 187.93L672.749 187.931L677.792 191.181ZM677.624 191.441L672.592 188.174L672.591 188.175L677.624 191.441ZM676.357 193.203L671.927 189.156L671.926 189.157L676.357 193.203ZM675.979 193.557L672.296 188.821L672.295 188.821L675.979 193.557ZM675.259 193.915L673.835 188.087L673.835 188.087L675.259 193.915ZM674.544 193.932L675.695 188.044L671.998 187.321L669.74 190.338L674.544 193.932ZM649.594 237.939L655.165 240.167L655.165 240.167L649.594 237.939ZM646.809 236.824L652.38 239.053L652.38 239.053L646.809 236.824ZM673.231 190.692L678.008 194.322L679.008 193.006L679.193 191.363L673.231 190.692ZM673.275 190.326L667.324 189.56L667.324 189.56L673.275 190.326ZM673.986 186.099L668.089 184.991L668.089 184.991L673.986 186.099ZM652.006 74.9667L657.13 71.8454L657.01 71.6469L656.874 71.4584L652.006 74.9667ZM571.164 17.1101L570.209 23.0336L570.209 23.0336L571.164 17.1101ZM503.755 9.39277L504.039 3.39949L502.482 3.32572L501.086 4.01896L503.755 9.39277ZM503.085 9.54849L503.099 3.54851L503.099 3.54851L503.085 9.54849ZM880.148 561.052L879.51 555.086L877.296 555.323L875.772 556.948L880.148 561.052ZM93.1559 557.282L97.5498 553.196L95.8399 551.358L93.3301 551.285L93.1559 557.282ZM427.254 554.357L427.21 548.357L424.376 548.378L422.592 550.581L427.254 554.357ZM551.47 553.437L556.007 549.511L554.195 547.416L551.426 547.437L551.47 553.437ZM619.148 631.661L614.611 635.586L615.531 636.65L616.828 637.193L619.148 631.661ZM698.648 665.008L696.328 670.541L698.281 671.36L700.316 670.771L698.648 665.008ZM813.934 631.661L815.601 637.424L817.184 636.966L818.311 635.765L813.934 631.661ZM142.316 610.148L137.922 614.234L138.898 615.284L140.243 615.779L142.316 610.148ZM265.937 655.648L263.865 661.279L265.579 661.91L267.354 661.479L265.937 655.648ZM364.648 631.661L366.065 637.491L368.035 637.012L369.311 635.437L364.648 631.661ZM453.854 17.3043C454.243 17.246 454.633 17.1889 455.023 17.1329L453.322 5.25417C452.905 5.31382 452.489 5.37478 452.074 5.43706L453.854 17.3043ZM450.895 17.1568C451.842 17.3975 452.847 17.4553 453.854 17.3043L452.074 5.43706C452.674 5.34711 453.278 5.38109 453.85 5.52641L450.895 17.1568ZM407.998 23.0339C424.816 20.3295 438.914 18.4965 452.876 17.3204L451.869 5.36278C437.525 6.57101 423.115 8.44892 406.093 11.1861L407.998 23.0339ZM332.537 77.392C356.561 44.1497 386.624 26.4709 407.998 23.0339L406.093 11.1861C380.82 15.2501 348.197 35.2359 322.811 70.3631L332.537 77.392ZM311.591 183.6C304.022 143.426 312.566 110.125 332.795 77.005L322.554 70.7502C301.041 105.973 291.592 142.265 299.799 185.822L311.591 183.6ZM312.356 188.159C312.203 186.971 311.938 185.442 311.591 183.6L299.799 185.822C300.139 187.626 300.349 188.872 300.455 189.696L312.356 188.159ZM312.521 190.033C312.501 189.396 312.432 188.746 312.356 188.159L300.455 189.696C300.509 190.113 300.525 190.335 300.528 190.423L312.521 190.033ZM312.103 193.242C312.582 191.781 312.535 190.444 312.521 190.033L300.528 190.423C300.529 190.482 300.525 190.417 300.534 190.294C300.544 190.179 300.574 189.887 300.701 189.5L312.103 193.242ZM310.795 195.674C311.564 194.707 311.93 193.767 312.103 193.241L300.701 189.5C300.784 189.248 300.976 188.742 301.403 188.205L310.795 195.674ZM313.904 193.252C312.991 191.758 312.112 190.318 311.263 188.884L300.935 194.995C301.834 196.514 302.758 198.026 303.663 199.508L313.904 193.252ZM313.977 193.375L313.976 193.373L303.591 199.386L303.592 199.388L313.977 193.375ZM315.692 196.192C315.092 195.198 314.492 194.215 313.905 193.253L303.664 199.509C304.254 200.475 304.837 201.429 305.416 202.389L315.692 196.192ZM324.042 213.172C321.942 206.875 318.727 201.225 315.692 196.192L305.416 202.389C308.391 207.323 311.006 212.013 312.657 216.967L324.042 213.172ZM319.298 222.659C323.228 221.349 325.351 217.102 324.042 213.172L312.657 216.967C311.871 214.609 313.146 212.06 315.503 211.275L319.298 222.659ZM309.811 217.915C311.121 221.845 315.369 223.969 319.298 222.659L315.503 211.275C317.861 210.489 320.41 211.763 321.196 214.121L309.811 217.915ZM302.847 203.938C305.808 208.849 308.272 213.299 309.811 217.915L321.195 214.121C319.208 208.159 316.142 202.749 313.123 197.742L302.847 203.938ZM301.14 201.133C301.721 202.084 302.289 203.014 302.847 203.938L313.123 197.741C312.544 196.782 311.958 195.822 311.379 194.875L301.14 201.133ZM301.197 201.224L301.198 201.225L311.321 194.783L311.321 194.782L301.197 201.224ZM294.182 188.876C296.293 193.209 298.825 197.345 301.139 201.131L311.379 194.874C309.012 191.002 306.788 187.353 304.97 183.62L294.182 188.876ZM289.242 183.445C291.121 184.897 292.935 187.163 294.621 189.632L304.53 182.864C302.67 180.14 299.997 176.59 296.579 173.95L289.242 183.445ZM253.841 169.619C265.876 169.929 277.88 174.666 289.242 183.445L296.579 173.95C283.64 163.951 269.239 158.011 254.15 157.623L253.841 169.619ZM216.196 183.43C229.142 173.361 241.869 169.311 253.841 169.619L254.15 157.623C239.023 157.233 223.643 162.436 208.829 173.958L216.196 183.43ZM190.817 211.607C195.078 200.443 204.113 192.828 216.196 183.43L208.829 173.958C197.064 183.108 185.231 192.59 179.606 207.327L190.817 211.607ZM176.373 258.25C179.063 242.582 184.817 227.329 190.817 211.607L179.606 207.327C173.67 222.88 167.466 239.211 164.546 256.22L176.373 258.25ZM174.526 335.198C169.189 311.286 172.042 283.475 176.373 258.25L164.546 256.22C160.176 281.672 156.933 311.464 162.815 337.813L174.526 335.198ZM139.569 362.98C143.321 362.659 147.121 362.375 150.844 362.294L150.581 350.297C146.463 350.387 142.354 350.698 138.548 351.023L139.569 362.98ZM137.039 363.2C137.879 363.126 138.721 363.052 139.568 362.98L138.548 351.023C137.682 351.097 136.826 351.172 135.988 351.246L137.039 363.2ZM128.84 363.84C131.386 363.697 134.18 363.451 136.975 363.206L135.924 351.252C133.081 351.502 130.488 351.729 128.171 351.858L128.84 363.84ZM83.3508 374.193C98.3856 368.043 112.651 364.745 128.84 363.84L128.17 351.858C110.609 352.84 95.0375 356.447 78.8072 363.087L83.3508 374.193ZM52.8764 397.639C60.0101 388.024 68.2905 380.354 83.3508 374.193L78.8072 363.087C61.4792 370.176 51.5137 379.336 43.239 390.489L52.8764 397.639ZM42.2117 413.923C46.002 407.788 49.2912 402.472 52.8764 397.639L43.239 390.489C39.295 395.805 35.7359 401.574 32.003 407.616L42.2117 413.923ZM41.8712 414.474L42.2117 413.923L32.003 407.616L31.6626 408.167L41.8712 414.474ZM28.205 435.322C33.6391 427.765 37.9833 420.766 41.871 414.474L31.6627 408.166C27.7759 414.456 23.6263 421.135 18.4624 428.316L28.205 435.322ZM17.7607 466.062C19.8674 452.731 23.2902 442.157 28.205 435.322L18.4624 428.316C11.9067 437.433 8.11401 450.228 5.9078 464.188L17.7607 466.062ZM15 509.257C15.0046 494.17 15.687 479.184 17.7607 466.062L5.9078 464.188C3.69378 478.198 3.00472 493.89 3.00002 509.253L15 509.257ZM25.4632 536.84C21.1078 532.23 18.4046 524.507 14.8668 507.998L3.13321 510.512C6.55595 526.485 9.71839 537.649 16.7408 545.081L25.4632 536.84ZM49.9452 549.705C42.8457 548.719 38.0527 546.794 34.483 544.612C30.8642 542.4 28.232 539.771 25.4632 536.84L16.7408 545.081C19.6234 548.132 23.1651 551.758 28.2249 554.851C33.3337 557.973 39.7239 560.401 48.2944 561.591L49.9452 549.705ZM57.3709 556.243C57.7582 550.256 57.7582 550.256 57.7582 550.256C57.7581 550.256 57.7581 550.256 57.758 550.256C57.7578 550.256 57.7575 550.256 57.757 550.256C57.7562 550.255 57.7549 550.255 57.7532 550.255C57.7498 550.255 57.7446 550.255 57.7377 550.254C57.7238 550.253 57.7032 550.252 57.6762 550.25C57.6221 550.247 57.5425 550.242 57.4408 550.235C57.2373 550.222 56.9454 550.203 56.5924 550.179C55.886 550.133 54.9369 550.069 53.9635 550.003C52.988 549.936 51.9976 549.866 51.2054 549.806C50.2902 549.737 49.914 549.701 49.9455 549.705L48.294 561.591C48.9751 561.686 51.3593 561.852 53.1425 561.974C54.1293 562.042 55.0892 562.106 55.8017 562.153C56.1581 562.177 56.4531 562.196 56.6591 562.209C56.7622 562.216 56.843 562.221 56.8982 562.225C56.9258 562.227 56.947 562.228 56.9614 562.229C56.9685 562.23 56.974 562.23 56.9777 562.23C56.9796 562.23 56.981 562.23 56.982 562.23C56.9824 562.231 56.9828 562.231 56.9831 562.231C56.9832 562.231 56.9833 562.231 56.9834 562.231C56.9834 562.231 56.9835 562.231 57.3709 556.243ZM48.2945 561.946C48.8899 562.029 49.9083 562.064 50.5498 562.085C51.3945 562.114 52.4258 562.141 53.4133 562.164C54.4045 562.187 55.3679 562.207 56.0823 562.221C56.4399 562.227 56.7359 562.233 56.9428 562.237C57.0463 562.238 57.1275 562.24 57.1831 562.241C57.2108 562.241 57.2322 562.242 57.2467 562.242C57.254 562.242 57.2596 562.242 57.2634 562.242C57.2653 562.242 57.2667 562.242 57.2677 562.242C57.2682 562.242 57.2686 562.242 57.2689 562.242C57.269 562.242 57.2692 562.242 57.2692 562.242C57.2693 562.242 57.2694 562.242 57.3709 556.243C57.4723 550.244 57.4723 550.244 57.4723 550.244C57.4723 550.244 57.4722 550.244 57.4721 550.244C57.472 550.244 57.4717 550.244 57.4713 550.244C57.4705 550.244 57.4692 550.244 57.4676 550.244C57.4642 550.244 57.4591 550.244 57.4523 550.244C57.4386 550.243 57.4182 550.243 57.3914 550.243C57.3377 550.242 57.2585 550.24 57.1572 550.238C56.9545 550.235 56.6636 550.23 56.3117 550.223C55.6073 550.209 54.6617 550.19 53.6928 550.168C52.7201 550.145 51.7399 550.119 50.9605 550.093C49.9781 550.059 49.76 550.035 49.9451 550.061L48.2945 561.946ZM14.5602 547.142C22.2388 555.269 31.7812 559.653 48.2944 561.946L49.9452 550.061C35.0744 547.995 28.4643 544.385 23.2826 538.9L14.5602 547.142ZM0.165956 510.983C3.5745 526.915 6.85155 538.983 14.5602 547.142L23.2826 538.9C18.2422 533.566 15.4235 524.94 11.9004 508.472L0.165956 510.983ZM0.132806 510.828L0.165998 510.983L11.9004 508.472L11.8672 508.317L0.132806 510.828ZM5.10938e-09 509.414V509.572H12V509.414H5.10938e-09ZM2.94457 463.72C0.687736 478.001 -6.89046e-05 493.93 5.1688e-09 509.414L12 509.414C11.9999 494.206 12.6813 478.984 14.7975 465.593L2.94457 463.72ZM16.0268 426.565C9.06104 436.252 5.17576 449.601 2.94457 463.72L14.7975 465.593C16.929 452.105 20.4442 440.976 25.7693 433.571L16.0268 426.565ZM29.1106 406.589C25.224 412.879 21.1231 419.478 16.0268 426.565L25.7693 433.571C31.1359 426.108 35.4315 419.189 39.3189 412.897L29.1106 406.589ZM29.4815 405.989L29.1104 406.59L39.3191 412.897L39.6902 412.296L29.4815 405.989ZM40.8296 388.702C36.8087 394.122 33.1903 399.986 29.4814 405.989L39.6903 412.296C43.4543 406.204 46.8041 400.789 50.4671 395.852L40.8296 388.702ZM77.6713 360.31C59.7762 367.631 49.3894 377.164 40.8297 388.702L50.4671 395.852C57.886 385.851 66.5877 377.81 82.2149 371.417L77.6713 360.31ZM128.003 348.863C110.099 349.864 94.2005 353.548 77.6713 360.31L82.2149 371.417C97.5486 365.144 112.14 361.769 128.673 360.844L128.003 348.863ZM135.627 348.266C132.795 348.515 130.268 348.736 128.003 348.863L128.673 360.844C131.166 360.705 133.894 360.465 136.677 360.22L135.627 348.266ZM135.635 348.265L135.617 348.267L136.687 360.219L136.705 360.218L135.635 348.265ZM135.691 348.26L135.646 348.264L136.694 360.219L136.739 360.215L135.691 348.26ZM138.292 348.034C137.406 348.11 136.536 348.186 135.69 348.261L136.74 360.215C137.588 360.14 138.444 360.065 139.313 359.991L138.292 348.034ZM150.516 347.297C146.298 347.39 142.112 347.708 138.292 348.034L139.313 359.991C143.079 359.669 146.956 359.378 150.778 359.295L150.516 347.297ZM161.589 255.712C157.21 281.221 153.869 311.508 159.887 338.466L171.598 335.852C166.125 311.33 169.076 283.023 173.416 257.743L161.589 255.712ZM176.804 206.258C170.883 221.769 164.567 238.369 161.589 255.712L173.416 257.743C176.163 241.739 182.03 226.216 188.015 210.537L176.804 206.258ZM206.987 171.59C195.297 180.682 182.769 190.629 176.804 206.258L188.015 210.537C192.617 198.478 202.354 190.396 214.354 181.062L206.987 171.59ZM254.227 154.624C238.311 154.214 222.268 159.705 206.987 171.59L214.354 181.062C227.767 170.63 241.158 166.291 253.918 166.62L254.227 154.624ZM298.413 171.576C285.08 161.273 270.08 155.032 254.227 154.624L253.918 166.62C266.716 166.949 279.32 171.987 291.076 181.071L298.413 171.576ZM306.486 180.415C304.559 177.674 301.839 174.223 298.413 171.576L291.076 181.071C293.083 182.622 294.984 184.919 296.669 187.316L306.486 180.415ZM307.439 181.833C306.912 180.727 306.138 179.797 305.212 179.091L297.943 188.639C297.384 188.214 296.919 187.653 296.605 186.993L307.439 181.833ZM307.488 181.936L307.436 181.828L296.608 186.999L296.659 187.107L307.488 181.936ZM307.574 182.115C307.545 182.055 307.516 181.994 307.487 181.933L296.66 187.109C296.696 187.184 296.732 187.258 296.768 187.333L307.574 182.115ZM307.84 182.408C307.617 182.069 307.381 181.715 307.133 181.351L297.209 188.098C297.42 188.407 297.623 188.712 297.819 189.01L307.84 182.408ZM296.886 186.567L296.932 186.811L308.728 184.608L308.682 184.364L296.886 186.567ZM296.85 186.374L296.887 186.573L308.681 184.357L308.644 184.158L296.85 186.374ZM320.025 69.1352C298.169 104.899 288.481 141.953 296.851 186.377L308.643 184.155C300.911 143.116 309.693 109.054 330.264 75.3926L320.025 69.1352ZM320.054 69.0871L320.024 69.1364L330.265 75.3915L330.295 75.3423L320.054 69.0871ZM320.345 68.654L320.311 68.7008L330.038 75.7286L330.072 75.6818L320.345 68.654ZM405.617 8.22412C379.357 12.4469 346.076 33.0266 320.344 68.6549L330.072 75.6808C354.442 41.9377 385.164 23.6673 407.522 20.0719L405.617 8.22412ZM453.358 2.22998C438.36 3.43739 423.403 5.36414 405.617 8.22412L407.522 20.0719C425.093 17.2464 439.724 15.3664 454.321 14.1913L453.358 2.22998ZM572.597 8.22485C537.087 2.49948 492.218 -3.32757 452.992 2.27082L454.687 14.1504C491.921 8.83632 535.167 14.3448 570.687 20.0718L572.597 8.22485ZM659.343 69.7533C633.609 34.0266 598.854 12.4585 572.597 8.22484L570.687 20.0718C593.046 23.6769 625.238 42.9367 649.606 76.7669L659.343 69.7533ZM659.377 69.8013L659.344 69.7545L649.605 76.7657L649.639 76.8125L659.377 69.8013ZM659.661 70.2321L659.63 70.1829L649.385 76.4309L649.415 76.4802L659.661 70.2321ZM683.009 186.798C691.059 142.689 681.353 105.824 659.661 70.2335L649.415 76.4788C669.839 109.991 678.64 143.896 671.204 184.643L683.009 186.798ZM673.859 180.189C673.375 180.784 672.895 181.379 672.42 181.975L681.794 189.466C682.249 188.896 682.709 188.326 683.172 187.756L673.859 180.189ZM678.424 177.524C676.697 177.817 675.051 178.721 673.859 180.189L683.172 187.756C682.458 188.635 681.466 189.179 680.432 189.355L678.424 177.524ZM681.259 172.949C678.6 175.01 676.39 177.534 674.661 179.796L684.195 187.083C685.595 185.252 687.086 183.615 688.609 182.435L681.259 172.949ZM725.452 155.951C709.594 156.36 694.592 162.619 681.259 172.949L688.609 182.435C700.365 173.326 712.967 168.277 725.761 167.947L725.452 155.951ZM772.699 172.964C757.419 161.047 741.373 155.54 725.452 155.951L725.761 167.947C738.518 167.617 751.906 171.966 765.319 182.426L772.699 172.964ZM802.876 207.715C796.914 192.052 784.39 182.081 772.699 172.964L765.319 182.426C777.318 191.784 787.057 199.889 791.661 211.984L802.876 207.715ZM818.088 257.294C815.111 239.908 808.796 223.268 802.876 207.715L791.661 211.984C797.645 227.704 803.513 243.271 806.26 259.319L818.088 257.294ZM819.791 340.252C825.806 313.23 822.467 282.87 818.088 257.294L806.26 259.319C810.6 284.667 813.552 313.053 808.078 337.644L819.791 340.252ZM844.054 350.107C843.187 350.03 842.294 349.951 841.385 349.874L840.361 361.83C841.253 361.906 842.132 361.984 843.001 362.06L844.054 350.107ZM851.673 350.705C849.41 350.578 846.885 350.356 844.054 350.107L843.001 362.06C845.782 362.305 848.51 362.546 851.002 362.686L851.673 350.705ZM902.009 362.183C885.479 355.403 869.579 351.708 851.673 350.705L851.002 362.686C867.532 363.612 882.123 366.996 897.455 373.285L902.009 362.183ZM938.849 390.649C930.291 379.083 919.906 369.524 902.009 362.183L897.455 373.285C913.081 379.695 921.783 387.758 929.202 397.786L938.849 390.649ZM950.196 407.98C946.487 401.961 942.869 396.082 938.849 390.649L929.202 397.786C932.866 402.737 936.215 408.166 939.979 414.275L950.196 407.98ZM950.567 408.583L950.196 407.98L939.979 414.275L940.35 414.877L950.567 408.583ZM963.651 428.612C958.554 421.505 954.453 414.889 950.567 408.582L940.351 414.878C944.238 421.186 948.533 428.123 953.9 435.605L963.651 428.612ZM976.728 465.852C974.497 451.699 970.613 438.32 963.651 428.612L953.9 435.605C959.226 443.033 962.742 454.195 964.874 467.72L976.728 465.852ZM979.672 511.66C979.672 496.137 978.984 480.168 976.728 465.852L964.874 467.72C966.99 481.148 967.672 496.412 967.672 511.66L979.672 511.66ZM979.672 511.819V511.66H967.672V511.819H979.672ZM979.507 513.225L979.54 513.071L967.804 510.567L967.771 510.721L979.507 513.225ZM965.119 549.468C972.823 541.292 976.098 529.2 979.507 513.225L967.771 510.721C964.248 527.233 961.428 535.886 956.385 541.238L965.119 549.468ZM928.191 561.946C935.927 560.869 943.088 559.864 949.123 558.202C955.213 556.526 960.835 554.013 965.119 549.468L956.385 541.238C954.239 543.516 951.012 545.236 945.938 546.633C940.81 548.044 934.491 548.953 926.535 550.061L928.191 561.946ZM934 555C933.035 549.078 933.035 549.078 933.035 549.078C933.035 549.078 933.035 549.078 933.034 549.078C933.034 549.078 933.034 549.078 933.034 549.078C933.033 549.078 933.032 549.079 933.031 549.079C933.028 549.079 933.024 549.08 933.018 549.081C933.007 549.083 932.99 549.085 932.968 549.089C932.923 549.096 932.858 549.107 932.774 549.12C932.607 549.148 932.367 549.186 932.077 549.233C931.497 549.326 930.721 549.45 929.932 549.574C929.139 549.699 928.35 549.82 927.737 549.91C927.428 549.955 927.188 549.988 927.025 550.009C926.662 550.055 926.953 550.003 927.363 550.003V562.003C927.894 562.003 928.483 561.92 928.548 561.912C928.814 561.878 929.134 561.833 929.469 561.784C930.146 561.685 930.986 561.556 931.792 561.429C932.602 561.302 933.395 561.175 933.984 561.081C934.279 561.033 934.524 560.994 934.695 560.966C934.78 560.952 934.848 560.941 934.894 560.933C934.917 560.93 934.934 560.927 934.947 560.925C934.953 560.924 934.957 560.923 934.96 560.923C934.962 560.922 934.963 560.922 934.964 560.922C934.964 560.922 934.965 560.922 934.965 560.922C934.965 560.922 934.965 560.922 934.965 560.922C934.965 560.922 934.965 560.922 934 555ZM954.202 539.181C950.317 543.303 944.088 547.181 932.985 549.086L935.015 560.914C948.211 558.649 956.963 553.749 962.935 547.41L954.202 539.181ZM964.804 510.248C961.266 526.802 958.562 534.554 954.202 539.181L962.935 547.41C969.955 539.961 973.117 528.771 976.539 512.756L964.804 510.248ZM961.911 468.187C963.985 481.347 964.667 496.376 964.672 511.504L976.672 511.5C976.667 496.097 975.978 480.365 973.764 466.319L961.911 468.187ZM951.462 437.354C956.38 444.211 959.804 454.818 961.911 468.187L973.764 466.319C971.558 452.323 967.767 439.498 961.213 430.36L951.462 437.354ZM937.797 416.452C941.684 422.76 946.028 429.778 951.462 437.354L961.213 430.36C956.049 423.16 951.899 416.463 948.013 410.156L937.797 416.452ZM937.456 415.899L937.797 416.451L948.013 410.156L947.672 409.604L937.456 415.899ZM926.791 399.57C930.376 404.417 933.666 409.748 937.456 415.899L947.672 409.604C943.94 403.546 940.381 397.763 936.437 392.433L926.791 399.57ZM896.317 376.061C911.374 382.238 919.655 389.927 926.791 399.57L936.437 392.433C928.164 381.251 918.199 372.067 900.871 364.959L896.317 376.061ZM850.834 365.681C867.021 366.588 881.283 369.895 896.317 376.061L900.871 364.959C884.64 358.301 869.067 354.684 851.506 353.7L850.834 365.681ZM842.701 365.045C845.494 365.292 848.289 365.539 850.834 365.681L851.506 353.7C849.189 353.57 846.597 353.342 843.754 353.092L842.701 365.045ZM842.689 365.044L842.707 365.046L843.748 353.091L843.73 353.09L842.689 365.044ZM841.494 364.939C841.854 364.971 842.212 365.002 842.569 365.034L843.622 353.08C843.265 353.049 842.904 353.017 842.541 352.985L841.494 364.939ZM840.106 364.819C840.57 364.859 841.032 364.899 841.494 364.939L842.542 352.985C842.075 352.944 841.604 352.903 841.129 352.863L840.106 364.819ZM803.303 259.825C807.634 285.117 810.488 313.009 805.149 336.992L816.863 339.6C822.743 313.186 819.5 283.319 815.131 257.8L803.303 259.825ZM788.857 213.051C794.858 228.814 800.613 244.112 803.303 259.825L815.131 257.8C812.212 240.749 806.008 224.376 800.072 208.782L788.857 213.051ZM763.474 184.792C775.555 194.213 784.593 201.85 788.857 213.051L800.072 208.782C794.449 194.01 782.619 184.505 770.854 175.329L763.474 184.792ZM725.839 170.946C737.804 170.637 750.528 174.696 763.474 184.792L770.854 175.329C756.04 163.777 740.659 158.559 725.529 158.95L725.839 170.946ZM690.446 184.807C701.808 176.003 713.809 171.256 725.839 170.946L725.529 158.95C710.437 159.339 696.035 165.296 683.097 175.321L690.446 184.807ZM683.29 193.724C685.343 190.518 687.719 186.92 690.446 184.807L683.097 175.321C678.446 178.924 675.014 184.396 673.184 187.253L683.29 193.724ZM683.029 194.13C683.115 193.997 683.202 193.86 683.29 193.724L673.184 187.253C673.096 187.39 673.012 187.521 672.93 187.649L683.029 194.13ZM682.835 194.432C682.899 194.333 682.964 194.232 683.03 194.129L672.93 187.65C672.868 187.746 672.808 187.839 672.75 187.93L682.835 194.432ZM682.656 194.709C682.716 194.617 682.776 194.524 682.836 194.431L672.749 187.931C672.695 188.015 672.642 188.096 672.592 188.174L682.656 194.709ZM680.787 197.249C681.559 196.404 682.268 195.307 682.657 194.708L672.591 188.175C672.376 188.506 672.206 188.762 672.063 188.965C671.905 189.188 671.868 189.221 671.927 189.156L680.787 197.249ZM679.662 198.294C680.174 197.896 680.555 197.503 680.788 197.249L671.926 189.157C671.955 189.126 672.082 188.988 672.296 188.821L679.662 198.294ZM676.684 199.744C678.198 199.374 679.225 198.634 679.663 198.294L672.295 188.821C672.467 188.688 673.001 188.291 673.835 188.087L676.684 199.744ZM673.393 199.821C674.574 200.052 675.703 199.983 676.684 199.744L673.835 188.087C674.388 187.952 675.021 187.912 675.695 188.044L673.393 199.821ZM655.165 240.167C661.417 224.538 669.323 210.926 679.349 197.527L669.74 190.338C659.156 204.484 650.705 219.005 644.023 235.71L655.165 240.167ZM645.416 244.345C649.262 245.884 653.627 244.013 655.165 240.167L644.024 235.71C644.946 233.403 647.565 232.28 649.873 233.203L645.416 244.345ZM641.238 234.596C639.7 238.442 641.57 242.807 645.416 244.345L649.873 233.203C652.18 234.126 653.303 236.745 652.38 239.053L641.238 234.596ZM668.453 187.062C657.216 201.851 648.266 217.027 641.238 234.596L652.38 239.053C658.961 222.601 667.343 208.357 678.008 194.322L668.453 187.062ZM667.324 189.56C667.304 189.713 667.286 189.867 667.268 190.021L679.193 191.363C679.202 191.282 679.213 191.192 679.226 191.093L667.324 189.56ZM668.089 184.991C667.742 186.837 667.477 188.37 667.324 189.56L679.226 191.093C679.332 190.265 679.542 189.016 679.882 187.207L668.089 184.991ZM646.882 78.088C667.113 111.3 675.66 144.699 668.089 184.991L679.882 187.207C688.087 143.542 678.641 107.159 657.13 71.8454L646.882 78.088ZM570.209 23.0336C591.584 26.48 623.117 45.1475 647.139 78.475L656.874 71.4584C631.485 36.2349 597.39 15.2612 572.119 11.1866L570.209 23.0336ZM503.471 15.386C526.507 16.4776 549.634 19.7161 570.209 23.0336L572.119 11.1866C551.408 7.84716 527.755 4.5233 504.039 3.39949L503.471 15.386ZM503.071 15.5485C504.263 15.5512 505.407 15.2714 506.423 14.7666L501.086 4.01896C501.699 3.71454 502.388 3.54688 503.099 3.54851L503.071 15.5485ZM454.653 17.1743C469.673 15.9681 484.739 15.5064 503.071 15.5485L503.099 3.54851C484.541 3.50589 469.13 3.97302 453.692 5.21281L454.653 17.1743ZM136.974 363.206L137.039 363.2L135.989 351.246L135.924 351.252L136.974 363.206ZM842.567 365.034L842.681 365.044L843.738 353.09L843.624 353.08L842.567 365.034ZM93.3301 551.285L49.294 550.006L48.9456 562.001L92.9817 563.28L93.3301 551.285ZM551.426 547.437L427.21 548.357L427.299 560.357L551.514 559.437L551.426 547.437ZM926.725 550.037L879.51 555.086L880.786 567.018L928.001 561.969L926.725 550.037ZM623.686 627.735L556.007 549.511L546.933 557.362L614.611 635.586L623.686 627.735ZM700.969 659.475L621.469 626.128L616.828 637.193L696.328 670.541L700.969 659.475ZM875.772 556.948L809.558 627.556L818.311 635.765L884.525 565.157L875.772 556.948ZM812.267 625.897L696.981 659.244L700.316 670.771L815.601 637.424L812.267 625.897ZM146.71 606.063L97.5498 553.196L88.762 561.368L137.922 614.234L146.71 606.063ZM268.009 650.018L144.388 604.518L140.243 615.779L263.865 661.279L268.009 650.018ZM422.592 550.581L359.986 627.884L369.311 635.437L431.917 558.133L422.592 550.581ZM363.232 625.83L264.52 649.818L267.354 661.479L366.065 637.491L363.232 625.83ZM350.009 324.091L356.787 314.189L356.351 313.891L355.891 313.632L350.009 324.091ZM370.043 337.275L377.322 327.735L376.91 327.421L376.472 327.143L370.043 337.275ZM427.254 370.166L432.71 359.477L393.033 339.225L417.168 376.667L427.254 370.166ZM455.034 441.735L443.202 443.735L448.08 472.59L464.864 448.617L455.034 441.735ZM469.102 427.017L476.259 436.649L476.259 436.649L469.102 427.017ZM477.58 421.662L472.09 410.991L472.09 410.991L477.58 421.662ZM489.028 418.008L490.168 429.954L490.25 429.946L490.333 429.937L489.028 418.008ZM490.184 417.949L490.102 429.949L490.115 429.949L490.128 429.949L490.184 417.949ZM491.203 418.006L489.924 429.938L490.001 429.946L490.078 429.953L491.203 418.006ZM511.213 426.778L504.056 436.41L504.056 436.41L511.213 426.778ZM526.261 441.744L516.722 449.025L533.488 470.993L538.094 443.744L526.261 441.744ZM551.47 374.269L561.717 380.514L583.593 344.618L546.064 363.556L551.47 374.269ZM542.532 378.582L537.529 367.675L537.529 367.675L542.532 378.582ZM503.452 388.192L502.562 376.225L502.507 376.23L502.452 376.234L503.452 388.192ZM477.613 387.784L479.066 375.873L478.953 375.859L478.839 375.847L477.613 387.784ZM477.048 387.725L475.777 399.658L475.778 399.658L477.048 387.725ZM476.284 387.614L478.458 375.813L478.167 375.759L477.874 375.72L476.284 387.614ZM443.789 378.2L448.792 367.293L448.792 367.293L443.789 378.2ZM534.194 360.403L539.197 371.311L539.197 371.311L534.194 360.403ZM591.2 327.757L597.72 337.831L598.377 337.406L598.973 336.899L591.2 327.757ZM505.35 367.946L505.666 379.942L506.132 379.93L506.596 379.881L505.35 367.946ZM504.543 368L505.814 379.932L505.814 379.932L504.543 368ZM501.824 368.259L502.7 380.227L502.765 380.222L502.829 380.217L501.824 368.259ZM479.84 367.908L478.362 379.816L478.496 379.833L478.631 379.847L479.84 367.908ZM452.127 360.021L457.13 349.114L457.13 349.114L452.127 360.021ZM381.476 320.843L374.24 330.416L374.638 330.716L375.059 330.983L381.476 320.843ZM457.268 487.288L446.526 481.939L445.46 484.08L445.296 486.465L457.268 487.288ZM458.008 485.295L446.381 482.326L446.381 482.326L458.008 485.295ZM481.031 443.07L488.188 452.702L488.188 452.702L481.031 443.07ZM486.731 439.446L481.241 428.775L481.241 428.775L486.731 439.446ZM490.168 438.058L492.866 426.365L490.043 425.714L487.235 426.422L490.168 438.058ZM499.284 442.831L506.442 433.199L506.442 433.199L499.284 442.831ZM523.758 482.473L535.746 481.948L535.691 480.694L535.378 479.478L523.758 482.473ZM636.878 321.229L643.664 331.126L643.664 331.126L636.878 321.229ZM603.187 343.823L596.655 333.757L595.968 334.203L595.348 334.738L603.187 343.823ZM637.507 320.761L632.061 310.068L630.95 310.634L629.978 311.417L637.507 320.761ZM649.108 959.484L637.79 963.472L640.613 971.484H649.108V959.484ZM658.627 959.484V971.484H666.928L669.855 963.717L658.627 959.484ZM705.648 834.731L716.877 838.963L716.954 838.759L717.024 838.553L705.648 834.731ZM840.617 610.148L846.52 620.596L848.522 619.465L849.964 617.674L840.617 610.148ZM880.148 561.052L891.545 564.81L870.802 553.526L880.148 561.052ZM785.829 847.088L774.432 843.33L774.372 843.511L774.318 843.695L785.829 847.088ZM727.852 1043.78L728.561 1055.76L736.978 1055.26L739.363 1047.17L727.852 1043.78ZM569.499 1053.15L557.875 1056.13L560.332 1065.71L570.207 1065.13L569.499 1053.15ZM520.175 860.777L531.799 857.797L531.726 857.512L531.639 857.231L520.175 860.777ZM490.755 765.672L502.219 762.126L490.928 725.627L479.322 762.027L490.755 765.672ZM464.795 847.088L453.362 843.442L453.322 843.568L453.285 843.695L464.795 847.088ZM406.818 1043.78L407.539 1055.76L415.947 1055.25L418.329 1047.17L406.818 1043.78ZM251.061 1053.15L239.475 1056.28L242.023 1065.71L251.781 1065.13L251.061 1053.15ZM199.142 860.777L210.727 857.65L210.661 857.404L210.584 857.161L199.142 860.777ZM104.148 560.148L113.687 552.867L92.7061 563.764L104.148 560.148ZM282.148 826.193L270.571 829.35L270.595 829.437L270.62 829.523L282.148 826.193ZM320.648 959.484L309.12 962.814L311.624 971.484H320.648V959.484ZM340.189 959.484V971.484H348.75L351.536 963.389L340.189 959.484ZM386.051 826.193L397.398 830.098L397.627 829.433L397.776 828.747L386.051 826.193ZM443.789 561.052L432.474 557.057L432.224 557.765L432.064 558.499L443.789 561.052ZM524.029 487.288L535.334 483.265L534.684 481.439L533.493 479.91L524.029 487.288ZM602.148 826.193L590.338 828.32L590.509 829.27L590.83 830.181L602.148 826.193ZM558.628 584.5L570.438 582.373L570.264 581.404L569.934 580.476L558.628 584.5ZM235.648 655.648L247.226 652.492L245.664 646.765L240.164 644.531L235.648 655.648ZM150.713 621.148L141.174 628.43L143.162 631.033L146.197 632.266L150.713 621.148ZM767.164 651.648L761.261 641.201L757.255 643.464L755.789 647.826L767.164 651.648ZM265.937 657.726C367.441 657.726 449.726 575.441 449.726 473.937H425.726C425.726 562.186 354.186 633.726 265.937 633.726V657.726ZM82.1484 473.937C82.1484 575.441 164.433 657.726 265.937 657.726V633.726C177.688 633.726 106.148 562.186 106.148 473.937H82.1484ZM265.937 290.148C164.433 290.148 82.1484 372.433 82.1484 473.937H106.148C106.148 385.688 177.688 314.148 265.937 314.148V290.148ZM355.891 313.632C329.29 298.675 298.591 290.148 265.937 290.148V314.148C294.365 314.148 321.025 321.562 344.128 334.551L355.891 313.632ZM376.472 327.143C369.516 322.729 362.887 318.364 356.787 314.189L343.231 333.994C349.579 338.339 356.442 342.857 363.614 347.408L376.472 327.143ZM449.726 473.937C449.726 414.298 421.307 361.293 377.322 327.735L362.764 346.816C401.055 376.029 425.726 422.1 425.726 473.937H449.726ZM417.168 376.667C430.056 396.66 439.082 419.364 443.202 443.735L466.866 439.734C462.191 412.084 451.949 386.327 437.34 363.664L417.168 376.667ZM464.864 448.617C468.126 443.958 471.89 439.896 476.259 436.649L461.944 417.385C455.166 422.422 449.673 428.469 445.204 434.852L464.864 448.617ZM476.259 436.649C478.184 435.218 480.57 433.619 483.071 432.332L472.09 410.991C468.047 413.071 464.517 415.474 461.944 417.385L476.259 436.649ZM483.071 432.332C485.533 431.065 487.994 430.161 490.168 429.954L487.887 406.062C481.384 406.683 475.8 409.083 472.09 410.991L483.071 432.332ZM490.333 429.937C490.254 429.946 490.176 429.949 490.102 429.949L490.265 405.949C489.411 405.944 488.562 405.987 487.722 406.079L490.333 429.937ZM490.128 429.949C490.062 429.949 489.994 429.945 489.924 429.938L492.481 406.074C491.74 405.995 490.992 405.953 490.239 405.949L490.128 429.949ZM490.078 429.953C492.126 430.146 494.624 430.941 497.337 432.274C499.986 433.575 502.362 435.151 504.056 436.41L518.371 417.146C513.801 413.75 503.747 407.133 492.327 406.059L490.078 429.953ZM504.056 436.41C508.893 440.004 513.097 444.275 516.722 449.025L535.801 434.464C530.953 428.112 525.181 422.207 518.371 417.146L504.056 436.41ZM538.094 443.744C541.951 420.919 550.111 399.557 561.717 380.514L541.223 368.024C528.066 389.614 518.806 413.849 514.429 439.745L538.094 443.744ZM546.064 363.556C543.149 365.027 540.299 366.404 537.529 367.675L547.535 389.49C550.607 388.08 553.727 386.572 556.876 384.983L546.064 363.556ZM537.529 367.675C526.769 372.61 514.788 375.316 502.562 376.225L504.342 400.159C518.844 399.081 533.707 395.832 547.535 389.49L537.529 367.675ZM502.452 376.234C494.479 376.901 486.69 376.803 479.066 375.873L476.16 399.696C485.543 400.841 494.982 400.943 504.453 400.151L502.452 376.234ZM478.839 375.847C478.665 375.829 478.491 375.811 478.318 375.793L475.778 399.658C475.981 399.679 476.184 399.701 476.386 399.721L478.839 375.847ZM478.318 375.793C478.364 375.797 478.41 375.804 478.458 375.813L474.111 399.416C474.66 399.517 475.216 399.598 475.777 399.658L478.318 375.793ZM477.874 375.72C468.016 374.402 458.334 371.669 448.792 367.293L438.786 389.107C450.526 394.492 462.512 397.88 474.694 399.509L477.874 375.72ZM448.792 367.293C443.634 364.927 438.244 362.302 432.71 359.477L421.799 380.854C427.586 383.807 433.28 386.582 438.786 389.107L448.792 367.293ZM539.197 371.311C557.531 362.901 578.374 350.352 597.72 337.831L584.68 317.683C565.573 330.049 545.904 341.83 529.191 349.496L539.197 371.311ZM506.596 379.881C517.8 378.712 528.959 376.007 539.197 371.311L529.191 349.496C521.746 352.911 513.208 355.061 504.104 356.011L506.596 379.881ZM505.814 379.932C505.766 379.937 505.716 379.941 505.666 379.942L505.035 355.95C504.449 355.966 503.862 356.004 503.273 356.067L505.814 379.932ZM502.829 380.217C503.822 380.133 504.817 380.038 505.814 379.932L503.273 356.067C502.451 356.155 501.633 356.233 500.819 356.301L502.829 380.217ZM478.631 379.847C486.545 380.649 494.658 380.816 502.7 380.227L500.948 356.291C494.392 356.771 487.678 356.64 481.05 355.969L478.631 379.847ZM447.124 370.928C457.264 375.579 467.664 378.488 478.362 379.816L481.319 355.999C473.037 354.971 465.016 352.731 457.13 349.114L447.124 370.928ZM375.059 330.983C398.098 345.564 424.559 360.578 447.124 370.928L457.13 349.114C435.852 339.354 410.37 324.928 387.893 310.703L375.059 330.983ZM265.937 294.148C306.621 294.148 344.118 307.647 374.24 330.416L388.712 311.27C354.567 285.461 312.023 270.148 265.937 270.148V294.148ZM86.1484 473.937C86.1484 374.642 166.643 294.148 265.937 294.148V270.148C153.388 270.148 62.1484 361.388 62.1484 473.937H86.1484ZM265.937 653.726C166.643 653.726 86.1484 573.231 86.1484 473.937H62.1484C62.1484 586.486 153.388 677.726 265.937 677.726V653.726ZM445.296 486.465C438.871 579.909 361.019 653.726 265.937 653.726V677.726C373.722 677.726 461.955 594.054 469.24 488.112L445.296 486.465ZM446.381 482.326C446.413 482.201 446.461 482.07 446.526 481.939L468.01 492.638C468.697 491.259 469.244 489.795 469.635 488.265L446.381 482.326ZM473.873 433.438C458.368 444.961 450.752 465.211 446.381 482.326L469.635 488.265C473.835 471.818 479.838 458.907 488.188 452.702L473.873 433.438ZM481.241 428.775C478.483 430.194 475.906 431.928 473.873 433.438L488.188 452.702C489.576 451.671 491.008 450.74 492.221 450.116L481.241 428.775ZM487.235 426.422C485.353 426.897 483.335 427.698 481.241 428.775L492.22 450.116C492.645 449.898 492.942 449.77 493.109 449.704C493.286 449.634 493.281 449.649 493.102 449.694L487.235 426.422ZM506.442 433.199C502.574 430.325 497.456 427.424 492.866 426.365L487.471 449.751C487.246 449.699 487.709 449.799 488.836 450.386C489.846 450.912 491.009 451.632 492.127 452.463L506.442 433.199ZM535.378 479.478C530.924 462.203 521.761 444.583 506.442 433.199L492.127 452.463C501.68 459.562 508.561 471.596 512.138 485.469L535.378 479.478ZM715.36 653.726C618.75 653.726 539.932 577.52 535.746 481.948L511.769 482.999C516.515 591.348 605.847 677.726 715.36 677.726V653.726ZM895.148 473.937C895.148 573.231 814.654 653.726 715.36 653.726V677.726C827.909 677.726 919.148 586.486 919.148 473.937H895.148ZM715.36 294.148C814.654 294.148 895.148 374.642 895.148 473.937H919.148C919.148 361.388 827.909 270.148 715.36 270.148V294.148ZM598.973 336.899C630.342 310.229 670.958 294.148 715.36 294.148V270.148C665.051 270.148 618.972 288.394 583.427 318.614L598.973 336.899ZM630.093 311.331C620.108 318.177 608.662 325.965 596.655 333.757L609.72 353.889C621.99 345.926 633.64 337.999 643.664 331.126L630.093 311.331ZM629.978 311.417C630.016 311.386 630.055 311.358 630.092 311.332L643.664 331.126C644.137 330.802 644.594 330.461 645.036 330.105L629.978 311.417ZM715.36 290.148C685.399 290.148 657.08 297.327 632.061 310.068L642.953 331.454C664.676 320.391 689.271 314.148 715.36 314.148V290.148ZM899.148 473.937C899.148 372.433 816.864 290.148 715.36 290.148V314.148C803.609 314.148 875.148 385.688 875.148 473.937H899.148ZM715.36 657.726C816.864 657.726 899.148 575.441 899.148 473.937H875.148C875.148 562.186 803.609 633.726 715.36 633.726V657.726ZM531.571 473.937C531.571 575.441 613.856 657.726 715.36 657.726V633.726C627.111 633.726 555.571 562.186 555.571 473.937H531.571ZM595.348 334.738C556.311 368.422 531.571 418.297 531.571 473.937H555.571C555.571 425.568 577.048 382.228 611.027 352.908L595.348 334.738ZM649.108 971.484H658.627V947.484H649.108V971.484ZM669.855 963.717L716.877 838.963L694.42 830.498L647.398 955.252L669.855 963.717ZM849.964 617.674L889.495 568.578L870.802 553.526L831.271 602.623L849.964 617.674ZM868.752 557.294L774.432 843.33L797.225 850.846L891.545 564.81L868.752 557.294ZM774.318 843.695L716.342 1040.39L739.363 1047.17L797.339 850.48L774.318 843.695ZM727.144 1031.8L568.79 1041.17L570.207 1065.13L728.561 1055.76L727.144 1031.8ZM581.123 1050.17L531.799 857.797L508.551 863.757L557.875 1056.13L581.123 1050.17ZM531.639 857.231L502.219 762.126L479.291 769.218L508.711 864.323L531.639 857.231ZM479.322 762.027L453.362 843.442L476.228 850.733L502.187 769.317L479.322 762.027ZM453.285 843.695L395.308 1040.39L418.329 1047.17L476.305 850.48L453.285 843.695ZM406.098 1031.8L250.341 1041.17L251.781 1065.13L407.539 1055.76L406.098 1031.8ZM262.646 1050.02L210.727 857.65L187.556 863.904L239.475 1056.28L262.646 1050.02ZM210.584 857.161L115.591 556.533L92.7061 563.764L187.699 864.393L210.584 857.161ZM270.62 829.523L309.12 962.814L332.177 956.154L293.677 822.863L270.62 829.523ZM320.648 971.484H340.189V947.484H320.648V971.484ZM351.536 963.389L397.398 830.098L374.704 822.289L328.842 955.58L351.536 963.389ZM397.776 828.747L455.514 563.606L432.064 558.499L374.326 823.64L397.776 828.747ZM455.104 565.048L498.046 443.442L475.415 435.45L432.474 557.057L455.104 565.048ZM477.267 446.824L514.565 494.666L533.493 479.91L496.194 432.068L477.267 446.824ZM590.83 830.181L637.79 963.472L660.426 955.497L613.467 822.206L590.83 830.181ZM512.723 491.312L547.323 588.524L569.934 580.476L535.334 483.265L512.723 491.312ZM546.818 586.627L590.338 828.32L613.959 824.067L570.438 582.373L546.818 586.627ZM224.071 658.805L270.571 829.35L293.726 823.037L247.226 652.492L224.071 658.805ZM94.6099 567.43L141.174 628.43L160.251 613.867L113.687 552.867L94.6099 567.43ZM146.197 632.266L231.132 666.766L240.164 644.531L155.229 610.031L146.197 632.266ZM717.024 838.553L778.539 655.47L755.789 647.826L694.273 830.909L717.024 838.553ZM773.067 662.096L846.52 620.596L834.714 599.701L761.261 641.201L773.067 662.096Z" fill="black" mask="url(#path-1-outside-1_10_3615)"/>
</svg>
